<?xml version="1.0" encoding="utf-8"?>
<!-- Generator: Adobe Illustrator 27.5.0, SVG Export Plug-In . SVG Version: 6.00 Build 0)  -->
<svg version="1.1" xmlns="http://www.w3.org/2000/svg" xmlns:xlink="http://www.w3.org/1999/xlink" x="0px" y="0px"
	 viewBox="0 0 500 500" style="enable-background:new 0 0 500 500;" xml:space="preserve">
<g id="BACKGROUND">
</g>
<g id="OBJECTS">
	<g>
		<g>
			<path style="fill-rule:evenodd;clip-rule:evenodd;fill:#FFDB00;" d="M429.071,365.458H55.227
				c-1.068-1.521-2.051-3.103-2.957-4.692c-15.522-27.257-10.949-64.463,10.718-87.138c18.47-19.342,46.103-27.36,65.873-45.36
				c4.222-3.846,8.026-8.111,11.556-12.598c11.915-15.171,20.188-32.753,30.949-48.702c10.53-15.616,24.727-28.342,39.539-39.779
				c31.975-24.701,77.147-38.582,114.088-16.094c18.334,11.154,31.975,29.778,37.086,50.625c1.932,7.88,2.692,16.026,4.701,23.898
				c3.111,12.18,9.299,23.548,17.735,32.864c7.539,8.316,17.129,12.034,24.334,20.838c15.496,18.915,24.881,42.616,27.308,66.899
				C438.148,326.167,435.533,346.466,429.071,365.458z"/>
			<path style="fill-rule:evenodd;clip-rule:evenodd;fill:#FF8300;" d="M47.523,372.48L47.523,372.48
				c0,3.878,3.144,7.022,7.022,7.022h12.744c3.878,0,7.022,3.144,7.022,7.022v0c0,3.878-3.144,7.022-7.022,7.022H54.22
				c-3.878,0-7.022,3.144-7.022,7.022l0,0c0,3.878,3.144,7.022,7.022,7.022h352.6c3.878,0,7.022-3.144,7.022-7.022l0,0
				c0-3.878,3.144-7.022,7.022-7.022h5.175c3.878,0,7.022-3.144,7.022-7.022v0c0-3.878,3.144-7.022,7.022-7.022h4.031
				c3.878,0,7.022-3.144,7.022-7.022l0,0c0-3.878-3.144-7.022-7.022-7.022H54.544C50.666,365.458,47.523,368.602,47.523,372.48z"/>
			<path style="fill-rule:evenodd;clip-rule:evenodd;fill:#FFA100;" d="M439.036,236.538c0.011,0,0.021-0.001,0.032-0.001
				c-1.214-3.523-4.569-8.354-8.028-9.817c-2.341-0.99-4.911-1.389-7.192-2.51c-7.634-3.752-10.375-12.4-18.781-15.399
				c-4.928-1.758-10.655-1.638-15.169,1.008c-5.753,3.372-8.972,10.309-15.113,12.908c-2.196,0.929-4.614,1.224-6.838,2.083
				c-5.161,1.993-7.814,7.987-7.964,13.183c0-0.014,1.954-0.037,2.057-0.039C386.422,237.487,414.68,237.101,439.036,236.538z"/>
			<g>
				<g>
					<g>
						<rect x="136.869" y="211.059" style="fill-rule:evenodd;clip-rule:evenodd;fill:#DACCE0;" width="63.054" height="8.326"/>
						<rect x="139.294" y="219.385" style="fill-rule:evenodd;clip-rule:evenodd;fill:#68408F;" width="58.203" height="6.454"/>
						<g>
							<rect x="148.459" y="219.385" style="fill-rule:evenodd;clip-rule:evenodd;fill:#DACCE0;" width="0.462" height="6.454"/>
							<rect x="158.312" y="219.385" style="fill-rule:evenodd;clip-rule:evenodd;fill:#DACCE0;" width="0.462" height="6.454"/>
							<rect x="168.165" y="219.385" style="fill-rule:evenodd;clip-rule:evenodd;fill:#DACCE0;" width="0.462" height="6.454"/>
							<rect x="178.018" y="219.385" style="fill-rule:evenodd;clip-rule:evenodd;fill:#DACCE0;" width="0.462" height="6.454"/>
							<rect x="187.871" y="219.385" style="fill-rule:evenodd;clip-rule:evenodd;fill:#DACCE0;" width="0.462" height="6.454"/>
						</g>
						<rect x="139.294" y="225.839" style="fill-rule:evenodd;clip-rule:evenodd;fill:#DACCE0;" width="58.203" height="2.709"/>
						<rect x="139.294" y="228.548" style="fill-rule:evenodd;clip-rule:evenodd;fill:#68408F;" width="58.203" height="6.454"/>
						<g>
							<rect x="148.459" y="228.548" style="fill-rule:evenodd;clip-rule:evenodd;fill:#DACCE0;" width="0.462" height="6.454"/>
							<rect x="158.312" y="228.548" style="fill-rule:evenodd;clip-rule:evenodd;fill:#DACCE0;" width="0.462" height="6.454"/>
							<rect x="168.165" y="228.548" style="fill-rule:evenodd;clip-rule:evenodd;fill:#DACCE0;" width="0.462" height="6.454"/>
							<rect x="178.018" y="228.548" style="fill-rule:evenodd;clip-rule:evenodd;fill:#DACCE0;" width="0.462" height="6.454"/>
							<rect x="187.871" y="228.548" style="fill-rule:evenodd;clip-rule:evenodd;fill:#DACCE0;" width="0.462" height="6.454"/>
						</g>
						<rect x="139.294" y="235.002" style="fill-rule:evenodd;clip-rule:evenodd;fill:#DACCE0;" width="58.203" height="2.709"/>
						<rect x="139.294" y="237.71" style="fill-rule:evenodd;clip-rule:evenodd;fill:#68408F;" width="58.203" height="6.454"/>
						<g>
							<rect x="148.459" y="237.71" style="fill-rule:evenodd;clip-rule:evenodd;fill:#DACCE0;" width="0.462" height="6.454"/>
							<rect x="158.312" y="237.71" style="fill-rule:evenodd;clip-rule:evenodd;fill:#DACCE0;" width="0.462" height="6.454"/>
							<rect x="168.165" y="237.71" style="fill-rule:evenodd;clip-rule:evenodd;fill:#DACCE0;" width="0.462" height="6.454"/>
							<rect x="178.018" y="237.71" style="fill-rule:evenodd;clip-rule:evenodd;fill:#DACCE0;" width="0.462" height="6.454"/>
							<rect x="187.871" y="237.71" style="fill-rule:evenodd;clip-rule:evenodd;fill:#DACCE0;" width="0.462" height="6.454"/>
						</g>
						<rect x="139.294" y="244.164" style="fill-rule:evenodd;clip-rule:evenodd;fill:#DACCE0;" width="58.203" height="2.709"/>
						<rect x="139.294" y="246.873" style="fill-rule:evenodd;clip-rule:evenodd;fill:#68408F;" width="58.203" height="6.454"/>
						<g>
							<rect x="148.459" y="246.873" style="fill-rule:evenodd;clip-rule:evenodd;fill:#DACCE0;" width="0.462" height="6.454"/>
							<rect x="158.312" y="246.873" style="fill-rule:evenodd;clip-rule:evenodd;fill:#DACCE0;" width="0.462" height="6.454"/>
							<rect x="168.165" y="246.873" style="fill-rule:evenodd;clip-rule:evenodd;fill:#DACCE0;" width="0.462" height="6.454"/>
							<rect x="178.018" y="246.873" style="fill-rule:evenodd;clip-rule:evenodd;fill:#DACCE0;" width="0.462" height="6.454"/>
							<rect x="187.871" y="246.873" style="fill-rule:evenodd;clip-rule:evenodd;fill:#DACCE0;" width="0.462" height="6.454"/>
						</g>
						<rect x="139.294" y="253.327" style="fill-rule:evenodd;clip-rule:evenodd;fill:#DACCE0;" width="58.203" height="2.709"/>
						<rect x="139.294" y="256.036" style="fill-rule:evenodd;clip-rule:evenodd;fill:#68408F;" width="58.203" height="6.454"/>
						<g>
							<rect x="148.459" y="256.036" style="fill-rule:evenodd;clip-rule:evenodd;fill:#DACCE0;" width="0.462" height="6.454"/>
							<rect x="158.312" y="256.036" style="fill-rule:evenodd;clip-rule:evenodd;fill:#DACCE0;" width="0.462" height="6.454"/>
							<rect x="168.165" y="256.036" style="fill-rule:evenodd;clip-rule:evenodd;fill:#DACCE0;" width="0.462" height="6.454"/>
							<rect x="178.018" y="256.036" style="fill-rule:evenodd;clip-rule:evenodd;fill:#DACCE0;" width="0.462" height="6.454"/>
							<rect x="187.871" y="256.036" style="fill-rule:evenodd;clip-rule:evenodd;fill:#DACCE0;" width="0.462" height="6.454"/>
						</g>
						<rect x="139.294" y="262.49" style="fill-rule:evenodd;clip-rule:evenodd;fill:#DACCE0;" width="58.203" height="2.709"/>
						<rect x="139.294" y="265.199" style="fill-rule:evenodd;clip-rule:evenodd;fill:#68408F;" width="58.203" height="6.454"/>
						<g>
							<rect x="148.459" y="265.199" style="fill-rule:evenodd;clip-rule:evenodd;fill:#DACCE0;" width="0.462" height="6.454"/>
							<rect x="158.312" y="265.199" style="fill-rule:evenodd;clip-rule:evenodd;fill:#DACCE0;" width="0.462" height="6.454"/>
							<rect x="168.165" y="265.199" style="fill-rule:evenodd;clip-rule:evenodd;fill:#DACCE0;" width="0.462" height="6.454"/>
							<rect x="178.018" y="265.199" style="fill-rule:evenodd;clip-rule:evenodd;fill:#DACCE0;" width="0.462" height="6.454"/>
							<rect x="187.871" y="265.199" style="fill-rule:evenodd;clip-rule:evenodd;fill:#DACCE0;" width="0.462" height="6.454"/>
						</g>
						<rect x="139.294" y="271.653" style="fill-rule:evenodd;clip-rule:evenodd;fill:#DACCE0;" width="58.203" height="2.709"/>
						<rect x="139.294" y="274.361" style="fill-rule:evenodd;clip-rule:evenodd;fill:#68408F;" width="58.203" height="6.454"/>
						<g>
							<rect x="148.459" y="274.361" style="fill-rule:evenodd;clip-rule:evenodd;fill:#DACCE0;" width="0.462" height="6.454"/>
							<rect x="158.312" y="274.361" style="fill-rule:evenodd;clip-rule:evenodd;fill:#DACCE0;" width="0.462" height="6.454"/>
							<rect x="168.165" y="274.361" style="fill-rule:evenodd;clip-rule:evenodd;fill:#DACCE0;" width="0.462" height="6.454"/>
							<rect x="178.018" y="274.361" style="fill-rule:evenodd;clip-rule:evenodd;fill:#DACCE0;" width="0.462" height="6.454"/>
							<rect x="187.871" y="274.361" style="fill-rule:evenodd;clip-rule:evenodd;fill:#DACCE0;" width="0.462" height="6.454"/>
						</g>
						<rect x="139.294" y="280.815" style="fill-rule:evenodd;clip-rule:evenodd;fill:#DACCE0;" width="58.203" height="2.709"/>
						<rect x="139.294" y="283.524" style="fill-rule:evenodd;clip-rule:evenodd;fill:#68408F;" width="58.203" height="6.454"/>
						<g>
							<rect x="148.459" y="283.524" style="fill-rule:evenodd;clip-rule:evenodd;fill:#DACCE0;" width="0.462" height="6.454"/>
							<rect x="158.312" y="283.524" style="fill-rule:evenodd;clip-rule:evenodd;fill:#DACCE0;" width="0.462" height="6.454"/>
							<rect x="168.165" y="283.524" style="fill-rule:evenodd;clip-rule:evenodd;fill:#DACCE0;" width="0.462" height="6.454"/>
							<rect x="178.018" y="283.524" style="fill-rule:evenodd;clip-rule:evenodd;fill:#DACCE0;" width="0.462" height="6.454"/>
							<rect x="187.871" y="283.524" style="fill-rule:evenodd;clip-rule:evenodd;fill:#DACCE0;" width="0.462" height="6.454"/>
						</g>
						<rect x="139.294" y="289.978" style="fill-rule:evenodd;clip-rule:evenodd;fill:#DACCE0;" width="58.203" height="2.709"/>
					</g>
					<g>
						<g>
							<g>
								<path style="fill-rule:evenodd;clip-rule:evenodd;fill:#FFA100;" d="M369.184,225.288c-0.126-0.173-0.251-0.349-0.378-0.518
									c-17.076,41.071-7.282,88.547-7.282,88.547s0.721,0,12.296,0C364.888,285.117,366.024,254.799,369.184,225.288z"/>
								<path style="fill-rule:evenodd;clip-rule:evenodd;fill:#FF8E00;" d="M369.184,225.288
									c-3.161,29.512-4.297,59.829,4.635,88.029c2.88,0,6.422,0,10.804,0C391.069,293.309,384.411,246.185,369.184,225.288z"/>
							</g>
							<g>
								<path style="fill-rule:evenodd;clip-rule:evenodd;fill:#FFA100;" d="M410.849,239.535
									c-15.264,9.339-26.404,21.743-34.606,37.492c-6.46,12.404-11.943,26.175-10.048,40.031l7.91,1.059
									c7.317-27.661,20.867-53,36.231-77.035C410.475,240.254,410.643,239.661,410.849,239.535z"/>
								<path style="fill-rule:evenodd;clip-rule:evenodd;fill:#FF8E00;" d="M374.104,318.116l6.798,0.91
									c1.558-0.373,2.591-1.808,3.482-3.14c8.046-11.265,13.231-23.788,17.642-36.884c2.24-6.65,4.143-13.414,5.655-20.267
									c0.738-3.345,1.383-6.71,1.932-10.09c0.157-0.967,0.326-5.217,0.723-7.564C394.971,265.117,381.421,290.455,374.104,318.116
									z"/>
							</g>
							<g>
								<path style="fill-rule:evenodd;clip-rule:evenodd;fill:#FFA100;" d="M328.045,239.535
									c15.264,9.339,26.404,21.743,34.606,37.492c6.46,12.404,11.943,26.175,10.048,40.031l-7.91,1.059
									c-7.317-27.661-20.867-53-36.231-77.035C328.419,240.254,328.251,239.661,328.045,239.535z"/>
								<path style="fill-rule:evenodd;clip-rule:evenodd;fill:#FF8E00;" d="M364.79,318.116l-6.798,0.91
									c-1.558-0.373-2.591-1.808-3.482-3.14c-8.046-11.265-13.231-23.788-17.642-36.884c-2.24-6.65-4.143-13.414-5.655-20.267
									c-0.738-3.345-1.383-6.71-1.932-10.09c-0.157-0.967-0.326-5.217-0.723-7.564
									C343.923,265.117,357.473,290.455,364.79,318.116z"/>
							</g>
						</g>
						<g>
							<polygon style="fill-rule:evenodd;clip-rule:evenodd;fill:#DACCE0;" points="405.108,304.875 393.51,379.501 
								345.308,379.501 333.71,304.875 							"/>
							<polygon style="fill-rule:evenodd;clip-rule:evenodd;fill:#AF91BD;" points="382.769,304.875 371.171,379.501 
								345.308,379.501 333.71,304.875 							"/>
						</g>
					</g>
					<g>
						<rect x="147.761" y="276.141" style="fill-rule:evenodd;clip-rule:evenodd;fill:#FFFFFF;" width="60.439" height="24.273"/>
						<rect x="145.378" y="276.141" style="fill-rule:evenodd;clip-rule:evenodd;fill:#DACCE0;" width="62.822" height="5.768"/>
						<rect x="150.37" y="273.746" style="fill-rule:evenodd;clip-rule:evenodd;fill:#FFC700;" width="57.829" height="2.394"/>
						<rect x="150.37" y="299.217" style="fill-rule:evenodd;clip-rule:evenodd;fill:#FFC700;" width="57.829" height="2.394"/>
						<path style="fill-rule:evenodd;clip-rule:evenodd;fill:#FFC700;" d="M157.065,301.615H82.881
							c-3.475-9.48-3.625-18.78,0-27.868h74.185C153.433,282.835,153.583,292.135,157.065,301.615z"/>
						<path style="fill-rule:evenodd;clip-rule:evenodd;fill:#FFA100;" d="M154.633,301.615H80.448
							c-3.475-9.48-3.624-18.78,0-27.868h74.185C151.001,282.835,151.151,292.135,154.633,301.615z"/>
						<path style="fill-rule:evenodd;clip-rule:evenodd;fill:#FFC700;" d="M88.406,301.613h-4.402
							c-3.475-9.476-3.624-18.78,0-27.867h4.402C84.781,282.834,84.931,292.138,88.406,301.613z"/>
						<path style="fill-rule:evenodd;clip-rule:evenodd;fill:#FFC700;" d="M96.621,301.613h-4.402
							c-3.475-9.476-3.624-18.78,0-27.867h4.402C92.996,282.834,93.146,292.138,96.621,301.613z"/>
						<path style="fill-rule:evenodd;clip-rule:evenodd;fill:#FFC700;" d="M144.833,287.68c0,3.405-2.76,6.165-6.165,6.165
							c-3.405,0-6.165-2.76-6.165-6.165c0-3.405,2.76-6.165,6.165-6.165C142.073,281.515,144.833,284.275,144.833,287.68z"/>
					</g>
					<g>
						<path style="fill-rule:evenodd;clip-rule:evenodd;fill:#68408F;" d="M75.151,334.478h103.18v43.919H75.151
							C66.535,362.407,67.404,347.904,75.151,334.478z"/>
						<rect x="77.702" y="338.862" style="fill-rule:evenodd;clip-rule:evenodd;fill:#FFFFFF;" width="100.781" height="34.222"/>
						<rect x="77.702" y="338.862" style="fill-rule:evenodd;clip-rule:evenodd;fill:#DACCE0;" width="100.781" height="3.552"/>
						<g>
							<path style="fill-rule:evenodd;clip-rule:evenodd;fill:#DACCE0;" d="M173.902,347.616H89.394
								c-0.576,0-1.043-0.467-1.043-1.043l0,0c0-0.576,0.467-1.043,1.043-1.043h84.507c0.576,0,1.043,0.467,1.043,1.043l0,0
								C174.945,347.149,174.478,347.616,173.902,347.616z"/>
							<path style="fill-rule:evenodd;clip-rule:evenodd;fill:#DACCE0;" d="M173.902,357.246H89.394
								c-0.576,0-1.043-0.467-1.043-1.043l0,0c0-0.576,0.467-1.043,1.043-1.043h84.507c0.576,0,1.043,0.467,1.043,1.043l0,0
								C174.945,356.779,174.478,357.246,173.902,357.246z"/>
							<path style="fill-rule:evenodd;clip-rule:evenodd;fill:#DACCE0;" d="M173.902,366.875H89.394
								c-0.576,0-1.043-0.467-1.043-1.043l0,0c0-0.576,0.467-1.043,1.043-1.043h84.507c0.576,0,1.043,0.467,1.043,1.043l0,0
								C174.945,366.408,174.478,366.875,173.902,366.875z"/>
						</g>
						<path style="fill-rule:evenodd;clip-rule:evenodd;fill:#AF91BD;" d="M77.702,373.084c-5.282-12.684-3.695-23.708,0-34.222
							V373.084z"/>
					</g>
					<g>
						<path style="fill-rule:evenodd;clip-rule:evenodd;fill:#FF8300;" d="M89.472,301.611h103.18v32.867H89.472
							C82.821,322.244,83.361,311.435,89.472,301.611z"/>
						<rect x="92.023" y="304.891" style="fill-rule:evenodd;clip-rule:evenodd;fill:#FFFFFF;" width="100.781" height="25.611"/>
						<rect x="92.023" y="304.891" style="fill-rule:evenodd;clip-rule:evenodd;fill:#DACCE0;" width="100.781" height="2.658"/>
						<g>
							<path style="fill-rule:evenodd;clip-rule:evenodd;fill:#DACCE0;" d="M188.485,311.443h-85.032
								c-0.431,0-0.781-0.35-0.781-0.781l0,0c0-0.431,0.35-0.781,0.781-0.781h85.032c0.431,0,0.781,0.349,0.781,0.781l0,0
								C189.266,311.093,188.916,311.443,188.485,311.443z"/>
							<path style="fill-rule:evenodd;clip-rule:evenodd;fill:#DACCE0;" d="M188.485,318.649h-85.032
								c-0.431,0-0.781-0.35-0.781-0.781l0,0c0-0.431,0.35-0.781,0.781-0.781h85.032c0.431,0,0.781,0.349,0.781,0.781l0,0
								C189.266,318.3,188.916,318.649,188.485,318.649z"/>
							<path style="fill-rule:evenodd;clip-rule:evenodd;fill:#DACCE0;" d="M188.485,325.856h-85.032
								c-0.431,0-0.781-0.349-0.781-0.781l0,0c0-0.431,0.35-0.781,0.781-0.781h85.032c0.431,0,0.781,0.35,0.781,0.781l0,0
								C189.266,325.507,188.916,325.856,188.485,325.856z"/>
						</g>
						<path style="fill-rule:evenodd;clip-rule:evenodd;fill:#AF91BD;" d="M92.023,330.502c-5.282-9.492-3.695-17.742,0-25.611
							V330.502z"/>
					</g>
					<g>
						<path style="fill-rule:evenodd;clip-rule:evenodd;fill:#4C236C;" d="M337.462,387.798H164.399
							c-2.266,0-3.96-1.837-3.785-4.102l17.964-232.138c0.175-2.266,2.154-4.102,4.42-4.102h173.063c2.266,0,3.96,1.837,3.785,4.102
							l-17.964,232.138C341.707,385.961,339.728,387.798,337.462,387.798z"/>
						<path style="fill-rule:evenodd;clip-rule:evenodd;fill:#5B2F85;" d="M333.926,387.798H160.863
							c-2.266,0-3.96-1.837-3.785-4.102l17.964-232.138c0.175-2.266,2.154-4.102,4.42-4.102h173.063c2.266,0,3.96,1.837,3.785,4.102
							l-17.964,232.138C338.171,385.961,336.192,387.798,333.926,387.798z"/>
						<polygon style="fill-rule:evenodd;clip-rule:evenodd;fill:#FFFFFF;" points="322.607,373.819 173.035,373.819 189.47,161.433 
							339.043,161.433 						"/>
						<path style="fill-rule:evenodd;clip-rule:evenodd;fill:none;stroke:#AF91BD;stroke-width:2;stroke-miterlimit:10;" d="
							M300.479,150.058h4.554c1.331,0,2.326,1.079,2.223,2.41l-0.855,11.05c-0.095,1.231-1.171,2.229-2.402,2.229h-34.632
							c-0.861,0-1.632-0.371-2.214-0.961c-0.845-0.856-2.029-1.379-3.376-1.379c-1.346,0-2.615,0.523-3.592,1.379
							c-0.672,0.589-1.5,0.961-2.36,0.961l-34.638,0c-1.231,0-2.152-0.998-2.057-2.229l0.855-11.05
							c0.103-1.331,1.265-2.41,2.596-2.41h4.107"/>
						<g>
							<path style="fill-rule:evenodd;clip-rule:evenodd;fill:#E57C00;" d="M298.574,158.022h-68.63
								c-2.387,0-4.172-1.935-3.988-4.322l0.477-6.158c0.073-0.939,0.893-1.7,1.832-1.7h73.874c0.939,0,1.642,0.761,1.569,1.7
								l-0.477,6.158C303.046,156.087,300.961,158.022,298.574,158.022z"/>
							<path style="fill-rule:evenodd;clip-rule:evenodd;fill:#FFA100;" d="M298.645,157.103h-68.63
								c-2.387,0-4.172-1.935-3.988-4.322l0.477-6.158c0.073-0.939,0.893-1.7,1.832-1.7h73.874c0.939,0,1.642,0.761,1.569,1.7
								l-0.477,6.158C303.117,155.168,301.032,157.103,298.645,157.103z"/>
							<path style="fill-rule:evenodd;clip-rule:evenodd;fill:#FFC700;" d="M300.245,152.053h3.113l0.309-3.99h-3.113
								c-1.102,0-2.064,0.893-2.149,1.995l0,0C298.319,151.16,299.143,152.053,300.245,152.053z"/>
							<path style="fill-rule:evenodd;clip-rule:evenodd;fill:#FFC700;" d="M229.196,152.053h-3.113l0.309-3.99h3.113
								c1.102,0,1.926,0.893,1.841,1.995l0,0C231.26,151.16,230.298,152.053,229.196,152.053z"/>
							<path style="fill-rule:evenodd;clip-rule:evenodd;fill:#FFC700;" d="M293.974,151.012h-58.478
								c-0.525,0-0.918-0.426-0.877-0.951l0,0c0.041-0.525,0.499-0.951,1.024-0.951h58.478c0.525,0,0.918,0.426,0.877,0.951l0,0
								C294.957,150.587,294.499,151.012,293.974,151.012z"/>
						</g>
						<g>
							<rect x="228.154" y="176.571" style="fill:#AF91BD;" width="69.613" height="3.233"/>
							<rect x="232.149" y="184.604" style="fill:#AF91BD;" width="60.379" height="3.233"/>
							<rect x="208.065" y="210.624" style="fill:#AF91BD;" width="104.52" height="3.233"/>
							<rect x="207.517" y="217.697" style="fill:#AF91BD;" width="104.521" height="3.233"/>
							<rect x="206.97" y="224.77" style="fill:#AF91BD;" width="94.566" height="3.233"/>
							<rect x="200.98" y="302.174" style="fill:#AF91BD;" width="104.52" height="3.233"/>
							<rect x="200.432" y="309.247" style="fill:#AF91BD;" width="104.521" height="3.233"/>
							<rect x="199.886" y="316.319" style="fill:#AF91BD;" width="94.567" height="3.233"/>
							<rect x="236.957" y="241.796" style="fill:#AF91BD;" width="73.216" height="3.233"/>
							<rect x="236.426" y="248.654" style="fill:#AF91BD;" width="73.216" height="3.233"/>
							<rect x="235.399" y="261.922" style="fill:#AF91BD;" width="73.216" height="3.233"/>
							<rect x="234.869" y="268.779" style="fill:#AF91BD;" width="73.216" height="3.233"/>
							<rect x="233.748" y="283.257" style="fill:#AF91BD;" width="73.216" height="3.233"/>
							<rect x="233.218" y="290.114" style="fill:#AF91BD;" width="73.216" height="3.233"/>
							<rect x="276.768" y="340.027" style="fill:#AF91BD;" width="25.804" height="3.233"/>
						</g>
						<g>
							<g>
								<g>
									<g>
										<polygon style="fill-rule:evenodd;clip-rule:evenodd;fill:#FFC700;" points="207.54,216.856 214.604,218.469 
											212.691,200.801 199.175,203.275 201.088,220.942 										"/>
									</g>
								</g>
								<g>
									<g>
										<polygon style="fill-rule:evenodd;clip-rule:evenodd;fill:#FFC700;" points="185.713,213.61 178.405,213.086 
											187.867,197.11 199.435,203.314 189.973,219.29 										"/>
									</g>
								</g>
							</g>
							<polygon style="fill-rule:evenodd;clip-rule:evenodd;fill:#FFA100;" points="225.522,192.036 228.081,189.896 
								226.617,187.158 228.717,184.571 226.69,182.241 228.232,179.314 225.726,177.498 226.646,174.361 223.775,173.134 
								224.036,169.924 220.926,169.338 220.517,166.195 217.302,166.277 216.236,163.339 213.057,164.09 211.379,161.488 
								208.375,162.872 206.167,160.713 203.467,162.664 200.82,161.046 198.547,163.488 195.576,162.486 193.828,165.308 
								190.664,164.962 189.514,168.04 186.296,168.36 185.793,171.56 182.66,172.537 182.832,175.72 179.924,177.315 
								180.765,180.34 178.207,182.48 179.67,185.218 177.57,187.805 179.598,190.135 178.055,193.062 180.561,194.878 
								179.641,198.015 182.512,199.242 182.251,202.451 185.361,203.038 185.77,206.181 188.985,206.099 190.051,209.037 
								193.23,208.286 194.909,210.888 197.912,209.504 200.121,211.663 202.82,209.712 205.467,211.329 207.74,208.888 
								210.712,209.89 212.459,207.068 215.624,207.414 216.773,204.337 219.992,204.015 220.494,200.816 223.627,199.839 
								223.455,196.656 226.364,195.06 							"/>
							
								<ellipse transform="matrix(0.7206 -0.6933 0.6933 0.7206 -72.3356 192.8536)" style="fill-rule:evenodd;clip-rule:evenodd;fill:#FFC700;" cx="203.144" cy="186.188" rx="23.304" ry="21.569"/>
							<path style="fill-rule:evenodd;clip-rule:evenodd;fill:#5B2F85;" d="M217.744,188.362
								c-1.831,8.153-9.849,13.795-17.913,12.592c-0.419-0.06-0.837-0.142-1.241-0.239c-7.331-1.749-11.785-8.968-10.051-16.695
								c1.831-8.161,9.857-13.803,17.92-12.6c1.218,0.179,2.361,0.508,3.423,0.957C215.891,174.911,219.299,181.427,217.744,188.362
								z"/>
							<path style="fill-rule:evenodd;clip-rule:evenodd;fill:#68408F;" d="M217.744,188.362
								c-1.831,8.153-9.849,13.795-17.913,12.592c-0.419-0.06-0.837-0.142-1.241-0.239c-6.008-2.533-9.416-9.05-7.862-15.977
								c1.831-8.16,9.849-13.803,17.913-12.599c0.418,0.06,0.837,0.142,1.24,0.239C215.891,174.911,219.299,181.427,217.744,188.362
								z"/>
							<g>
								<g>
									<path id="SVGID_x5F_1_x5F_" style="fill:none;" d="M218.871,188.527c-0.43,1.918-1.174,3.708-2.17,5.321
										c-3.591,5.843-10.424,9.384-17.285,8.363c-6.865-1.021-11.719-6.299-12.541-12.798c-0.231-1.795-0.149-3.684,0.281-5.602
										c0.414-1.843,1.117-3.566,2.05-5.129c3.562-5.958,10.469-9.587,17.408-8.555c6.936,1.031,11.821,6.414,12.562,13.011
										C219.375,184.87,219.285,186.684,218.871,188.527z"/>
									<text style="fill:#5E0190; font-family:'BebasKai'; font-size:5.9088px;">									<textPath  xlink:href="#SVGID_x5F_1_x5F_" startOffset="28.6411%">
CERTIFIED									</textPath>
</text>
								</g>
								<g>
									<path id="SVGID_x5F_00000111154536124839498820000000469264294535146642_x5F_" style="fill:none;" d="M183.382,183.249
										c0.533-2.374,1.454-4.591,2.686-6.587c4.445-7.233,12.904-11.617,21.399-10.354c8.499,1.264,14.508,7.799,15.525,15.844
										c0.286,2.222,0.185,4.561-0.348,6.935c-0.512,2.282-1.383,4.414-2.538,6.349c-4.41,7.375-12.961,11.868-21.552,10.591
										c-8.587-1.277-14.634-7.941-15.552-16.108C182.759,187.777,182.87,185.531,183.382,183.249z"/>
									<text style="fill:#5E0190; font-family:'BebasKai'; font-size:5.9088px;">									<textPath  xlink:href="#SVGID_x5F_00000111154536124839498820000000469264294535146642_x5F_" startOffset="28.6411%">
QUALITY									</textPath>
</text>
								</g>
							</g>
							
								<text transform="matrix(0.9744 0.1449 -0.2189 0.9757 189.4559 187.1348)" style="fill:#FFFFFF; font-family:'Bebas'; font-size:7.3029px;">ISO 9001</text>
							<line style="fill:none;stroke:#FFFFFF;stroke-miterlimit:10;" x1="198.907" y1="178.642" x2="210.384" y2="180.349"/>
							<line style="fill:none;stroke:#FFFFFF;stroke-miterlimit:10;" x1="195.903" y1="192.027" x2="207.381" y2="193.733"/>
						</g>
						<g>
							<path style="fill-rule:evenodd;clip-rule:evenodd;fill:#68408F;" d="M228.03,246.585c-0.315,4.071-3.871,7.372-7.942,7.372
								s-7.117-3.301-6.801-7.372c0.315-4.071,3.871-7.372,7.942-7.372C225.3,239.213,228.345,242.514,228.03,246.585z"/>
							
								<polyline style="fill-rule:evenodd;clip-rule:evenodd;fill:none;stroke:#FFC700;stroke-width:3;stroke-linecap:round;stroke-linejoin:round;stroke-miterlimit:10;" points="
								218.397,245.801 220.657,248.25 227.566,241.837 							"/>
						</g>
						<g>
							<path style="fill-rule:evenodd;clip-rule:evenodd;fill:#68408F;" d="M226.453,266.967c-0.315,4.071-3.871,7.372-7.942,7.372
								c-4.071,0-7.117-3.3-6.802-7.372c0.315-4.071,3.871-7.372,7.942-7.372C223.723,259.595,226.768,262.896,226.453,266.967z"/>
							
								<polyline style="fill-rule:evenodd;clip-rule:evenodd;fill:none;stroke:#FFC700;stroke-width:3;stroke-linecap:round;stroke-linejoin:round;stroke-miterlimit:10;" points="
								216.82,266.183 219.08,268.632 225.989,262.22 							"/>
						</g>
						<g>
							<path style="fill-rule:evenodd;clip-rule:evenodd;fill:#68408F;" d="M224.802,288.301c-0.315,4.071-3.871,7.372-7.942,7.372
								c-4.071,0-7.117-3.3-6.801-7.372c0.315-4.071,3.871-7.372,7.942-7.372S225.117,284.23,224.802,288.301z"/>
							
								<polyline style="fill-rule:evenodd;clip-rule:evenodd;fill:none;stroke:#FFC700;stroke-width:3;stroke-linecap:round;stroke-linejoin:round;stroke-miterlimit:10;" points="
								215.169,287.517 217.429,289.967 224.338,283.554 							"/>
						</g>
					</g>
					<g>
						<g>
							<path style="fill:#FEBBCE;" d="M314.12,276.132l-2.159-1.115c0,0-3.636-2.495-4.506-3.146
								c-0.869-0.651-6.395-2.812-7.688-3.256c-1.292-0.444-1.519,0.625-0.17,1.433c1.349,0.807,4.798,2.392,4.798,2.392
								s-2.689,0.914-2.811,1.945c-0.122,1.032,0.732,3.076,1.275,3.538c0.543,0.463,2.759,0.676,3.046,0.361
								c0.286-0.315,0.099-0.835,0.099-0.835s1.164,0.686,2.06,0.692s0.859-0.184,0.859-0.184l4.087,1.661L314.12,276.132z"/>
							<path style="fill:#390B5C;" d="M342.261,256.652c-2.986-0.773-9.289,15.825-12.47,22.416
								c-0.102,0.114-9.397-2.751-18.037-5.372l-1.708,5.823c0,0,20.234,8.277,22.599,8.557c2.365,0.28,5.071-3.955,5.071-3.955
								c0.8-1.641,4.297-11.644,4.77-12.711C344.607,266.626,345.976,258.905,342.261,256.652z"/>
						</g>
						<path style="fill:#390B5C;" d="M338.19,387.437l-8.123,3.773c-1.021,0.474-1.724,1.471-1.809,2.563l0,0h17.559l-0.202-6.336
							H338.19z"/>
						<polygon style="fill:#390B5C;" points="358.455,303.127 346.307,387.437 337.085,387.437 339.842,303.282 						"/>
						<polygon style="fill:#412367;" points="367.697,387.437 358.169,387.437 350.55,303.261 367.235,303.127 						"/>
						<path style="fill:#390B5C;" d="M368.15,265.095v3.09c0,12.88,0,41.57,0,41.57l-7.25-0.22l-6.96-0.22l-7.7-0.24l-7.11-0.21
							c0,0,1.05-14.63,0.85-17.62c-0.73-11.62-1.79-26.55-1.95-28.5c-0.36-4.6,4.65-7.56,8.92-8.9c0.83-0.25,1.62-0.45,2.35-0.59
							c0.3-0.06,0.6-0.11,0.91-0.16c1.29-0.2,2.62-0.27,3.91-0.06c1.01,0.15,2.15,0.52,3.27,0.99h0.01
							c0.13,0.05,0.26,0.11,0.39,0.16c1.32,0.56,2.62,1.22,3.69,1.79c2.24,1.18,5.34,2.85,6.35,5.28
							C368.05,261.815,368.15,263.175,368.15,265.095z"/>
						<path style="fill:#390B5C;" d="M359.543,387.437l-7.832,3.773c-0.984,0.474-1.61,1.471-1.61,2.563l0,0h17.559l-0.692-6.336
							H359.543z"/>
						<path style="fill:#FEBBCE;" d="M364.872,309.753l-0.64,3.451c0,0-0.739,0.937-1.183,1.48s-1.961,4.681-2.208,5.125
							c-0.246,0.444,0.838,0.739,1.381,0c0.542-0.74,1.567-3.033,1.567-3.033s-0.699,4.615-1.187,6.193
							c-0.487,1.578-0.646,2.318,0.001,2.465c0.646,0.148,2.052-3.767,2.544-5.986c-0.739,3.6-1.159,4.76-1.454,5.99
							c-0.296,1.229,0.198,2.117,1.134,0.686c0.936-1.43,2.021-6.331,2.021-6.331s-0.592,3.619-0.69,5.246
							c-0.098,1.627,0.734,1.09,1.177,0.104c0.444-0.986,1.165-5.744,1.165-5.744s0.271,1.43-0.074,3.205
							c-0.345,1.775,0.543,1.824,0.986-0.099c0.443-1.923,1.088-7.427-0.398-9.202c0.542-2.761,0.274-2.993,0.274-2.993
							L364.872,309.753z"/>
						<path style="fill:#412367;" d="M368.513,261.96c4.334,6.012,3.72,27.077,3.996,28.454c0.275,1.378-1.998,22.32-1.998,22.32
							l-7.233-0.551c0,0,1.516-21.218,1.516-21.769c0-0.551-3.609-15.839-4.69-19.835
							C359.021,266.584,365.481,257.755,368.513,261.96z"/>
						<path style="fill:#E9E0EC;" d="M357.413,254.075c-3.013,3.592-5.574,7.908-7.845,12.694c-0.923,1.909-1.782,3.891-2.615,5.936
							c-0.271-1.982-0.47-3.945-0.588-5.881c-0.272-4.461-0.109-8.786,0.588-12.939c0.823-0.271,1.62-0.48,2.343-0.615
							c1.592-0.326,3.221-0.498,4.823-0.235c1.013,0.163,2.154,0.543,3.275,1.023h0.009
							C357.413,254.066,357.413,254.075,357.413,254.075z"/>
						<path style="fill:#390B5C;" d="M350.211,259.866l-1.122,1.855l0.479,5.049c-0.923,1.909-1.782,3.891-2.615,5.936
							c-0.271-1.982-0.47-3.945-0.588-5.881c0.688-2.389,1.457-5.185,1.457-5.185l-0.832-2.425l0.832-0.968h2.732L350.211,259.866z"
							/>
						<path style="fill:#DBE1FF;" d="M356.606,251.696c0,0-5.709-1.32-9.67,0.156c0.272,2.252,0.272,2.252,0.272,2.252
							s5.165-1.592,8.544,0C356.295,252.861,356.606,251.696,356.606,251.696z"/>
						<polygon style="fill:#FFFFFF;" points="357.404,254.055 356.606,251.696 348.704,256.973 350.724,260.851 						"/>
						<polygon style="fill:#FFFFFF;" points="348.704,256.973 346.936,251.852 346.953,253.88 346.934,260.832 						"/>
						<polygon style="fill:#FE9FBA;" points="356.015,252.091 356.015,247.347 347.286,248.978 347.286,252.864 348.704,256.973 
													"/>
						<g>
							<path style="fill:#FEBBCE;" d="M343.671,240.682c-0.132,1.211-0.131,2.469-0.117,3.645c0.019,1.703,0.232,3.395,0.598,5.058
								c0.595,2.708,1.475,4.048,4.193,3.331c2.673-0.704,5.988-1.831,7.327-4.474c1.377-2.718,1.873-6.363,1.233-9.359
								c-0.612-2.865-3.322-4.31-6.245-4.454c-1.659-0.081-3.695,0.251-4.942,1.425c-0.957,0.901-1.538,2.147-1.822,3.43
								C343.795,239.738,343.723,240.206,343.671,240.682z"/>
							<path style="fill:#390B5C;" d="M355.763,248.29c0.557,0.128,1.111-0.824,1.417-1.355c1.171-2.037,4.566-7.739,1.647-10.387
								c-0.272-2.042-0.706-3.609-2.701-4.541c-3.022-1.411-7.091-2.056-10.208-0.675c-1.071,0.474-2.08,1.191-2.645,2.216
								c-2.546,4.619,5.611,6.08,8.458,5.703c-0.083,1.311-0.238,3.079,0.239,4.309c0.129,0.332,0.364,0.675,0.717,0.72
								c0.272,0.035,0.538-0.119,0.811-0.101c0.936,0.064,0.974,1.064,1.091,1.754c0.11,0.653,0.333,1.286,0.654,1.865
								C355.411,248.101,355.587,248.249,355.763,248.29z"/>
							<path style="fill:#FEBBCE;" d="M352.943,242.952c0.147-0.557,0.648-1.503,1.321-1.46c0.469,0.031,0.779,0.512,0.894,0.968
								c0.172,0.686,0.074,1.436-0.269,2.055c-0.132,0.238-0.304,0.461-0.537,0.6c-0.318,0.189-0.886,0.117-1.216-0.037
								c-0.206-0.097-0.256-0.363-0.273-0.591c-0.039-0.504-0.049-1.017,0.073-1.508
								C352.938,242.971,352.94,242.962,352.943,242.952z"/>
						</g>
					</g>
					<g>
						<path style="fill:#FE9FBA;" d="M127.455,256.296c-0.154-0.385-0.633-1.473-1.101-1.571c-0.099-0.021-0.201-0.007-0.302-0.014
							c-0.292-0.02-0.549-0.208-0.735-0.435c-0.661-0.806-0.548-1.975-0.4-3.007c0.072-0.498,0.124-1.446,0.515-1.818
							c0.479-0.456,0.568-0.041,1.149-0.196c0.444-0.118,0.594-0.716,1.015-0.901c0.227-0.099,0.487-0.058,0.735-0.064
							c0.558-0.013,1.076-0.272,1.614-0.417c0.538-0.145,1.186-0.147,1.571,0.256c0.214,0.224,0.31,0.539,0.515,0.772
							c0.235,0.268,0.59,0.403,0.842,0.655c0.486,0.485,0.481,1.261,0.423,1.945c-0.06,0.713-1.337,7.695-0.802,7.671
							c-1.529,0.07-3.062,0.06-4.59-0.031c-0.053-0.883-0.108-1.776-0.37-2.62C127.511,256.444,127.484,256.369,127.455,256.296z"/>
						
							<linearGradient id="SVGID_00000129183321334813464380000005094775530710510727_" gradientUnits="userSpaceOnUse" x1="97.7192" y1="144.2598" x2="112.4559" y2="151.5985" gradientTransform="matrix(0.9919 -0.1274 0.1274 0.9919 8.7233 135.4441)">
							<stop  offset="0" style="stop-color:#2D59A1"/>
							<stop  offset="1" style="stop-color:#002054"/>
						</linearGradient>
						<path style="fill:url(#SVGID_00000129183321334813464380000005094775530710510727_);" d="M136.691,279.796
							c0.087-5.869-3.078-23.963-3.078-23.963s-4.388,0.358-6.581,1.611c0.454,6.469,0.911,18.089,1.71,21.377
							C129.54,282.108,135.038,285.207,136.691,279.796z"/>
						<g>
							
								<linearGradient id="SVGID_00000029021728591664887500000017088262358765655426_" gradientUnits="userSpaceOnUse" x1="252.2859" y1="573.71" x2="282.5889" y2="573.71" gradientTransform="matrix(0.9446 0.3281 -0.3281 0.9446 59.8485 -359.6618)">
								<stop  offset="0" style="stop-color:#2D59A1"/>
								<stop  offset="1" style="stop-color:#002054"/>
							</linearGradient>
							<path style="fill:url(#SVGID_00000029021728591664887500000017088262358765655426_);" d="M132.794,272.621
								c-1.912-2.585-4.05-5.046-6.083-7.449c-2.251-2.662-3.414-5.979-6.503-7.946c-1.228-0.782-2.707-1.333-4.129-1.257
								c-0.481,0.026-0.955,0.123-1.411,0.307c-1.693,0.684-2.763,2.446-3.085,4.243c-0.737,4.111,1.701,7.728,4.518,10.414
								c3.664,3.495,7.328,6.99,10.992,10.485c1.419,1.353,3.095,2.804,5.049,2.641c1.987-0.165,4.607-2.125,4.549-4.264
								c-0.025-0.945-0.462-1.825-0.926-2.649C134.887,275.591,133.877,274.086,132.794,272.621z"/>
						</g>
						<path style="fill:#FEBBCE;" d="M121.653,257.416c-1.489-0.876-0.859-4.368-1.039-6.049c-0.363-3.385-2.098-5.48-3.383-8.389
							c-0.858-1.943-1.229-4.658-0.585-6.698c1.059-3.35,5.279-6.027,8.597-6.531c0.54-0.082,1.12-0.114,1.602,0.142
							c0.575,0.306,0.875,0.944,1.136,1.54c1.643,3.744,3.305,7.556,3.793,11.616c0.111,0.921,0.157,1.874-0.121,2.76
							c-0.674,2.145-2.622,1.271-3.605,2.6c-0.917,1.239,0.689,5.459,0.946,6.89c-1.346,0.379-2.77,0.66-4.034,1.262
							c-0.811,0.386-1.268,0.939-2.221,1.044C122.289,257.654,121.934,257.581,121.653,257.416z"/>
						<path style="fill:#E9E0EC;" d="M118.07,255.594c-0.274-0.725-0.102-1.563,0.302-2.224c0.404-0.661,1.016-1.168,1.656-1.605
							c1.583-1.081,3.492-1.818,5.397-1.601c0.907,0.103,1.846,0.466,2.351,1.226c0.441,0.662,0.498,1.539,1.006,2.151
							L118.07,255.594z"/>
						<path style="fill:#FEBBCE;" d="M144.558,255.27c-0.154-0.385-0.633-1.473-1.101-1.571c-0.099-0.021-0.202-0.007-0.302-0.014
							c-0.292-0.02-0.549-0.208-0.735-0.435c-0.661-0.806-0.548-1.975-0.4-3.007c0.072-0.498,0.124-1.446,0.515-1.818
							c0.479-0.456,0.568-0.041,1.149-0.196c0.444-0.118,0.594-0.716,1.015-0.901c0.227-0.099,0.487-0.058,0.735-0.064
							c0.557-0.014,1.076-0.272,1.614-0.417c0.538-0.145,1.186-0.147,1.571,0.256c0.214,0.224,0.31,0.539,0.515,0.772
							c0.235,0.268,0.59,0.403,0.842,0.654c0.486,0.485,0.481,1.262,0.423,1.945c-0.06,0.713-1.337,7.695-0.802,7.671
							c-1.529,0.07-3.062,0.06-4.59-0.031c-0.053-0.883-0.108-1.775-0.37-2.62C144.614,255.418,144.587,255.343,144.558,255.27z"/>
						<path style="fill:#390B5C;" d="M144.135,256.418c0.454,6.469,0.911,18.089,1.71,21.377c0.437,1.799,2.282,3.532,4.134,3.854
							c-0.997-8.843-1.526-17.686-1.598-26.529C146.983,255.363,145.268,255.77,144.135,256.418z"/>
						<path style="fill:#412367;" d="M153.794,278.77c0.087-5.869-3.078-23.963-3.078-23.963s-1.029,0.085-2.336,0.313
							c0.072,8.843,0.601,17.686,1.598,26.529C151.51,281.915,153.046,281.22,153.794,278.77z"/>
						<polygon style="fill:#390B5C;" points="113.295,387.207 122.823,387.207 130.441,303.03 113.757,302.897 						"/>
						<path style="fill:#390B5C;" d="M121.448,387.207l7.832,3.773c0.984,0.474,1.61,1.471,1.61,2.563l0,0h-17.559l0.692-6.336
							H121.448z"/>
						<path style="fill:#390B5C;" d="M142.801,387.207l8.123,3.773c1.021,0.474,1.724,1.471,1.809,2.563l0,0h-17.559l0.202-6.336
							H142.801z"/>
						<polygon style="fill:#412367;" points="122.537,302.897 134.684,387.207 143.906,387.207 141.149,303.051 						"/>
						<path style="fill:#390B5C;" d="M110.578,266.183c0.069,1.334,0.226,2.652,0.384,3.888c0.476,3.705,3.768,14.228,3.988,15.941
							c-0.621,8.656-3.502,12.611-3.083,23.524c8.18,4.845,18.169,4.36,30.038-1.666c0,0-1.13-15.584-1.313-18.571
							c-0.762-11.615-0.457-27.324-0.553-29.282c-0.227-4.605-5.575-6.901-9.982-7.685c-5.783-1.029-15.04,0.477-18.154,6.182
							C110.656,260.802,110.442,263.526,110.578,266.183z"/>
						<g>
							<path style="fill:#412367;" d="M149.897,271.595c-1.912-2.585-4.05-5.046-6.083-7.449c-2.251-2.662-3.414-5.979-6.503-7.945
								c-1.228-0.782-2.707-1.333-4.129-1.257c-0.481,0.026-0.955,0.123-1.411,0.307c-1.693,0.684-2.763,2.446-3.085,4.243
								c-0.737,4.111,1.701,7.728,4.518,10.414c3.664,3.495,7.328,6.99,10.992,10.485c1.419,1.353,3.095,2.804,5.049,2.642
								c1.987-0.165,4.607-2.125,4.549-4.264c-0.025-0.945-0.462-1.825-0.926-2.649C151.99,274.565,150.98,273.06,149.897,271.595z"
								/>
						</g>
						<path style="fill:#390B5C;" d="M128.421,237.982c-0.119,1.116-0.394,2.225-0.809,3.377c-0.512-0.265-0.592-0.698-0.666-1.287
							c-0.067-0.532-0.428-1.197-0.942-1.045c-0.182,0.054-0.317,0.204-0.424,0.361c-0.783,1.154-0.203,2.977,1.103,3.466
							c0.342,1.588,0.037,3.338-0.961,4.619c-0.998,1.281-2.715,2.013-4.306,1.689c-1.962-0.401-3.309-2.178-4.328-3.902
							c-1.638-2.77-3.94-7.704-2.459-10.986c0.36-0.797,1.382-1.341,2.145-0.915c-2.356-1.313,2.511-4.008,3.268-4.332
							c2.452-1.049,5.237-1.275,7.47-2.829c0.151-0.105,0.315-0.221,0.499-0.209c0.206,0.014,0.364,0.185,0.487,0.351
							c1.064,1.447,1.113,3.564,0.116,5.059c-0.357,0.536-0.853,1.05-0.862,1.695C127.731,234.756,128.613,236.169,128.421,237.982z
							"/>
					</g>
				</g>
			</g>
			<path style="fill-rule:evenodd;clip-rule:evenodd;fill:#FFA100;" d="M152.884,186.431c0.012,0,0.024-0.001,0.035-0.001
				c-1.342-3.894-5.051-9.236-8.875-10.853c-2.588-1.094-5.429-1.536-7.951-2.775c-8.439-4.147-11.47-13.708-20.763-17.024
				c-5.448-1.944-11.779-1.81-16.769,1.114c-6.36,3.728-9.919,11.396-16.708,14.269c-2.428,1.028-5.1,1.353-7.56,2.303
				c-5.705,2.204-8.638,8.83-8.804,14.574c0-0.016,2.16-0.041,2.274-0.043C94.72,187.48,125.96,187.054,152.884,186.431z"/>
			<path style="fill-rule:evenodd;clip-rule:evenodd;fill:#FFA100;" d="M406.78,128.026c0.013,0,0.026-0.001,0.039-0.001
				c-1.496-4.341-5.63-10.294-9.892-12.097c-2.885-1.22-6.051-1.712-8.862-3.093c-9.406-4.623-12.785-15.279-23.143-18.975
				c-6.072-2.167-13.129-2.018-18.691,1.242c-7.089,4.155-11.055,12.703-18.623,15.905c-2.706,1.145-5.685,1.508-8.426,2.566
				c-6.359,2.456-9.628,9.842-9.813,16.245c0-0.018,2.407-0.046,2.535-0.048C341.949,129.195,376.769,128.72,406.78,128.026z"/>
		</g>
		<path style="fill-rule:evenodd;clip-rule:evenodd;fill:#FF8300;" d="M449.882,407.588h-6.534c-3.878,0-7.022-3.144-7.022-7.022
			l0,0c0-3.878,3.144-7.022,7.022-7.022h6.534c3.878,0,7.022,3.144,7.022,7.022l0,0C456.904,404.444,453.76,407.588,449.882,407.588
			z"/>
	</g>
	<path style="fill:#412367;" d="M357.404,254.055l-0.224,7.868h-2.57l0.63,3.553l-8.287,7.229
		C349.357,264.543,355.324,255.304,357.404,254.055z"/>
	<path style="fill:#412367;" d="M346.953,272.705c-1.218-4.15,0-18.824,0-18.824c-3.718,4.549-4.166,6.952-4.166,6.952l2.083,1.09
		l-2.083,0.884C342.787,262.806,343.797,270.23,346.953,272.705z"/>
</g>
</svg>
