<?xml version="1.0" encoding="utf-8"?>
<!-- Generator: Adobe Illustrator 27.5.0, SVG Export Plug-In . SVG Version: 6.00 Build 0)  -->
<svg version="1.1" xmlns="http://www.w3.org/2000/svg" xmlns:xlink="http://www.w3.org/1999/xlink" x="0px" y="0px"
	 viewBox="0 0 3710 3710" style="enable-background:new 0 0 3710 3710;" xml:space="preserve">
<g id="Background">
	<g>
		<g>
			<rect style="fill:#FFFFFF;" width="3710" height="3710"/>
		</g>
	</g>
</g>
<g id="Illustration">
	<g>
		<linearGradient id="SVGID_1_" gradientUnits="userSpaceOnUse" x1="3590.5356" y1="4072.9939" x2="1109.7192" y2="991.9756">
			<stop  offset="0" style="stop-color:#DAE3FE"/>
			<stop  offset="1" style="stop-color:#E9EFFD"/>
		</linearGradient>
		<path style="fill:url(#SVGID_1_);" d="M2902.826,2861.552c-56.697,60.186-110.343,98.999-152.729,129.664
			c-498.226,360.461-1087.759,255.389-1213.052,229.729c-185.018-37.891-542.653-111.134-801.217-417.734
			c-391.185-463.859-330.272-1194.657-26.842-1677.067c55.502-88.241,348.68-577.999,944.563-656.54
			c360.622-47.533,780.992,48.335,1085.412,305.504C3377.967,1314.929,3332.476,2405.461,2902.826,2861.552z"/>
		<g>
			<path style="fill:#BDD0FB;" d="M2757.368,477.258c71.636,205.87,439.594,1420.943-638.59,1971.036
				c0,0-448.161-737.568,607.151-1976.985C2735.161,460.467,2752.688,463.808,2757.368,477.258z"/>
			<path style="opacity:0.43;fill:#FFFFFF;" d="M2690.919,686.01c-0.442,39.827-2.926,79.447-6.093,119.049
				c-3.13,39.597-7.453,79.083-12.261,118.502c-9.842,78.813-22.482,157.268-37.695,235.219
				c-15.21,77.954-32.99,155.401-53.021,232.257c-20.027,76.854-42.154,153.182-66.969,228.639l-9.154,28.347l-9.704,28.163
				c-6.537,18.749-12.781,37.605-19.563,56.27l-20.555,55.92l-5.137,13.979l-5.401,13.882l-10.857,27.739l-10.86,27.739
				l-5.453,13.861l-5.727,13.75l-22.901,55.003l-5.76,13.737l-6.027,13.622l-12.053,27.244l-12.053,27.245l-6.027,13.622
				l-6.323,13.487c-66.662,144.226-141.302,284.783-223.74,420.653c-1.486,2.448-4.676,3.229-7.124,1.743
				c-2.448-1.486-3.229-4.676-1.743-7.125l0.016-0.026c82.656-135.27,157.56-275.262,224.528-418.967l6.353-13.439l6.056-13.572
				l12.116-27.15l12.113-27.148l6.056-13.574l5.789-13.691l23.029-54.818l5.757-13.704l5.486-13.816l10.923-27.65l10.923-27.65
				l5.434-13.836l5.173-13.938l20.686-55.747c6.827-18.607,13.118-37.407,19.704-56.102l9.777-28.08l9.223-28.265
				c25.006-75.243,47.333-151.366,67.568-228.028c20.238-76.663,38.232-153.927,53.66-231.708
				c15.434-77.78,28.301-156.072,38.371-234.723c4.926-39.336,9.365-78.745,12.614-118.255c3.285-39.485,5.885-79.116,6.448-118.65
				v-0.063c0.02-1.213,1.015-2.183,2.227-2.165C2689.967,683.805,2690.935,684.795,2690.919,686.01z"/>
		</g>
		<g>
			<path style="fill:#91B3FA;" d="M3243.649,882.434c-0.822-18.524-25.985-23.646-33.909-6.882
				c-76.603,162.071-290.781,580.753-544.731,779.135c-413.489,323.013-750.772,904.198-581.938,1263.482
				C2083.072,2918.169,3333.085,2900.723,3243.649,882.434z"/>
			<path style="opacity:0.43;fill:#FFFFFF;" d="M3167.466,1119.324c-1.348,5.158-2.976,9.688-4.488,14.455l-4.788,14.078
				l-9.882,28.033c-6.696,18.648-13.585,37.223-20.528,55.779c-13.991,37.069-28.443,73.962-43.231,110.722
				c-29.672,73.483-61.216,146.201-93.906,218.398c-32.631,72.226-67.1,143.623-103.007,214.287l-13.424,26.522l-13.77,26.344
				c-9.256,17.523-18.192,35.216-27.741,52.584l-28.291,52.294l-29.075,51.866c-78.248,137.888-163.672,271.861-258.289,399.2
				c-2.956,3.98-5.839,8.014-8.85,11.949l-9.117,11.752l-18.232,23.499l-18.231,23.497c-6.175,7.757-12.554,15.35-18.821,23.032
				l-18.881,22.981c-6.356,7.607-12.429,15.45-19.065,22.823l-39.142,44.796c-53.255,58.779-109.31,115.012-168.684,167.567
				c-0.695,0.618-1.763,0.553-2.379-0.145c-0.613-0.69-0.553-1.743,0.125-2.363l0.013-0.013
				c58.467-53.349,113.399-110.376,165.701-169.679l38.635-45.004c6.547-7.406,12.538-15.284,18.812-22.924l18.624-23.078
				c6.182-7.714,12.475-15.337,18.561-23.123l17.975-23.591l17.974-23.588l8.986-11.793c2.969-3.952,5.809-8,8.722-11.994
				l34.809-48.025c11.5-16.082,22.558-32.479,33.86-48.703c5.595-8.148,11.302-16.225,16.808-24.434l16.33-24.761l16.33-24.76
				c5.476-8.231,10.893-16.502,16.109-24.904l31.662-50.17c10.432-16.8,20.531-33.806,30.815-50.696
				c5.088-8.48,10.313-16.876,15.286-25.421l14.946-25.625c9.925-17.108,20.159-34.035,29.741-51.339
				c78.376-137.471,149.763-278.868,216.472-422.394c33.244-71.822,65.104-144.292,95.553-217.353
				c15.259-36.516,30.186-73.173,44.658-110.012c7.18-18.439,14.31-36.9,21.243-55.431l10.241-27.853l4.962-13.974
				c1.555-4.643,3.285-9.435,4.537-13.833l0.102-0.358c0.25-0.89,1.18-1.405,2.069-1.152
				C3167.182,1117.538,3167.696,1118.446,3167.466,1119.324z"/>
		</g>
		<g>
			
				<linearGradient id="SVGID_00000075885027394918493030000008044932297323027899_" gradientUnits="userSpaceOnUse" x1="1337.7679" y1="3075.3196" x2="1217.879" y2="-473.4496">
				<stop  offset="0" style="stop-color:#09005D"/>
				<stop  offset="1" style="stop-color:#1A0F91"/>
			</linearGradient>
			<path style="fill:url(#SVGID_00000075885027394918493030000008044932297323027899_);" d="M500.123,1205.561
				c0-84.67,68.154-153.308,152.228-153.308H1946.9c71.419,0,130.31,56.366,133.942,128.2l95.556,1890.183
				c2.842,56.212-41.096,103.627-96.975,104.651l-1483.717,27.157c-52.505,0.961-95.583-41.641-95.583-94.528V1205.561z"/>
			<path style="fill:#BDD0FB;" d="M812.554,3170.311c-0.016,0-0.031,0-0.047,0l-166.019-2.161
				c-55.514-0.725-100.676-46.801-100.676-102.71v-252.438c0-1.973,1.587-3.569,3.544-3.569c1.958,0,3.544,1.596,3.544,3.569
				v252.438c0,52.023,42.023,94.895,93.679,95.571l166.018,2.162c1.957,0.024,3.524,1.645,3.499,3.615
				C816.071,3168.742,814.49,3170.311,812.554,3170.311z"/>
			<path style="fill:#BDD0FB;" d="M549.357,2738.376c-1.957,0-3.544-1.597-3.544-3.57v-40.882c0-1.973,1.587-3.57,3.544-3.57
				c1.958,0,3.544,1.597,3.544,3.57v40.882C552.901,2736.78,551.314,2738.376,549.357,2738.376z"/>
			<g>
				<path style="fill:#7D97F4;" d="M606.179,1081.347c-0.158-27.089,23.497-48.056,50.152-44.415
					c176.782,24.144,784.691,98.815,1287.303,59.959c22.921-1.772,42.813,15.718,44.033,38.837l100.195,1898.609
					c1.374,26.033-18.365,48.295-44.206,49.835c-211.389,12.598-1081.955,61.301-1392.473,28.547
					c-18.899-1.994-33.244-18.018-33.356-37.155L606.179,1081.347z"/>
				<path style="opacity:0.6;fill:#FFFFFF;" d="M627.003,1128.925c-0.152-26.069,22.612-46.246,48.264-42.743
					c170.125,23.234,755.143,95.094,1238.829,57.701c22.058-1.705,41.2,15.126,42.374,37.375l96.423,1827.115
					c1.322,25.053-17.674,46.477-42.541,47.959c-203.429,12.124-1041.213,58.993-1340.038,27.471
					c-18.187-1.918-31.993-17.339-32.1-35.756L627.003,1128.925z"/>
				<path style="opacity:0.78;fill:#FFFFFF;" d="M784.491,1269.793l18.068,391.716c0.601,13.028,11.051,23.387,23.997,23.755
					c72.035,2.046,296.497,7.56,423.237,0.906c14.337-0.753,25.678-12.433,26.154-26.883c2.417-73.461,7.705-287.275-8.917-376.657
					c-2.685-14.438-15.007-25.017-29.584-25.531l-425.773-14.996C796.32,1241.562,783.778,1254.338,784.491,1269.793z"/>
				<ellipse style="fill:#7D97F4;" cx="1029.489" cy="1409.84" rx="83.613" ry="84.207"/>
				<path style="fill:#7D97F4;" d="M902.487,1657.068h266.38c16.331,0,26.117-18.162,17.322-32.02
					c-22.626-35.656-69.966-88.039-151.953-85.675c-79.018,2.278-125.853,49.594-149.398,83.528
					C874.844,1637.307,885.037,1657.068,902.487,1657.068z"/>
				<g style="opacity:0.6;">
					<path style="fill:#FFFFFF;" d="M1849.599,1303.891c8.405,0,15.11-5.913,14.901-13.141s-7.257-13.264-15.66-13.415
						l-466.666-8.375c-8.404-0.151-13.009,6.217-10.235,14.151l2.222,6.355c2.775,7.934,11.922,14.425,20.326,14.425H1849.599z"/>
				</g>
				<g style="opacity:0.6;">
					<path style="fill:#FFFFFF;" d="M1382.173,1341.985c-8.404-0.151-13.009,6.217-10.235,14.151l2.222,6.355
						c2.775,7.934,11.922,14.425,20.326,14.425h455.112c8.405,0,15.11-5.913,14.901-13.141c-0.21-7.227-7.257-13.264-15.66-13.415
						L1382.173,1341.985z"/>
				</g>
				<g style="opacity:0.6;">
					<path style="fill:#FFFFFF;" d="M1382.173,1416.071c-8.404-0.151-13.009,6.217-10.235,14.151l2.222,6.355
						c2.775,7.934,11.922,14.425,20.326,14.425h455.112c8.405,0,15.11-5.913,14.901-13.141s-7.257-13.264-15.66-13.415
						L1382.173,1416.071z"/>
				</g>
				<g style="opacity:0.6;">
					<path style="fill:#FFFFFF;" d="M1894.949,1815.673c8.405,0,14.937-6.868,14.515-15.263l-0.19-3.79
						c-0.422-8.394-7.643-15.334-16.047-15.421l-1093.581-11.334c-8.405-0.087-11.719,5.724-7.365,12.914l12.003,19.822
						c4.354,7.19,14.792,13.072,23.197,13.072H1894.949z"/>
				</g>
				<g style="opacity:0.6;">
					<path style="fill:#FFFFFF;" d="M799.646,1887.239c-8.405-0.087-11.719,5.724-7.365,12.914l12.003,19.822
						c4.354,7.19,14.792,13.072,23.197,13.072h1067.468c8.405,0,14.937-6.868,14.515-15.263l-0.19-3.79
						c-0.422-8.394-7.643-15.334-16.047-15.421L799.646,1887.239z"/>
				</g>
				<g style="opacity:0.6;">
					<path style="fill:#FFFFFF;" d="M833.512,2043.973c-8.402-0.232-13.754,6.284-11.894,14.48l3.779,16.654
						c1.86,8.197,10.259,14.903,18.664,14.903h385.343c8.405,0,15.152-6.875,14.994-15.279l-0.078-4.125
						c-0.158-8.404-7.162-15.469-15.563-15.701L833.512,2043.973z"/>
				</g>
				<g style="opacity:0.6;">
					<path style="fill:#FFFFFF;" d="M1447.604,2047.347c-8.402-0.232-13.754,6.284-11.894,14.48l3.779,16.654
						c1.86,8.197,10.259,14.903,18.664,14.903h385.343c8.405,0,15.152-6.875,14.994-15.279l-0.078-4.124
						c-0.158-8.404-7.162-15.469-15.563-15.702L1447.604,2047.347z"/>
				</g>
				<g>
					<g style="opacity:0.6;">
						<path style="fill:#FFFFFF;" d="M805.572,2258.751c3.304,11.026,14.687,18.676,27.645,18.579l1056.062-7.924
							c11.947-0.09,21.504-8.759,21.243-19.27c-0.254-10.219-9.713-18.4-21.328-18.446l-1056.09-4.238
							C814.463,2227.376,800.818,2242.888,805.572,2258.751z"/>
					</g>
					<g style="opacity:0.6;">
						<path style="fill:#FFFFFF;" d="M805.572,2474.021c3.304,11.026,14.687,18.676,27.645,18.579l1056.062-7.924
							c11.947-0.09,21.504-8.759,21.243-19.27c-0.254-10.219-9.713-18.399-21.328-18.446l-1056.09-4.239
							C814.463,2442.647,800.818,2458.159,805.572,2474.021z"/>
					</g>
					<g style="opacity:0.6;">
						<path style="fill:#FFFFFF;" d="M805.572,2689.292c3.304,11.026,14.687,18.676,27.645,18.579l1056.062-7.924
							c11.947-0.09,21.504-8.759,21.243-19.27c-0.254-10.219-9.713-18.399-21.328-18.446l-1056.09-4.239
							C814.463,2657.918,800.818,2673.43,805.572,2689.292z"/>
					</g>
					<g style="opacity:0.6;">
						<path style="fill:#FFFFFF;" d="M805.572,2904.563L805.572,2904.563c3.304,11.027,14.687,18.676,27.645,18.579l1056.062-7.923
							c11.947-0.09,21.504-8.759,21.243-19.271c-0.254-10.219-9.713-18.399-21.328-18.446l-1056.09-4.239
							C814.463,2873.188,800.818,2888.7,805.572,2904.563z"/>
					</g>
				</g>
			</g>
			
				<linearGradient id="SVGID_00000022526560640204581010000003585641351685756091_" gradientUnits="userSpaceOnUse" x1="1525.2662" y1="600.7333" x2="927.2855" y2="1387.363">
				<stop  offset="0" style="stop-color:#09005D"/>
				<stop  offset="1" style="stop-color:#1A0F91"/>
			</linearGradient>
			<path style="fill:url(#SVGID_00000022526560640204581010000003585641351685756091_);" d="M1379.914,794.536
				c-46.761-32.762-87.42-32.113-116.043-23.607c-26.11,7.759-43.032,33.146-40.549,60.448l12.344,135.686l146.882,13.128
				C1382.548,980.19,1471.62,858.787,1379.914,794.536z M1315.32,904.001c-20.227,0-36.625-16.513-36.625-36.885
				c0-20.371,16.397-36.885,36.625-36.885c20.228,0,36.625,16.514,36.625,36.885C1351.945,887.488,1335.548,904.001,1315.32,904.001
				z"/>
			<g>
				<path style="fill:#BDD0FB;" d="M1250.338,909.985c-1.812,0-3.357-1.391-3.525-3.245l-1.966-21.609
					c-0.18-1.963,1.257-3.699,3.205-3.88c1.988-0.188,3.676,1.266,3.852,3.232l1.966,21.609c0.18,1.963-1.256,3.698-3.205,3.88
					C1250.555,909.982,1250.446,909.985,1250.338,909.985z M1246.486,867.639c-1.812,0-3.357-1.391-3.525-3.245l-1.494-16.404
					c-2.367-26.008,13.883-50.224,38.637-57.583c17.531-5.211,35.594-5.957,53.682-2.22c1.917,0.394,3.153,2.283,2.76,4.214
					c-0.393,1.928-2.251,3.162-4.183,2.778c-16.945-3.493-33.849-2.799-50.254,2.074c-21.517,6.396-35.642,27.461-33.584,50.088
					l1.493,16.404c0.18,1.963-1.256,3.699-3.205,3.88C1246.703,867.635,1246.593,867.639,1246.486,867.639z"/>
			</g>
			
				<linearGradient id="SVGID_00000123416877585731923980000003322942948413823118_" gradientUnits="userSpaceOnUse" x1="1590.0081" y1="652.0367" x2="993.8275" y2="1436.2983">
				<stop  offset="0" style="stop-color:#09005D"/>
				<stop  offset="1" style="stop-color:#1A0F91"/>
			</linearGradient>
			<path style="fill:url(#SVGID_00000123416877585731923980000003322942948413823118_);" d="M1035.198,1054.749v-68.218
				c0-23.549,19.38-42.41,42.75-41.604l467.02,16.115c20.726,0.715,37.511,17.191,38.752,38.039l3.903,65.548L1035.198,1054.749z"/>
			<path style="fill:#BDD0FB;" d="M1209.338,970.632h-20.084c-1.958,0-3.544-1.596-3.544-3.569c0-1.973,1.587-3.57,3.544-3.57
				h20.084c1.957,0,3.544,1.596,3.544,3.57C1212.883,969.035,1211.296,970.632,1209.338,970.632z"/>
			<path style="fill:#BDD0FB;" d="M1060.476,1033.328c-1.957,0-3.544-1.596-3.544-3.57v-27.597
				c0-21.323,17.225-38.669,38.397-38.669h73.839c1.957,0,3.544,1.596,3.544,3.57c0,1.973-1.587,3.569-3.544,3.569h-73.839
				c-17.263,0-31.309,14.146-31.309,31.53v27.597C1064.021,1031.732,1062.433,1033.328,1060.476,1033.328z"/>
			<path style="fill:#7D97F4;" d="M844.907,1071.976c1.127-23.623,20.473-42.193,43.957-42.193l816.673-0.022
				c29.365-0.001,54.47,21.281,59.479,50.422l0.691,4.021c5.486,31.918-18.914,61.112-51.079,61.112H876.769
				c-19.249,0-34.589-16.209-33.665-35.572L844.907,1071.976z"/>
		</g>
		<g>
			<path style="fill:#7D97F4;" d="M2216.92,2721.355c25.948-0.433,50.503-11.573,67.361-30.564
				c16.861-18.991,24.449-44.051,20.818-68.755l-10.306-66.009c-1.577-10.083-11.347-17.001-21.841-15.491
				c-10.487,1.528-17.712,10.94-16.14,21.021l10.282,65.851c2.068,14.065-2.3,28.495-12.006,39.427
				c-9.709,10.933-23.844,17.347-38.784,17.596c-37.508,0.626-68.513-28.206-69.115-64.27l-35.779-2143.988
				c-0.17-10.195-8.905-18.318-19.508-18.141c-10.604,0.177-19.063,8.587-18.892,18.781l35.78,2143.989
				C2109.73,2677.227,2158.236,2722.335,2216.92,2721.355z"/>
			
				<linearGradient id="SVGID_00000155122373829711885350000003291365819423969414_" gradientUnits="userSpaceOnUse" x1="3456.4155" y1="332.7047" x2="3117.332" y2="580.691">
				<stop  offset="0" style="stop-color:#FF928E"/>
				<stop  offset="1" style="stop-color:#FE7062"/>
			</linearGradient>
			<path style="fill:url(#SVGID_00000155122373829711885350000003291365819423969414_);" d="M3204.901,1265.823
				c-204.005-16.892-386.043,24.253-550.285,112.413l-565.425-794.798C2089.192,583.438,2858.68,515.381,3204.901,1265.823z"/>
			
				<linearGradient id="SVGID_00000075866779437049861900000001342420854286693511_" gradientUnits="userSpaceOnUse" x1="1030.027" y1="352.3517" x2="1353.9271" y2="721.8009">
				<stop  offset="0" style="stop-color:#FF928E"/>
				<stop  offset="1" style="stop-color:#FE7062"/>
			</linearGradient>
			<path style="fill:url(#SVGID_00000075866779437049861900000001342420854286693511_);" d="M1001.673,1302.591
				c203.328-23.689,386.637,11.358,553.729,93.99l538.589-813.222C2093.992,583.358,1322.661,541.014,1001.673,1302.591z"/>
			
				<linearGradient id="SVGID_00000137133804125628365690000007188703997548574115_" gradientUnits="userSpaceOnUse" x1="2536.3716" y1="465.5768" x2="3359.6599" y2="-1073.027">
				<stop  offset="0" style="stop-color:#FF928E"/>
				<stop  offset="1" style="stop-color:#FE7062"/>
			</linearGradient>
			<path style="fill:url(#SVGID_00000137133804125628365690000007188703997548574115_);" d="M2091.552,580.998
				c0,0,442.006,16.631,560.665,797.278l-68.783-17.477c-314.888-80.009-645.427-74.493-957.47,15.979l-68.161,19.762
				C1650.347,612.368,2091.552,580.998,2091.552,580.998z"/>
			<path style="fill:#91B3FA;" d="M2050.511,591.286l82.402-1.375c1.104-0.018,1.985-0.929,1.967-2.033l-0.254-15.201
				c-0.018-1.104-0.928-1.985-2.033-1.966l-82.402,1.375c-1.104,0.018-1.985,0.929-1.966,2.033l0.254,15.201
				C2048.497,590.424,2049.407,591.304,2050.511,591.286z"/>
			
				<linearGradient id="SVGID_00000083782507778948930590000017338949280032865957_" gradientUnits="userSpaceOnUse" x1="-3169.8921" y1="1024.3907" x2="-3146.8577" y2="1024.3907" gradientTransform="matrix(-0.9999 0.0167 0.0167 0.9999 25.055 301.5597)">
				<stop  offset="0" style="stop-color:#4F52FF"/>
				<stop  offset="1" style="stop-color:#4042E2"/>
			</linearGradient>
			<path style="fill:url(#SVGID_00000083782507778948930590000017338949280032865957_);" d="M3199.928,1293.132l10.977-3.084
				c0.798-0.224,1.262-1.052,1.038-1.85l-9.578-34.086c-0.224-0.797-1.052-1.262-1.85-1.038l-10.977,3.085
				c-0.798,0.224-1.262,1.052-1.038,1.85l9.578,34.085C3198.302,1292.892,3199.13,1293.356,3199.928,1293.132z"/>
			
				<linearGradient id="SVGID_00000121271196703332880400000000946615526571026611_" gradientUnits="userSpaceOnUse" x1="-2622.6292" y1="1125.1949" x2="-2599.5947" y2="1125.1949" gradientTransform="matrix(-0.9999 0.0167 0.0167 0.9999 25.055 301.5597)">
				<stop  offset="0" style="stop-color:#4F52FF"/>
				<stop  offset="1" style="stop-color:#4042E2"/>
			</linearGradient>
			<path style="fill:url(#SVGID_00000121271196703332880400000000946615526571026611_);" d="M2654.403,1403.066l10.977-3.084
				c0.798-0.224,1.262-1.052,1.038-1.85l-9.578-34.086c-0.224-0.797-1.052-1.262-1.85-1.038l-10.978,3.084
				c-0.797,0.224-1.262,1.052-1.038,1.85l9.578,34.086C2652.777,1402.825,2653.605,1403.29,2654.403,1403.066z"/>
			
				<linearGradient id="SVGID_00000041988067538243402070000006397123917809195392_" gradientUnits="userSpaceOnUse" x1="-976.0459" y1="1024.3617" x2="-953.0107" y2="1024.3617" gradientTransform="matrix(-0.9999 0.0167 0.0167 0.9999 25.055 301.5597)">
				<stop  offset="0" style="stop-color:#4F52FF"/>
				<stop  offset="1" style="stop-color:#4042E2"/>
			</linearGradient>
			<path style="fill:url(#SVGID_00000041988067538243402070000006397123917809195392_);" d="M1007.555,1329.72l-11.074-2.717
				c-0.805-0.197-1.297-1.01-1.099-1.814l8.435-34.386c0.197-0.805,1.01-1.297,1.814-1.099l11.074,2.717
				c0.805,0.197,1.297,1.01,1.099,1.814l-8.436,34.387C1009.172,1329.425,1008.36,1329.917,1007.555,1329.72z"/>
			
				<linearGradient id="SVGID_00000176002333654655505090000003067548380046948771_" gradientUnits="userSpaceOnUse" x1="-1523.306" y1="1125.1802" x2="-1500.2706" y2="1125.1802" gradientTransform="matrix(-0.9999 0.0167 0.0167 0.9999 25.055 301.5597)">
				<stop  offset="0" style="stop-color:#4F52FF"/>
				<stop  offset="1" style="stop-color:#4042E2"/>
			</linearGradient>
			<path style="fill:url(#SVGID_00000176002333654655505090000003067548380046948771_);" d="M1556.445,1421.389l-11.074-2.716
				c-0.805-0.197-1.297-1.01-1.099-1.814l8.435-34.386c0.197-0.805,1.01-1.297,1.814-1.099l11.074,2.716
				c0.805,0.198,1.297,1.01,1.099,1.814l-8.436,34.386C1558.061,1421.094,1557.249,1421.586,1556.445,1421.389z"/>
		</g>
		<g>
			
				<linearGradient id="SVGID_00000011716951840671792850000009862087647308932031_" gradientUnits="userSpaceOnUse" x1="2223.9717" y1="1540.7606" x2="2193.6057" y2="1849.4785">
				<stop  offset="0" style="stop-color:#4F52FF"/>
				<stop  offset="1" style="stop-color:#4042E2"/>
			</linearGradient>
			<path style="fill:url(#SVGID_00000011716951840671792850000009862087647308932031_);" d="M1373.536,2613.328l15.442,480.248
				c2.693,83.742,71.417,150.384,155.594,150.88l1150.036,6.778c56.26,0.332,104.189-40.547,112.404-95.945
				c17.982-121.279,40.895-338.281,15.094-541.961H1373.536z"/>
			<path style="fill:#FFFFFF;" d="M2670.809,3223.761c-1.837,0-3.358-1.454-3.426-3.304c-0.07-1.89,1.404-3.485,3.301-3.559
				c6.652-0.248,13.291-1.133,19.729-2.634c1.833-0.429,3.69,0.724,4.119,2.568c0.432,1.843-0.717,3.693-2.563,4.122
				c-6.864,1.595-13.938,2.54-21.03,2.808C2670.896,3223.761,2670.852,3223.761,2670.809,3223.761z M2622.77,3223.581
				c-0.006,0-0.013,0-0.013,0l-20.597-0.121c-1.897-0.014-3.422-1.555-3.412-3.452c0.01-1.89,1.545-3.412,3.432-3.412h0.021
				l20.591,0.121c1.896,0.013,3.422,1.554,3.411,3.452C2626.192,3222.059,2624.656,3223.581,2622.77,3223.581z M2554.134,3223.178
				h-0.02l-20.587-0.121c-1.897-0.014-3.422-1.555-3.412-3.452c0.01-1.89,1.545-3.412,3.432-3.412h0.021l20.587,0.121
				c1.896,0.013,3.422,1.555,3.411,3.452C2557.556,3221.657,2556.021,3223.178,2554.134,3223.178z M2485.501,3222.769h-0.02
				l-20.591-0.121c-1.897-0.013-3.421-1.554-3.412-3.452c0.01-1.89,1.545-3.412,3.432-3.412c0,0,0.014,0,0.021,0l20.591,0.121
				c1.897,0.014,3.422,1.555,3.411,3.452C2488.923,3221.248,2487.388,3222.769,2485.501,3222.769z M2416.865,3222.367h-0.02
				l-20.591-0.121c-1.897-0.013-3.421-1.555-3.412-3.452c0.01-1.897,1.84-3.432,3.452-3.412l20.591,0.121
				c1.897,0.014,3.422,1.555,3.411,3.452C2420.287,3220.845,2418.752,3222.367,2416.865,3222.367z M2348.229,3221.965
				c0,0-0.013,0-0.02,0l-20.587-0.121c-1.897-0.013-3.422-1.554-3.412-3.452c0.01-1.89,1.545-3.412,3.432-3.412h0.02l20.588,0.121
				c1.896,0.014,3.421,1.555,3.411,3.452C2351.652,3220.443,2350.116,3221.965,2348.229,3221.965z M2279.597,3221.556h-0.02
				l-20.591-0.12c-1.897-0.014-3.422-1.555-3.412-3.452c0.01-1.89,1.545-3.411,3.432-3.411h0.02l20.591,0.12
				c1.897,0.014,3.422,1.555,3.412,3.452C2283.019,3220.035,2281.483,3221.556,2279.597,3221.556z M2210.961,3221.154
				c-0.007,0-0.013,0-0.013,0l-20.598-0.121c-1.897-0.014-3.422-1.555-3.412-3.452c0.01-1.889,1.545-3.411,3.432-3.411
				c0.007,0,0.014,0,0.014,0l20.597,0.121c1.897,0.013,3.422,1.554,3.412,3.452
				C2214.383,3219.633,2212.847,3221.154,2210.961,3221.154z M2142.328,3220.752c-0.007,0-0.013,0-0.013,0l-20.598-0.121
				c-1.897-0.014-3.422-1.555-3.412-3.452c0.01-1.89,1.545-3.411,3.432-3.411c0.007,0,0.014,0,0.014,0l20.597,0.121
				c1.897,0.013,3.422,1.555,3.412,3.452C2145.75,3219.23,2144.215,3220.752,2142.328,3220.752z M2073.692,3220.343h-0.02
				l-20.591-0.121c-1.897-0.013-3.422-1.555-3.412-3.452c0.01-1.89,1.545-3.412,3.432-3.412h0.02l20.591,0.121
				c1.897,0.013,3.422,1.554,3.412,3.452C2077.114,3218.821,2075.579,3220.343,2073.692,3220.343z M2005.056,3219.941h-0.02
				l-20.591-0.121c-1.897-0.013-3.422-1.555-3.412-3.452c0.01-1.89,1.545-3.412,3.432-3.412c0,0,0.014,0,0.02,0l20.591,0.121
				c1.897,0.013,3.422,1.555,3.412,3.452C2008.478,3218.419,2006.943,3219.941,2005.056,3219.941z M1936.424,3219.539h-0.02
				l-20.591-0.121c-1.897-0.013-3.422-1.554-3.412-3.452c0.01-1.89,1.545-3.412,3.432-3.412h0.02l20.591,0.121
				c1.897,0.014,3.422,1.555,3.412,3.452C1939.845,3218.017,1938.31,3219.539,1936.424,3219.539z M1867.788,3219.129
				c0,0-0.014,0-0.02,0l-20.591-0.12c-1.897-0.014-3.422-1.555-3.412-3.453c0.01-1.89,1.545-3.411,3.432-3.411h0.02l20.591,0.12
				c1.897,0.014,3.422,1.555,3.412,3.452C1871.209,3217.608,1869.674,3219.129,1867.788,3219.129z M1799.152,3218.727h-0.02
				l-20.591-0.12c-1.897-0.014-3.422-1.555-3.412-3.452c0.01-1.89,1.545-3.411,3.432-3.411h0.02l20.591,0.12
				c1.897,0.014,3.422,1.555,3.412,3.452C1802.573,3217.206,1801.038,3218.727,1799.152,3218.727z M1730.519,3218.325
				c-0.007,0-0.014,0-0.014,0l-20.597-0.12c-1.897-0.014-3.422-1.555-3.412-3.452c0.01-1.896,1.789-3.177,3.452-3.411l20.591,0.12
				c1.897,0.014,3.422,1.555,3.412,3.452C1733.941,3216.804,1732.406,3218.325,1730.519,3218.325z M1661.883,3217.917h-0.02
				l-20.591-0.121c-1.897-0.014-3.422-1.555-3.412-3.452c0.01-1.89,1.545-3.412,3.432-3.412h0.02l20.591,0.121
				c1.897,0.013,3.422,1.555,3.412,3.452C1665.305,3216.395,1663.77,3217.917,1661.883,3217.917z M1593.247,3217.514h-0.02
				l-20.591-0.121c-1.897-0.014-3.422-1.555-3.412-3.452c0.01-1.89,1.545-3.412,3.432-3.412c0,0,0.013,0,0.02,0l20.591,0.121
				c1.897,0.013,3.422,1.555,3.412,3.452C1596.669,3215.993,1595.134,3217.514,1593.247,3217.514z M1525.429,3209.846
				c-0.355,0-0.721-0.053-1.075-0.174c-6.619-2.185-13.171-4.866-19.475-7.976c-1.699-0.838-2.4-2.896-1.562-4.592
				c0.842-1.695,2.892-2.393,4.599-1.562c6.015,2.962,12.273,5.523,18.59,7.615c1.8,0.596,2.778,2.533,2.181,4.336
				C1528.21,3208.935,1526.87,3209.846,1525.429,3209.846z M2734.055,3200.249c-1.009,0-2.004-0.443-2.681-1.287
				c-1.187-1.482-0.945-3.64,0.533-4.826c5.195-4.155,9.998-8.82,14.28-13.854c1.223-1.448,3.382-1.629,4.836-0.396
				c1.444,1.227,1.622,3.391,0.392,4.839c-4.564,5.369-9.685,10.343-15.219,14.773
				C2735.563,3200,2734.806,3200.249,2734.055,3200.249z M1467.453,3174.315c-0.871,0-1.746-0.328-2.413-0.992
				c-4.994-4.94-9.676-10.255-13.915-15.799c-1.152-1.501-0.864-3.66,0.641-4.812c1.504-1.146,3.667-0.865,4.809,0.643
				c4.052,5.288,8.523,10.369,13.292,15.088c1.347,1.334,1.361,3.505,0.027,4.853
				C1469.223,3173.973,1468.339,3174.315,1467.453,3174.315z M2770.763,3143.67c-0.285,0-0.577-0.034-0.865-0.107
				c-1.833-0.477-2.936-2.353-2.46-4.183c0.915-3.539,1.652-7.166,2.185-10.785l1.338-9.109c0.271-1.877,1.977-3.198,3.887-2.909
				c1.876,0.275,3.177,2.018,2.902,3.887l-1.337,9.136c-0.57,3.854-1.354,7.722-2.332,11.495
				C2773.682,3142.645,2772.288,3143.67,2770.763,3143.67z M1431.296,3116.685c-1.428,0-2.762-0.898-3.248-2.325
				c-2.255-6.602-4.062-13.453-5.372-20.35c-0.355-1.863,0.868-3.66,2.732-4.014c1.85-0.342,3.66,0.871,4.011,2.728
				c1.251,6.589,2.976,13.124,5.124,19.425c0.614,1.79-0.345,3.74-2.138,4.357
				C1432.036,3116.625,1431.664,3116.685,1431.296,3116.685z M2780.747,3075.779c-0.141,0-0.281-0.007-0.426-0.027
				c-1.88-0.235-3.217-1.944-2.982-3.827c0.821-6.643,1.639-13.446,2.446-20.417c0.218-1.884,1.94-3.231,3.804-3.017
				c1.884,0.221,3.231,1.924,3.013,3.807c-0.808,6.984-1.625,13.814-2.454,20.47
				C2783.934,3074.505,2782.456,3075.779,2780.747,3075.779z M1422.713,3048.947c-1.844,0-3.368-1.461-3.425-3.325l-0.664-20.584
				c-0.064-1.89,1.424-3.479,3.318-3.539c1.736-0.087,3.479,1.421,3.539,3.325l0.664,20.584c0.064,1.89-1.424,3.479-3.318,3.539
				C1422.79,3048.947,1422.753,3048.947,1422.713,3048.947z M2788.247,3007.545c-0.107,0-0.218-0.007-0.328-0.014
				c-1.887-0.181-3.271-1.857-3.09-3.747c0.639-6.723,1.266-13.553,1.87-20.477c0.165-1.89,1.803-3.184,3.717-3.123
				c1.887,0.161,3.285,1.83,3.12,3.713c-0.603,6.951-1.23,13.794-1.876,20.543
				C2791.491,3006.217,2789.997,3007.545,2788.247,3007.545z M1420.504,2980.345c-1.843,0-3.368-1.468-3.425-3.325l-0.66-20.577
				c-0.064-1.89,1.424-3.479,3.318-3.54c1.857-0.027,3.479,1.428,3.539,3.325l0.66,20.578c0.064,1.89-1.424,3.478-3.318,3.539
				C1420.581,2980.345,1420.545,2980.345,1420.504,2980.345z M2793.79,2939.123c-0.077,0-0.154,0-0.231-0.006
				c-1.89-0.128-3.321-1.763-3.197-3.654c0.449-6.77,0.872-13.613,1.26-20.523c0.104-1.89,1.733-3.391,3.616-3.231
				c1.894,0.107,3.341,1.723,3.234,3.619c-0.389,6.924-0.811,13.794-1.26,20.591
				C2797.092,2937.729,2795.583,2939.123,2793.79,2939.123z M1418.299,2911.743c-1.843,0-3.368-1.468-3.425-3.325l-0.66-20.577
				c-0.064-1.89,1.424-3.479,3.318-3.54c1.84-0.134,3.482,1.434,3.539,3.325l0.66,20.577c0.064,1.89-1.424,3.479-3.318,3.54
				C1418.376,2911.743,1418.336,2911.743,1418.299,2911.743z M2797.239,2870.567c-0.041,0-0.08,0-0.121,0
				c-1.894-0.067-3.378-1.656-3.311-3.546c0.228-6.81,0.429-13.66,0.593-20.55c0.047-1.903,1.867-3.284,3.512-3.352
				c1.897,0.047,3.395,1.616,3.352,3.512c-0.164,6.918-0.365,13.795-0.6,20.618
				C2800.604,2869.107,2799.079,2870.567,2797.239,2870.567z M1416.094,2843.146c-1.843,0-3.368-1.468-3.425-3.324l-0.66-20.584
				c-0.064-1.89,1.424-3.479,3.318-3.539c1.823,0.101,3.482,1.434,3.539,3.325l0.66,20.584c0.064,1.89-1.424,3.479-3.318,3.539
				C1416.171,2843.146,1416.131,2843.146,1416.094,2843.146z M2798.389,2801.931c-1.894,0-3.429-1.535-3.432-3.425
				c-0.01-6.823-0.057-13.674-0.144-20.557c-0.024-1.89,1.494-3.445,3.388-3.472c1.682,0.021,3.449,1.488,3.476,3.392
				c0.087,6.897,0.134,13.774,0.144,20.624c0.003,1.896-1.532,3.438-3.429,3.438H2798.389z M1413.888,2774.544
				c-1.843,0-3.368-1.461-3.425-3.325l-0.664-20.584c-0.063-1.89,1.425-3.479,3.318-3.539c1.612-0.041,3.483,1.414,3.539,3.325
				l0.663,20.584c0.064,1.89-1.424,3.479-3.318,3.539C1413.966,2774.544,1413.929,2774.544,1413.888,2774.544z M2796.94,2733.323
				c-1.83,0-3.348-1.441-3.425-3.291c-0.285-6.831-0.614-13.674-0.988-20.517c-0.108-1.89,1.344-3.512,3.237-3.613
				c1.877-0.161,3.506,1.341,3.613,3.238c0.382,6.871,0.71,13.741,0.995,20.611c0.08,1.89-1.391,3.492-3.284,3.573
				C2797.038,2733.323,2796.99,2733.323,2796.94,2733.323z M1411.684,2705.942c-1.844,0-3.369-1.461-3.426-3.325l-0.663-20.577
				c-0.064-1.89,1.424-3.479,3.318-3.539c1.618-0.195,3.482,1.421,3.539,3.324l0.664,20.571c0.063,1.897-1.425,3.485-3.318,3.546
				C1411.76,2705.942,1411.724,2705.942,1411.684,2705.942z M2792.53,2664.827c-1.759,0-3.257-1.341-3.415-3.13
				c-0.607-6.817-1.26-13.64-1.967-20.443c-0.198-1.883,1.169-3.573,3.056-3.767c1.887-0.188,3.573,1.173,3.77,3.056
				c0.71,6.843,1.371,13.694,1.978,20.55c0.167,1.883-1.227,3.552-3.113,3.72C2792.734,2664.821,2792.631,2664.827,2792.53,2664.827
				z M1409.475,2637.339c-1.844,0-3.368-1.468-3.425-3.325l-0.66-20.577c-0.064-1.89,1.424-3.479,3.318-3.54
				c1.629-0.02,3.479,1.421,3.539,3.325l0.66,20.578c0.064,1.89-1.424,3.479-3.318,3.539
				C1409.552,2637.339,1409.515,2637.339,1409.475,2637.339z M2767.09,2616.762h-20.591c-1.897,0-3.432-1.535-3.432-3.432
				c0-1.896,1.535-3.432,3.432-3.432h20.591c1.897,0,3.432,1.535,3.432,3.432C2770.522,2615.227,2768.987,2616.762,2767.09,2616.762
				z M2698.454,2616.762h-20.591c-1.897,0-3.432-1.535-3.432-3.432c0-1.896,1.535-3.432,3.432-3.432h20.591
				c1.897,0,3.432,1.535,3.432,3.432C2701.886,2615.227,2700.351,2616.762,2698.454,2616.762z M2629.818,2616.762h-20.591
				c-1.897,0-3.432-1.535-3.432-3.432c0-1.896,1.535-3.432,3.432-3.432h20.591c1.897,0,3.432,1.535,3.432,3.432
				C2633.25,2615.227,2631.715,2616.762,2629.818,2616.762z M2561.182,2616.762h-20.591c-1.897,0-3.432-1.535-3.432-3.432
				c0-1.896,1.535-3.432,3.432-3.432h20.591c1.897,0,3.432,1.535,3.432,3.432
				C2564.614,2615.227,2563.079,2616.762,2561.182,2616.762z M2492.546,2616.762h-20.591c-1.897,0-3.432-1.535-3.432-3.432
				c0-1.896,1.535-3.432,3.432-3.432h20.591c1.897,0,3.432,1.535,3.432,3.432
				C2495.978,2615.227,2494.443,2616.762,2492.546,2616.762z M2423.91,2616.762h-20.591c-1.897,0-3.432-1.535-3.432-3.432
				c0-1.896,1.535-3.432,3.432-3.432h20.591c1.897,0,3.432,1.535,3.432,3.432C2427.342,2615.227,2425.807,2616.762,2423.91,2616.762
				z M2355.274,2616.762h-20.591c-1.897,0-3.432-1.535-3.432-3.432c0-1.896,1.535-3.432,3.432-3.432h20.591
				c1.897,0,3.432,1.535,3.432,3.432C2358.706,2615.227,2357.171,2616.762,2355.274,2616.762z M2286.638,2616.762h-20.591
				c-1.897,0-3.432-1.535-3.432-3.432c0-1.896,1.535-3.432,3.432-3.432h20.591c1.897,0,3.432,1.535,3.432,3.432
				C2290.07,2615.227,2288.535,2616.762,2286.638,2616.762z M2218.002,2616.762h-20.591c-1.897,0-3.432-1.535-3.432-3.432
				c0-1.896,1.535-3.432,3.432-3.432h20.591c1.897,0,3.432,1.535,3.432,3.432
				C2221.434,2615.227,2219.899,2616.762,2218.002,2616.762z M2149.366,2616.762h-20.591c-1.897,0-3.432-1.535-3.432-3.432
				c0-1.896,1.535-3.432,3.432-3.432h20.591c1.897,0,3.432,1.535,3.432,3.432
				C2152.798,2615.227,2151.263,2616.762,2149.366,2616.762z M2080.73,2616.762h-20.591c-1.897,0-3.432-1.535-3.432-3.432
				c0-1.896,1.535-3.432,3.432-3.432h20.591c1.897,0,3.432,1.535,3.432,3.432C2084.162,2615.227,2082.627,2616.762,2080.73,2616.762
				z M2012.094,2616.762h-20.591c-1.897,0-3.432-1.535-3.432-3.432c0-1.896,1.535-3.432,3.432-3.432h20.591
				c1.897,0,3.432,1.535,3.432,3.432C2015.526,2615.227,2013.991,2616.762,2012.094,2616.762z M1943.458,2616.762h-20.591
				c-1.897,0-3.432-1.535-3.432-3.432c0-1.896,1.535-3.432,3.432-3.432h20.591c1.897,0,3.432,1.535,3.432,3.432
				C1946.89,2615.227,1945.355,2616.762,1943.458,2616.762z M1874.822,2616.762h-20.591c-1.897,0-3.432-1.535-3.432-3.432
				c0-1.896,1.535-3.432,3.432-3.432h20.591c1.897,0,3.432,1.535,3.432,3.432
				C1878.254,2615.227,1876.719,2616.762,1874.822,2616.762z M1806.186,2616.762h-20.591c-1.897,0-3.432-1.535-3.432-3.432
				c0-1.896,1.535-3.432,3.432-3.432h20.591c1.897,0,3.432,1.535,3.432,3.432
				C1809.618,2615.227,1808.083,2616.762,1806.186,2616.762z M1737.55,2616.762h-20.591c-1.897,0-3.432-1.535-3.432-3.432
				c0-1.896,1.535-3.432,3.432-3.432h20.591c1.897,0,3.432,1.535,3.432,3.432C1740.982,2615.227,1739.447,2616.762,1737.55,2616.762
				z M1668.914,2616.762h-20.591c-1.897,0-3.432-1.535-3.432-3.432c0-1.896,1.535-3.432,3.432-3.432h20.591
				c1.897,0,3.432,1.535,3.432,3.432C1672.346,2615.227,1670.811,2616.762,1668.914,2616.762z M1600.278,2616.762h-20.591
				c-1.897,0-3.432-1.535-3.432-3.432c0-1.896,1.535-3.432,3.432-3.432h20.591c1.897,0,3.432,1.535,3.432,3.432
				C1603.71,2615.227,1602.175,2616.762,1600.278,2616.762z M1531.642,2616.762h-20.591c-1.897,0-3.432-1.535-3.432-3.432
				c0-1.896,1.535-3.432,3.432-3.432h20.591c1.897,0,3.432,1.535,3.432,3.432
				C1535.074,2615.227,1533.539,2616.762,1531.642,2616.762z M1463.006,2616.762h-20.591c-1.897,0-3.432-1.535-3.432-3.432
				c0-1.896,1.535-3.432,3.432-3.432h20.591c1.897,0,3.432,1.535,3.432,3.432
				C1466.438,2615.227,1464.903,2616.762,1463.006,2616.762z"/>
			
				<linearGradient id="SVGID_00000049937887705104775660000012829477248755070869_" gradientUnits="userSpaceOnUse" x1="2074.7952" y1="1179.3125" x2="1998.8811" y2="1488.0303">
				<stop  offset="0" style="stop-color:#4F52FF"/>
				<stop  offset="1" style="stop-color:#4042E2"/>
			</linearGradient>
			<path style="fill:url(#SVGID_00000049937887705104775660000012829477248755070869_);" d="M1710.573,2264.691l3.46-37.038
				c3.905-8.843,12.014-15.103,21.598-16.628c35.829-5.704,124.686-15.729,167.47,16.246l6.391,43.04L1710.573,2264.691z"/>
			
				<linearGradient id="SVGID_00000014601055308335498530000002394341241859700372_" gradientUnits="userSpaceOnUse" x1="2050.4563" y1="1173.328" x2="1974.5422" y2="1482.046">
				<stop  offset="0" style="stop-color:#4F52FF"/>
				<stop  offset="1" style="stop-color:#4042E2"/>
			</linearGradient>
			<path style="fill:url(#SVGID_00000014601055308335498530000002394341241859700372_);" d="M1822.494,2229.054
				c-8.249,2.011-16.513,2.006-24.792-0.029c-10.017-2.462-17.083-11.425-17.083-21.694l0.001-115.977h59.021l0.001,115.89
				C1839.641,2217.561,1832.56,2226.599,1822.494,2229.054z"/>
			
				<linearGradient id="SVGID_00000055693742099267977060000017951797184455769522_" gradientUnits="userSpaceOnUse" x1="2613.8645" y1="1311.8672" x2="2537.9504" y2="1620.585">
				<stop  offset="0" style="stop-color:#4F52FF"/>
				<stop  offset="1" style="stop-color:#4042E2"/>
			</linearGradient>
			<path style="fill:url(#SVGID_00000055693742099267977060000017951797184455769522_);" d="M2282.237,2264.691l3.46-37.038
				c3.905-8.843,12.015-15.103,21.597-16.628c35.829-5.704,124.686-15.729,167.47,16.246l6.392,43.04L2282.237,2264.691z"/>
			
				<linearGradient id="SVGID_00000120543126267445729510000006685426949989657790_" gradientUnits="userSpaceOnUse" x1="2588.1079" y1="1305.538" x2="2512.1941" y2="1614.2549">
				<stop  offset="0" style="stop-color:#4F52FF"/>
				<stop  offset="1" style="stop-color:#4042E2"/>
			</linearGradient>
			<path style="fill:url(#SVGID_00000120543126267445729510000006685426949989657790_);" d="M2394.158,2229.054
				c-8.25,2.011-16.513,2.006-24.793-0.029c-10.017-2.462-17.083-11.425-17.083-21.694l0.001-128.196h59.021l0.001,128.11
				C2411.306,2217.561,2404.225,2226.599,2394.158,2229.054z"/>
			
				<linearGradient id="SVGID_00000164475306555255594870000008087683227775249598_" gradientUnits="userSpaceOnUse" x1="2137.9126" y1="1726.3529" x2="2080.894" y2="2144.4873">
				<stop  offset="0" style="stop-color:#4F52FF"/>
				<stop  offset="1" style="stop-color:#4042E2"/>
			</linearGradient>
			<path style="fill:url(#SVGID_00000164475306555255594870000008087683227775249598_);" d="M1774.625,2119.783l634.734-21.011
				c14.472-0.479,26.75-10.919,29.236-25.117c3.477-19.87,6.542-49.618,1.971-80.456c-5.198-35.068-35.361-61.118-70.965-61.965
				c-118.411-2.818-419.853-2.732-585.993,62.987c-17.572,6.951-30.604,21.968-35.054,40.26
				c-4.243,17.446-7.063,40.742-1.519,64.453C1749.979,2111.533,1761.637,2120.213,1774.625,2119.783z"/>
			<path style="fill:#BDD0FB;" d="M1763.63,2090.865c-3.482,0-6.465-2.634-6.823-6.173c-0.104-1.038-2.487-25.625,3.921-49.305
				c5.094-18.814,19.97-33.936,38.829-39.472c35.545-10.43,103.49-28.159,159.17-29.727c3.814-0.094,6.947,2.889,7.052,6.669
				c0.107,3.794-2.879,6.951-6.669,7.058c-54.135,1.515-120.78,18.928-155.688,29.177c-14.307,4.196-25.588,15.644-29.442,29.881
				c-5.754,21.261-3.535,44.111-3.512,44.339c0.379,3.773-2.369,7.138-6.14,7.52
				C1764.093,2090.852,1763.858,2090.865,1763.63,2090.865z"/>
			
				<linearGradient id="SVGID_00000144296711919478738420000016258396816146913436_" gradientUnits="userSpaceOnUse" x1="2112.7029" y1="2809.0186" x2="2051.9714" y2="1862.6204">
				<stop  offset="0" style="stop-color:#4F52FF"/>
				<stop  offset="1" style="stop-color:#4042E2"/>
			</linearGradient>
			<path style="fill:url(#SVGID_00000144296711919478738420000016258396816146913436_);" d="M1416.078,2250.262
				c205.063-2.622,1092.151-11.943,1349.831,19.147c22.186,2.677,40.291,18.907,45.096,40.632
				c15.226,68.834,45.858,228.742,42.228,387.249c-0.494,21.571-16.311,39.771-37.607,43.801l-588.197,111.278H2018.49
				l-626.732-124.579c-22.091-4.391-38.375-23.102-39.519-45.494c-4.073-79.745-10.442-266.857,11.125-387.296
				C1367.946,2269.406,1389.962,2250.596,1416.078,2250.262z"/>
			<path style="fill:#FFFFFF;" d="M2023.482,2805.115c-0.221,0-0.446-0.02-0.674-0.067l-20.195-4.015
				c-1.857-0.369-3.067-2.172-2.695-4.035c0.372-1.85,2.154-3.103,4.035-2.695l20.014,3.981c0.151-0.02,0.305-0.033,0.459-0.033
				h20.591c1.896,0,3.432,1.535,3.432,3.432c0,1.897-1.536,3.432-3.432,3.432h-20.591c-0.161,0-0.319-0.013-0.473-0.034
				C2023.801,2805.102,2023.643,2805.115,2023.482,2805.115z M2182.29,2805.115h-20.591c-1.897,0-3.432-1.535-3.432-3.432
				c0-1.897,1.535-3.432,3.432-3.432h20.591c1.896,0,3.432,1.535,3.432,3.432C2185.722,2803.581,2184.187,2805.115,2182.29,2805.115
				z M2113.654,2805.115h-20.591c-1.897,0-3.432-1.535-3.432-3.432c0-1.897,1.535-3.432,3.432-3.432h20.591
				c1.896,0,3.432,1.535,3.432,3.432C2117.086,2803.581,2115.551,2805.115,2113.654,2805.115z M2230.198,2803.694
				c-1.619,0-3.057-1.146-3.369-2.795c-0.351-1.864,0.872-3.66,2.735-4.009l20.232-3.827c1.88-0.336,3.66,0.871,4.008,2.734
				c0.352,1.864-0.871,3.66-2.734,4.008l-20.233,3.827C2230.624,2803.675,2230.409,2803.694,2230.198,2803.694z M1956.163,2791.737
				c-0.222,0-0.446-0.02-0.674-0.067l-20.196-4.015c-1.857-0.368-3.066-2.178-2.694-4.035c0.369-1.851,2.142-3.063,4.035-2.695
				l20.195,4.015c1.857,0.369,3.067,2.172,2.695,4.035C1959.2,2790.604,1957.769,2791.737,1956.163,2791.737z M2297.637,2790.932
				c-1.618,0-3.056-1.146-3.368-2.795c-0.352-1.864,0.872-3.66,2.735-4.009l20.232-3.827c1.856-0.356,3.656,0.871,4.008,2.734
				c0.352,1.864-0.872,3.66-2.734,4.008l-20.233,3.827C2298.063,2790.912,2297.848,2790.932,2297.637,2790.932z M1888.844,2778.351
				c-0.222,0-0.446-0.02-0.674-0.067l-20.196-4.014c-1.856-0.369-3.066-2.172-2.694-4.035c0.368-1.85,2.158-3.077,4.035-2.695
				l20.195,4.015c1.857,0.369,3.067,2.172,2.695,4.035C1891.88,2777.219,1890.45,2778.351,1888.844,2778.351z M2365.077,2778.177
				c-1.618,0-3.056-1.146-3.368-2.795c-0.352-1.864,0.872-3.66,2.735-4.008l20.232-3.827c1.86-0.322,3.656,0.871,4.008,2.734
				c0.352,1.864-0.872,3.66-2.735,4.008l-20.232,3.827C2365.502,2778.157,2365.288,2778.177,2365.077,2778.177z M2432.517,2765.415
				c-1.619,0-3.057-1.146-3.368-2.795c-0.352-1.864,0.871-3.66,2.735-4.008l20.232-3.827c1.864-0.335,3.656,0.872,4.009,2.734
				c0.351,1.864-0.872,3.66-2.735,4.008l-20.232,3.827C2432.942,2765.395,2432.728,2765.415,2432.517,2765.415z M1821.526,2764.973
				c-0.222,0-0.446-0.02-0.674-0.067l-20.195-4.014c-1.857-0.369-3.066-2.172-2.694-4.035c0.372-1.856,2.145-3.09,4.034-2.695
				l20.196,4.015c1.857,0.369,3.067,2.178,2.695,4.035C1824.561,2763.84,1823.13,2764.973,1821.526,2764.973z M2499.956,2752.659
				c-1.619,0-3.056-1.146-3.368-2.795c-0.352-1.863,0.871-3.66,2.734-4.008l20.232-3.827c1.866-0.362,3.656,0.878,4.008,2.735
				c0.352,1.863-0.871,3.66-2.734,4.008l-20.232,3.827C2500.382,2752.639,2500.167,2752.659,2499.956,2752.659z M1754.207,2751.587
				c-0.222,0-0.446-0.02-0.671-0.067l-20.196-4.008c-1.86-0.368-3.067-2.172-2.697-4.035c0.365-1.85,2.188-3.103,4.032-2.694
				l20.195,4.008c1.86,0.369,3.07,2.172,2.698,4.034C1757.246,2750.454,1755.812,2751.587,1754.207,2751.587z M2567.396,2739.898
				c-1.619,0-3.056-1.146-3.368-2.796c-0.352-1.863,0.872-3.66,2.735-4.008l20.232-3.828c1.87-0.321,3.657,0.872,4.008,2.735
				c0.352,1.863-0.871,3.659-2.734,4.008l-20.232,3.827C2567.821,2739.877,2567.606,2739.898,2567.396,2739.898z M1686.888,2738.209
				c-0.222,0-0.446-0.021-0.674-0.067l-20.195-4.015c-1.857-0.369-3.067-2.172-2.695-4.035c0.372-1.85,2.148-3.063,4.035-2.695
				l20.195,4.015c1.857,0.369,3.067,2.172,2.695,4.035C1689.924,2737.076,1688.493,2738.209,1686.888,2738.209z M2634.835,2727.143
				c-1.619,0-3.057-1.146-3.369-2.795c-0.351-1.863,0.872-3.66,2.735-4.008l20.232-3.828c1.874-0.348,3.656,0.872,4.008,2.735
				c0.352,1.863-0.871,3.66-2.734,4.008l-20.232,3.827C2635.261,2727.122,2635.046,2727.143,2634.835,2727.143z M1619.568,2724.83
				c-0.221,0-0.445-0.021-0.673-0.067l-20.195-4.015c-1.857-0.368-3.067-2.172-2.695-4.035c0.369-1.856,2.166-3.076,4.035-2.694
				l20.195,4.014c1.857,0.369,3.067,2.179,2.695,4.035C1622.605,2723.697,1621.174,2724.83,1619.568,2724.83z M2702.274,2714.381
				c-1.619,0-3.056-1.146-3.368-2.795c-0.352-1.864,0.872-3.66,2.735-4.008l20.232-3.827c1.876-0.309,3.66,0.878,4.008,2.735
				c0.352,1.863-0.872,3.66-2.734,4.008l-20.232,3.827C2702.7,2714.361,2702.486,2714.381,2702.274,2714.381z M1552.25,2711.445
				c-0.221,0-0.446-0.021-0.673-0.067l-20.195-4.015c-1.857-0.368-3.067-2.171-2.695-4.035c0.372-1.857,2.152-3.083,4.035-2.694
				l20.195,4.015c1.857,0.369,3.067,2.172,2.695,4.035C1555.286,2710.312,1553.855,2711.445,1552.25,2711.445z M2769.714,2701.625
				c-1.618,0-3.056-1.146-3.368-2.795c-0.352-1.864,0.872-3.66,2.734-4.008l20.233-3.827c1.88-0.329,3.66,0.871,4.008,2.734
				c0.351,1.864-0.872,3.66-2.735,4.008l-20.232,3.827C2770.139,2701.605,2769.925,2701.625,2769.714,2701.625z M1484.931,2698.066
				c-0.221,0-0.445-0.02-0.673-0.067l-20.196-4.015c-1.857-0.369-3.067-2.172-2.695-4.035c0.369-1.85,2.168-3.103,4.035-2.695
				l20.195,4.015c1.857,0.369,3.067,2.172,2.695,4.035C1487.967,2696.933,1486.536,2698.066,1484.931,2698.066z M1417.612,2684.687
				c-0.221,0-0.446-0.02-0.673-0.067l-17.444-3.472l-0.409-8.157c-0.091-1.89,1.371-3.499,3.264-3.585
				c1.846-0.382,3.502,1.36,3.592,3.263l0.138,2.796l12.199,2.426c1.857,0.369,3.067,2.178,2.695,4.035
				C1420.648,2683.562,1419.217,2684.687,1417.612,2684.687z M2802.759,2660.269c-1.877,0-3.408-1.508-3.432-3.391
				c-0.087-6.857-0.231-13.7-0.432-20.524c-0.053-1.896,1.438-3.472,3.331-3.532c1.79,0.053,3.476,1.427,3.533,3.331
				c0.201,6.864,0.345,13.748,0.432,20.644c0.023,1.89-1.495,3.446-3.388,3.472H2802.759z M1400.536,2628.25
				c-1.839,0-3.365-1.461-3.425-3.318c-0.224-6.609-0.436-13.493-0.63-20.604c-0.05-1.897,1.445-3.472,3.338-3.526
				c1.854,0.161,3.472,1.441,3.526,3.339c0.194,7.097,0.402,13.968,0.623,20.564c0.064,1.89-1.421,3.479-3.314,3.546
				C1400.618,2628.25,1400.577,2628.25,1400.536,2628.25z M2800.054,2591.707c-1.793,0-3.304-1.394-3.421-3.21
				c-0.446-6.884-0.935-13.714-1.468-20.504c-0.148-1.89,1.263-3.54,3.154-3.687c1.863-0.228,3.542,1.266,3.69,3.15
				c0.533,6.817,1.029,13.687,1.474,20.598c0.121,1.89-1.314,3.526-3.204,3.646
				C2800.205,2591.707,2800.128,2591.707,2800.054,2591.707z M1398.968,2559.621c-1.877,0-3.412-1.508-3.432-3.391
				c-0.077-6.77-0.134-13.654-0.164-20.618c-0.007-1.897,1.522-3.439,3.418-3.446h0.01c1.894,0,3.428,1.529,3.435,3.419
				c0.03,6.951,0.087,13.807,0.164,20.564c0.02,1.896-1.498,3.452-3.391,3.471
				C1398.995,2559.621,1398.982,2559.621,1398.968,2559.621z M2794.105,2523.292c-1.729,0-3.217-1.301-3.408-3.063
				c-0.747-6.897-1.525-13.707-2.336-20.423c-0.225-1.877,1.116-3.586,2.996-3.814c1.917-0.261,3.593,1.113,3.821,2.997
				c0.811,6.743,1.595,13.58,2.343,20.504c0.205,1.884-1.16,3.579-3.043,3.78
				C2794.354,2523.285,2794.229,2523.292,2794.105,2523.292z M1399.055,2490.979c0,0-0.034,0-0.053,0
				c-1.894-0.027-3.405-1.589-3.378-3.486c0.104-6.85,0.242-13.733,0.416-20.624c0.047-1.897,1.629-3.284,3.519-3.345
				c1.893,0.047,3.391,1.622,3.344,3.519c-0.174,6.864-0.312,13.727-0.416,20.557
				C1402.457,2489.477,1400.929,2490.979,1399.055,2490.979z M2785.399,2455.192c-1.676,0-3.14-1.227-3.392-2.936
				c-1.022-6.938-2.058-13.721-3.1-20.33c-0.299-1.87,0.981-3.633,2.852-3.927c1.857-0.281,3.629,0.985,3.925,2.855
				c1.049,6.636,2.091,13.446,3.113,20.41c0.274,1.87-1.022,3.613-2.896,3.894
				C2785.734,2455.179,2785.563,2455.192,2785.399,2455.192z M1401.298,2422.363c-0.06,0-0.121,0-0.181-0.007
				c-1.894-0.094-3.348-1.709-3.251-3.606c0.362-6.91,0.767-13.788,1.22-20.604c0.128-1.897,1.76-3.392,3.653-3.197
				c1.89,0.127,3.321,1.763,3.198,3.653c-0.453,6.79-0.858,13.626-1.214,20.51
				C1404.625,2420.942,1403.11,2422.363,1401.298,2422.363z M2774.208,2387.434c-1.625,0-3.07-1.159-3.371-2.815
				c-1.301-7.085-2.577-13.828-3.818-20.202c-0.362-1.864,0.852-3.667,2.712-4.028c1.856-0.368,3.663,0.858,4.025,2.715
				c1.246,6.401,2.53,13.171,3.831,20.283c0.342,1.863-0.892,3.653-2.755,3.995
				C2774.621,2387.414,2774.413,2387.434,2774.208,2387.434z M1406.677,2353.935c-0.124,0-0.252-0.007-0.379-0.021
				c-1.883-0.207-3.245-1.903-3.036-3.787c0.771-6.984,1.609-13.841,2.513-20.531c0.258-1.877,1.984-3.284,3.861-2.936
				c1.88,0.255,3.197,1.977,2.942,3.861c-0.898,6.636-1.729,13.426-2.494,20.357
				C1409.89,2352.634,1408.402,2353.935,1406.677,2353.935z M2757.696,2322.894c-0.13,0-0.264-0.007-0.402-0.02
				c-6.354-0.744-13.161-1.481-20.41-2.192c-1.887-0.187-3.268-1.87-3.08-3.753c0.184-1.89,1.81-3.157,3.75-3.084
				c7.296,0.724,14.143,1.461,20.537,2.205c1.88,0.222,3.231,1.924,3.009,3.807
				C2760.897,2321.607,2759.415,2322.894,2757.696,2322.894z M2689.339,2316.714c-0.084,0-0.168,0-0.251-0.007
				c-6.599-0.476-13.439-0.938-20.514-1.387c-1.89-0.121-3.328-1.75-3.207-3.64c0.117-1.903,1.762-3.338,3.643-3.211
				c7.095,0.45,13.955,0.912,20.573,1.388c1.89,0.141,3.311,1.783,3.174,3.673
				C2692.629,2315.333,2691.121,2316.714,2689.339,2316.714z M2620.82,2312.618c-0.06,0-0.117,0-0.178-0.006
				c-6.693-0.342-13.543-0.671-20.551-0.993c-1.893-0.087-3.358-1.689-3.271-3.579c0.087-1.889,1.729-3.398,3.585-3.271
				c7.021,0.322,13.882,0.65,20.585,0.992c1.893,0.094,3.351,1.709,3.254,3.599
				C2624.151,2311.198,2622.633,2312.618,2620.82,2312.618z M2552.247,2309.615c-0.043,0-0.087,0-0.134,0l-20.567-0.744
				c-1.896-0.067-3.378-1.656-3.311-3.552c0.067-1.884,1.757-3.285,3.546-3.312l20.594,0.744c1.894,0.074,3.371,1.669,3.298,3.559
				C2555.602,2308.161,2554.08,2309.615,2552.247,2309.615z M2483.641,2307.33c-0.036,0-0.07,0-0.104,0l-20.577-0.583
				c-1.894-0.054-3.388-1.629-3.338-3.526c0.05-1.897,1.367-3.291,3.526-3.338l20.591,0.583c1.897,0.06,3.385,1.643,3.331,3.533
				C2487.013,2305.863,2485.488,2307.33,2483.641,2307.33z M2415.026,2305.554c-0.027,0-0.053,0-0.081,0l-20.584-0.456
				c-1.894-0.04-3.398-1.608-3.358-3.505c0.04-1.87,1.568-3.358,3.432-3.358c0.023,0,0.047,0,0.047,0l20.617,0.456
				c1.897,0.047,3.398,1.616,3.355,3.513C2418.41,2304.066,2416.882,2305.554,2415.026,2305.554z M2346.396,2304.173
				c-0.02,0-0.043,0-0.043,0l-20.604-0.355c-1.893-0.034-3.405-1.595-3.375-3.485c0.031-1.876,1.562-3.378,3.432-3.378
				c0.017,0,0.037,0,0.057,0l20.597,0.356c1.897,0.033,3.402,1.602,3.368,3.498
				C2349.792,2302.678,2348.263,2304.173,2346.396,2304.173z M1433.373,2304.167c-1.876,0-3.408-1.508-3.432-3.385
				c-0.023-1.896,1.495-3.452,3.389-3.479l20.607-0.248c0,0,0.027,0,0.04,0c1.877,0,3.409,1.508,3.432,3.391
				c0.023,1.897-1.495,3.452-3.392,3.472l-20.6,0.248C1433.417,2304.167,1433.387,2304.167,1433.373,2304.167z M1502.043,2303.382
				c-1.88,0-3.412-1.515-3.432-3.398c-0.02-1.897,1.501-3.445,3.398-3.466l20.601-0.207h0.034c1.88,0,3.415,1.515,3.432,3.398
				c0.016,1.896-1.505,3.445-3.399,3.466l-20.6,0.207C1502.077,2303.382,1502.053,2303.382,1502.043,2303.382z M2277.76,2303.094
				h-0.047l-20.584-0.268c-1.894-0.027-3.412-1.582-3.389-3.472c0.023-1.883,1.555-3.391,3.432-3.391c0.014,0,0.027,0,0.044,0
				l20.591,0.268c1.896,0.027,3.411,1.582,3.385,3.479C2281.165,2301.586,2279.634,2303.094,2277.76,2303.094z M1570.709,2302.719
				c-1.88,0-3.416-1.515-3.432-3.399c-0.017-1.896,1.504-3.445,3.401-3.465l20.601-0.181h0.03c1.883,0,3.415,1.515,3.432,3.405
				c0.017,1.89-1.509,3.445-3.401,3.459l-20.601,0.181C1570.739,2302.719,1570.719,2302.719,1570.709,2302.719z M2209.127,2302.283
				c0,0-0.023,0-0.034,0l-20.587-0.194c-1.893-0.014-3.418-1.569-3.402-3.459c0.017-1.89,1.548-3.404,3.432-3.404h0.03l20.594,0.194
				c1.897,0.02,3.419,1.568,3.398,3.466C2212.539,2300.768,2211.008,2302.283,2209.127,2302.283z M1639.369,2302.162
				c-1.883,0-3.418-1.522-3.432-3.405c-0.013-1.897,1.511-3.446,3.409-3.459l20.591-0.147c0,0,0.016,0,0.027,0
				c1.883,0,3.418,1.522,3.432,3.405c0.014,1.897-1.511,3.446-3.405,3.459l-20.598,0.147H1639.369z M2140.491,2301.7
				c0,0-0.016,0-0.023,0l-20.587-0.134c-1.894-0.014-3.422-1.555-3.412-3.452c0.01-1.89,1.545-3.412,3.432-3.412h0.021l20.594,0.134
				c1.897,0.014,3.422,1.562,3.408,3.458C2143.91,2300.178,2142.375,2301.7,2140.491,2301.7z M1708.028,2301.7
				c-1.887,0-3.422-1.522-3.432-3.412c-0.01-1.896,1.515-3.438,3.412-3.452l20.601-0.114c0,0,0.01,0,0.016,0
				c1.887,0,3.422,1.529,3.432,3.419c0.01,1.89-1.522,3.438-3.415,3.445l-20.594,0.114H1708.028z M1776.687,2301.358
				c-1.89,0-3.425-1.528-3.432-3.418c-0.006-1.897,1.522-3.438,3.419-3.445l20.598-0.08h0.01c1.894,0,3.428,1.528,3.435,3.418
				c0.007,1.897-1.522,3.439-3.418,3.446l-20.598,0.08H1776.687z M2071.852,2301.304h-0.01l-20.594-0.08
				c-1.897-0.007-3.425-1.549-3.419-3.446c0.007-1.89,1.542-3.418,3.432-3.418h0.014l20.591,0.08
				c1.897,0.007,3.425,1.548,3.418,3.445C2075.278,2299.776,2073.742,2301.304,2071.852,2301.304z M1845.34,2301.123
				c-1.89,0-3.425-1.528-3.432-3.418c-0.007-1.897,1.525-3.439,3.422-3.446l20.598-0.047c1.759-0.141,3.435,1.535,3.439,3.425
				c0.003,1.897-1.529,3.432-3.425,3.439l-20.591,0.047H1845.34z M2003.21,2301.083h-0.004l-20.591-0.034
				c-1.897,0-3.432-1.542-3.428-3.439c0.003-1.89,1.538-3.425,3.432-3.425h0.003l20.594,0.034c1.897,0.006,3.429,1.542,3.426,3.438
				C2006.638,2299.548,2005.103,2301.083,2003.21,2301.083z M1913.983,2301.016c-1.894,0-3.428-1.535-3.432-3.425
				c-0.003-1.897,1.531-3.439,3.428-3.439h20.527c1.894,0,3.465,1.542,3.462,3.432c0,1.897-1.502,3.432-3.395,3.432h-20.587
				H1913.983z"/>
			<path style="fill:#7D97F4;" d="M2207.756,2940.089H2024.71c-23.988,0-44.188-17.847-47.034-41.553l-21.149-176.138
				c-3.369-28.058,18.644-52.742,47.035-52.742h219.898c27.815,0,49.643,23.74,47.185,51.315l-15.705,176.138
				C2252.771,2921.438,2232.294,2940.089,2207.756,2940.089z"/>
			<defs>
				<filter id="Adobe_OpacityMaskFilter" filterUnits="userSpaceOnUse" x="1993.769" y="2701.863" width="239.482" height="205.83">
					<feFlood  style="flood-color:white;flood-opacity:1" result="back"/>
					<feBlend  in="SourceGraphic" in2="back" mode="normal"/>
				</filter>
			</defs>
			
				<mask maskUnits="userSpaceOnUse" x="1993.769" y="2701.863" width="239.482" height="205.83" id="SVGID_00000067943668589412298060000005275371745910053823_">
				<g style="filter:url(#Adobe_OpacityMaskFilter);">
					<defs>
						
							<filter id="Adobe_OpacityMaskFilter_00000016780535703599626240000013796047591339988362_" filterUnits="userSpaceOnUse" x="1993.769" y="2701.863" width="239.482" height="205.83">
							<feFlood  style="flood-color:white;flood-opacity:1" result="back"/>
							<feBlend  in="SourceGraphic" in2="back" mode="normal"/>
						</filter>
					</defs>
					
						<mask maskUnits="userSpaceOnUse" x="1993.769" y="2701.863" width="239.482" height="205.83" id="SVGID_00000067943668589412298060000005275371745910053823_">
						<g style="filter:url(#Adobe_OpacityMaskFilter_00000016780535703599626240000013796047591339988362_);">
						</g>
					</mask>
					
						<linearGradient id="SVGID_00000093147865803655399330000018388796270967033755_" gradientUnits="userSpaceOnUse" x1="1993.769" y1="2804.7781" x2="2233.2505" y2="2804.7781">
						<stop  offset="0" style="stop-color:#FFFFFF"/>
						<stop  offset="1" style="stop-color:#000000"/>
					</linearGradient>
					
						<path style="mask:url(#SVGID_00000067943668589412298060000005275371745910053823_);fill:url(#SVGID_00000093147865803655399330000018388796270967033755_);" d="
						M2185.242,2907.693h-139.318c-18.257,0-33.632-13.583-35.799-31.626l-16.096-134.061
						c-2.564-21.355,14.191-40.143,35.798-40.143h167.367c21.169,0,37.783,18.068,35.912,39.057l-11.953,134.06
						C2219.502,2893.497,2203.918,2907.693,2185.242,2907.693z"/>
				</g>
			</mask>
			
				<linearGradient id="SVGID_00000041268095223922697150000002541500591640288176_" gradientUnits="userSpaceOnUse" x1="1993.769" y1="2804.7781" x2="2233.2505" y2="2804.7781">
				<stop  offset="0" style="stop-color:#FFFFFF"/>
				<stop  offset="1" style="stop-color:#FFFFFF"/>
			</linearGradient>
			<path style="opacity:0.32;fill:url(#SVGID_00000041268095223922697150000002541500591640288176_);" d="M2185.242,2907.693
				h-139.318c-18.257,0-33.632-13.583-35.799-31.626l-16.096-134.061c-2.564-21.355,14.191-40.143,35.798-40.143h167.367
				c21.169,0,37.783,18.068,35.912,39.057l-11.953,134.06C2219.502,2893.497,2203.918,2907.693,2185.242,2907.693z"/>
		</g>
		<g>
			<g>
				
					<linearGradient id="SVGID_00000082338598034617518040000004469628606520413354_" gradientUnits="userSpaceOnUse" x1="3326.7915" y1="884.0605" x2="3190.1462" y2="1258.5707">
					<stop  offset="0" style="stop-color:#FF928E"/>
					<stop  offset="1" style="stop-color:#FE7062"/>
				</linearGradient>
				
					<circle style="fill:url(#SVGID_00000082338598034617518040000004469628606520413354_);" cx="2836.48" cy="2227.88" r="298.665"/>
				
					<linearGradient id="SVGID_00000077292458449469617810000006920174000755194516_" gradientUnits="userSpaceOnUse" x1="3054.7561" y1="1898.1282" x2="1870.1597" y2="3687.7153">
					<stop  offset="0" style="stop-color:#FF928E"/>
					<stop  offset="1" style="stop-color:#FE7062"/>
				</linearGradient>
				
					<circle style="fill:url(#SVGID_00000077292458449469617810000006920174000755194516_);" cx="2836.48" cy="2227.88" r="288.734"/>
				<path style="fill:#FFFFFF;" d="M2598.385,2114.585c-1.006,0-2.028-0.227-2.988-0.714c-3.277-1.651-4.591-5.648-2.936-8.925
					c46.781-92.673,140.284-150.244,244.02-150.244c16.565,0,33.142,1.492,49.276,4.435c3.607,0.659,6.002,4.12,5.343,7.731
					c-0.658,3.608-4.081,5.999-7.731,5.343c-15.345-2.8-31.121-4.221-46.888-4.221c-98.691,0-187.649,54.775-232.159,142.945
					C2603.154,2113.251,2600.815,2114.585,2598.385,2114.585z"/>
				
					<ellipse transform="matrix(0.7071 -0.7071 0.7071 0.7071 -747.1693 2664.5166)" style="opacity:0.78;fill:#FFFFFF;" cx="2842.771" cy="2234.171" rx="244.378" ry="244.378"/>
				<g>
					
						<linearGradient id="SVGID_00000063629899120712893650000001197773055747405195_" gradientUnits="userSpaceOnUse" x1="3438.2495" y1="1341.0786" x2="3175.0801" y2="1740.8943">
						<stop  offset="0" style="stop-color:#FF928E"/>
						<stop  offset="1" style="stop-color:#FE7062"/>
					</linearGradient>
					<path style="fill:url(#SVGID_00000063629899120712893650000001197773055747405195_);" d="M2818.79,2415.845v-26.588
						c-27.716-1.11-55.13-7.651-74.601-16.174c-6.953-3.043-10.498-10.846-8.5-18.169l6.754-24.764
						c2.478-9.085,12.359-13.784,21.042-10.144c19.316,8.097,43.164,14.503,68.88,14.503c26.695,0,46.603-9.051,46.603-27.603
						c0-16.74-15.383-26.693-52.485-36.647c-52.938-14.479-90.947-37.556-90.947-84.16c0-42.081,30.77-74.206,84.16-82.801v-26.59
						c0-8.555,6.936-15.491,15.491-15.491h15.621c8.556,0,15.491,6.937,15.491,15.491v23.874
						c25.647,1.027,44.315,5.412,59.131,10.618c7.591,2.667,11.739,10.844,9.633,18.609l-6.211,22.903
						c-2.395,8.833-11.834,13.67-20.393,10.434c-13.641-5.158-32.927-10.53-57.995-10.53c-31.674,0-40.721,13.121-40.721,24.885
						c0,14.479,19.003,24.432,60.177,37.102c58.821,17.647,83.253,42.079,83.253,85.969c0,40.269-29.862,76.467-87.777,85.518
						v29.754c0,8.555-6.936,15.491-15.491,15.491h-15.623C2825.726,2431.336,2818.79,2424.4,2818.79,2415.845z"/>
				</g>
			</g>
			<g>
				
					<linearGradient id="SVGID_00000096760301436989235670000016007241544909194649_" gradientUnits="userSpaceOnUse" x1="3013.0469" y1="2336.5073" x2="2569.7434" y2="3047.3901">
					<stop  offset="0" style="stop-color:#FF928E"/>
					<stop  offset="1" style="stop-color:#FE7062"/>
				</linearGradient>
				<path style="fill:url(#SVGID_00000096760301436989235670000016007241544909194649_);" d="M3134.761,2671.886H2538.2
					c-3.092,0-5.599-2.507-5.599-5.599v-93.275c0-3.092,2.507-5.599,5.599-5.599h596.562c3.092,0,5.599,2.507,5.599,5.599v93.274
					C3140.361,2669.379,3137.854,2671.886,3134.761,2671.886z"/>
			</g>
			<g>
				
					<linearGradient id="SVGID_00000062180403847574083560000011988337433367232957_" gradientUnits="userSpaceOnUse" x1="3013.0471" y1="2452.532" x2="2569.7434" y2="3163.4148">
					<stop  offset="0" style="stop-color:#FF928E"/>
					<stop  offset="1" style="stop-color:#FE7062"/>
				</linearGradient>
				<path style="fill:url(#SVGID_00000062180403847574083560000011988337433367232957_);" d="M3134.761,2787.911H2538.2
					c-3.092,0-5.599-2.507-5.599-5.599v-93.274c0-3.093,2.507-5.6,5.599-5.6h596.562c3.092,0,5.599,2.507,5.599,5.6v93.274
					C3140.361,2785.404,3137.854,2787.911,3134.761,2787.911z"/>
			</g>
			<g>
				
					<linearGradient id="SVGID_00000055706498926889379020000001454004189490780341_" gradientUnits="userSpaceOnUse" x1="3013.0471" y1="2568.5566" x2="2569.7434" y2="3279.4392">
					<stop  offset="0" style="stop-color:#FF928E"/>
					<stop  offset="1" style="stop-color:#FE7062"/>
				</linearGradient>
				<path style="fill:url(#SVGID_00000055706498926889379020000001454004189490780341_);" d="M3134.761,2903.936H2538.2
					c-3.092,0-5.599-2.507-5.599-5.599v-93.274c0-3.092,2.507-5.599,5.599-5.599h596.562c3.092,0,5.599,2.507,5.599,5.599v93.274
					C3140.361,2901.429,3137.854,2903.936,3134.761,2903.936z"/>
			</g>
			<g>
				
					<linearGradient id="SVGID_00000160891872384649186820000007639372210026070939_" gradientUnits="userSpaceOnUse" x1="3013.0474" y1="2684.5811" x2="2569.7429" y2="3395.4648">
					<stop  offset="0" style="stop-color:#FF928E"/>
					<stop  offset="1" style="stop-color:#FE7062"/>
				</linearGradient>
				<path style="fill:url(#SVGID_00000160891872384649186820000007639372210026070939_);" d="M3134.761,3019.961H2538.2
					c-3.092,0-5.599-2.507-5.599-5.599v-93.275c0-3.093,2.507-5.599,5.599-5.599h596.562c3.092,0,5.599,2.507,5.599,5.599v93.275
					C3140.361,3017.454,3137.854,3019.961,3134.761,3019.961z"/>
			</g>
			<g>
				
					<linearGradient id="SVGID_00000136382732244867087440000012897302730742032005_" gradientUnits="userSpaceOnUse" x1="3013.0471" y1="2800.6057" x2="2569.7429" y2="3511.4893">
					<stop  offset="0" style="stop-color:#FF928E"/>
					<stop  offset="1" style="stop-color:#FE7062"/>
				</linearGradient>
				<path style="fill:url(#SVGID_00000136382732244867087440000012897302730742032005_);" d="M3134.761,3135.985H2538.2
					c-3.092,0-5.599-2.507-5.599-5.599v-93.275c0-3.093,2.507-5.599,5.599-5.599h596.562c3.092,0,5.599,2.507,5.599,5.599v93.275
					C3140.361,3133.479,3137.854,3135.985,3134.761,3135.985z"/>
			</g>
			<g>
				
					<linearGradient id="SVGID_00000108276306853992618140000013775081367036395939_" gradientUnits="userSpaceOnUse" x1="3013.0469" y1="2916.6309" x2="2569.7434" y2="3627.5137">
					<stop  offset="0" style="stop-color:#FF928E"/>
					<stop  offset="1" style="stop-color:#FE7062"/>
				</linearGradient>
				<path style="fill:url(#SVGID_00000108276306853992618140000013775081367036395939_);" d="M3134.761,3252.01H2538.2
					c-3.092,0-5.599-2.507-5.599-5.599v-93.275c0-3.092,2.507-5.599,5.599-5.599h596.562c3.092,0,5.599,2.507,5.599,5.599v93.274
					C3140.361,3249.503,3137.854,3252.01,3134.761,3252.01z"/>
			</g>
		</g>
		<g>
			
				<linearGradient id="SVGID_00000168826422945506101770000007249438886402627496_" gradientUnits="userSpaceOnUse" x1="7156.6133" y1="3387.7363" x2="7116.1255" y2="4308.8281" gradientTransform="matrix(1 0 0 1 -6010.6846 0)">
				<stop  offset="0" style="stop-color:#4F52FF"/>
				<stop  offset="1" style="stop-color:#4042E2"/>
			</linearGradient>
			<path style="fill:url(#SVGID_00000168826422945506101770000007249438886402627496_);" d="M1075.013,3158.281
				c0,0-5.03,28.475-7.496,56.662c-0.964,11.015,7.529,20.58,18.578,21.041c37.536,1.563,117.83,4.603,146.641,3.317
				c4.331-0.193,7.163-4.627,5.56-8.656c-1.344-3.375-3.934-6.105-7.235-7.622l-132.629-60.956L1075.013,3158.281z"/>
			
				<linearGradient id="SVGID_00000061469831132703006770000010852364384965908366_" gradientUnits="userSpaceOnUse" x1="7286.7349" y1="2523.0505" x2="6855.583" y2="3107.4216" gradientTransform="matrix(1 0 0 1 -6010.6846 0)">
				<stop  offset="0" style="stop-color:#09005D"/>
				<stop  offset="1" style="stop-color:#1A0F91"/>
			</linearGradient>
			<path style="fill:url(#SVGID_00000061469831132703006770000010852364384965908366_);" d="M1073.929,2501.217
				c-1.746,9.284-9.369,463.315,37.125,666.781c0.759,3.32-0.854,6.742-3.881,8.033c-7.131,3.041-21.111,7.445-37.866,8.033
				c-5.188,0.182-9.84-3.338-11.304-8.537c-13.29-47.208-76.974-283.73-85.282-509.672c-9.283-252.469,0-8.596,0-8.596
				l5.445-156.061L1073.929,2501.217z"/>
			
				<linearGradient id="SVGID_00000127723097751960964940000012397152010344453305_" gradientUnits="userSpaceOnUse" x1="6945.1865" y1="3378.4421" x2="6904.6987" y2="4299.5327" gradientTransform="matrix(1 0 0 1 -6010.6846 0)">
				<stop  offset="0" style="stop-color:#4F52FF"/>
				<stop  offset="1" style="stop-color:#4042E2"/>
			</linearGradient>
			<path style="fill:url(#SVGID_00000127723097751960964940000012397152010344453305_);" d="M922.445,3173.136
				c0,0-8.006,14.375-15.758,52.573c-1.4,6.899,3.42,13.501,10.426,14.189c12.395,1.219,31.476,2.787,46.76,2.681
				c7.046-0.048,12.545-6.184,11.696-13.178c-1.693-13.943-6.967-36.818-23.261-54.647L922.445,3173.136z"/>
			
				<linearGradient id="SVGID_00000131356565115276022980000001190927277621484710_" gradientUnits="userSpaceOnUse" x1="7215.8979" y1="2470.7029" x2="6782.1948" y2="3058.5313" gradientTransform="matrix(1 0 0 1 -6010.6846 0)">
				<stop  offset="0" style="stop-color:#09005D"/>
				<stop  offset="1" style="stop-color:#1A0F91"/>
			</linearGradient>
			<path style="fill:url(#SVGID_00000131356565115276022980000001190927277621484710_);" d="M889.904,2515.966
				c-38.026,242.855,8.248,600.235,23.855,670.183c0.955,4.283,4.221,7.563,8.323,8.283c6.966,1.222,18.435,2.219,29.742-1.256
				c3.896-1.197,6.633-4.916,6.791-9.206c2.094-56.551-1.675-403.718,33.757-540.92c1.795-6.953,5.808-13.017,11.36-17.194
				l68.77-51.737l5.272-83.628L889.904,2515.966z"/>
			<g>
				
					<linearGradient id="SVGID_00000023238812788525037210000001232515075024332430_" gradientUnits="userSpaceOnUse" x1="5019.3604" y1="8213.165" x2="5370.27" y2="7190.8042" gradientTransform="matrix(1 0 0 1 -6010.6846 0)">
					<stop  offset="0" style="stop-color:#FF928E"/>
					<stop  offset="1" style="stop-color:#FE7062"/>
				</linearGradient>
				<path style="fill:url(#SVGID_00000023238812788525037210000001232515075024332430_);" d="M1132.207,2079.726
					c-113.957-1.883-239.695,29.921-239.695,29.921c-33.968,198.203-5.94,426.816-5.94,426.816
					c88.222,23.136,187.742-14.145,187.742-14.145c14.663-82.844,83.077-315.995,83.077-315.995
					c55.679-6.91,101.546-22.974,139.318-44.213c-28.812-33.397-42.395-75.893-48.294-101.014
					C1208.125,2073.618,1167.355,2080.307,1132.207,2079.726z"/>
				
					<linearGradient id="SVGID_00000146488994817122342210000014811257596780178824_" gradientUnits="userSpaceOnUse" x1="-2470.2312" y1="1775.8864" x2="-2394.115" y2="1993.3618" gradientTransform="matrix(-1 0 0 1 -1035.4025 0)">
					<stop  offset="0" style="stop-color:#FEBBBA"/>
					<stop  offset="1" style="stop-color:#FF928E"/>
				</linearGradient>
				<path style="fill:url(#SVGID_00000146488994817122342210000014811257596780178824_);" d="M1468.814,1911.874
					c-11.194-13.521-25.363-7.125-25.363-7.125c-16.77,70.837-104.7,128.273-195.035,156.348
					c5.899,25.121,19.482,67.616,48.294,101.014C1446.631,2077.816,1468.814,1911.874,1468.814,1911.874z"/>
			</g>
			<g>
				
					<linearGradient id="SVGID_00000147207646303516295020000003269895489099917209_" gradientUnits="userSpaceOnUse" x1="-2535.2888" y1="1798.6564" x2="-2459.1729" y2="2016.1311" gradientTransform="matrix(-1 0 0 1 -1035.4025 0)">
					<stop  offset="0" style="stop-color:#FEBBBA"/>
					<stop  offset="1" style="stop-color:#FF928E"/>
				</linearGradient>
				<path style="fill:url(#SVGID_00000147207646303516295020000003269895489099917209_);" d="M1466.098,1915.312
					c1.172,3.724-12.393,9.394-20.379-5.836c-0.28-7.299-4.718-38.57-0.356-44.516c23.229-31.669,68.266-71.369,68.266-71.369
					c7.612,7.51,1.341,14.888,1.341,14.888l-21.848,22.76c4.57,8.258,10.144,15.229,12.756,25.218
					c1.979,7.564,0.768,15.648-3.052,22.533c-3.835,6.909-9.068,15.89-14.014,22.919
					C1479.448,1915.212,1466.098,1915.312,1466.098,1915.312z"/>
				
					<linearGradient id="SVGID_00000078723843192622040820000005692640473713025183_" gradientUnits="userSpaceOnUse" x1="-2476.8152" y1="1937.6007" x2="-2534.1499" y2="1821.9424" gradientTransform="matrix(-1 0 0 1 -1035.4025 0)">
					<stop  offset="0" style="stop-color:#FEBBBA"/>
					<stop  offset="1" style="stop-color:#FF928E"/>
				</linearGradient>
				<path style="fill:url(#SVGID_00000078723843192622040820000005692640473713025183_);" d="M1483.564,1846.007l-19.91,16.878
					l-6.251,16.804l17.752,19.693c0,0,5.968-33.342,10.404-40.559C1489.996,1851.607,1487.695,1848.117,1483.564,1846.007z"/>
			</g>
			
				<linearGradient id="SVGID_00000044160755398837867260000003922394254086010259_" gradientUnits="userSpaceOnUse" x1="4836.0249" y1="8150.2207" x2="5186.9346" y2="7127.8589" gradientTransform="matrix(1 0 0 1 -6010.6846 0)">
				<stop  offset="0" style="stop-color:#FF928E"/>
				<stop  offset="1" style="stop-color:#FE7062"/>
			</linearGradient>
			<path style="fill:url(#SVGID_00000044160755398837867260000003922394254086010259_);" d="M936.221,2219.991l-43.709-110.344
				c0,0-106.442,72.323-123.947,164.02c20.112,1.481,56.71,6.713,92.532,24.801C868.969,2255.169,936.221,2219.991,936.221,2219.991
				z"/>
			
				<linearGradient id="SVGID_00000075128771280472512040000015880410609890381956_" gradientUnits="userSpaceOnUse" x1="6776.8232" y1="2344.8625" x2="7055.7397" y2="2344.8625" gradientTransform="matrix(1 0 0 1 -6010.6846 0)">
				<stop  offset="0" style="stop-color:#FEBBBA"/>
				<stop  offset="1" style="stop-color:#FF928E"/>
			</linearGradient>
			<path style="fill:url(#SVGID_00000075128771280472512040000015880410609890381956_);" d="M1029.239,2323.821
				c0,0-119.507,67.54-159.831,9.869c-8.372-11.975-10.374-23.876-8.311-35.222c-35.822-18.088-72.42-23.32-92.532-24.801
				c-5.278,27.644-2.487,57.045,13.757,86.76c70.633,129.208,262.733-7.141,262.733-7.141L1029.239,2323.821z"/>
			<g>
				
					<linearGradient id="SVGID_00000173131051556509026770000006945615745369312142_" gradientUnits="userSpaceOnUse" x1="7140.1221" y1="2146.5618" x2="7293.4883" y2="2785.5889" gradientTransform="matrix(1 0 0 1 -6010.6846 0)">
					<stop  offset="0" style="stop-color:#09005D"/>
					<stop  offset="1" style="stop-color:#1A0F91"/>
				</linearGradient>
				<path style="fill:url(#SVGID_00000173131051556509026770000006945615745369312142_);" d="M1014.88,2409.265l65.223-227.772
					c0.74-2.585,2.945-4.471,5.617-4.783c11.817-1.378,46.058-5.249,85.594-8.593c47.622-4.028,102.925-7.292,135.973-4.515
					c4.698,0.394,7.537,5.364,5.448,9.59c-18.793,38.02-96.094,192.677-134.804,243.34c-1.283,1.678-3.266,2.659-5.378,2.64
					l-151.327-1.408C1016.822,2417.723,1013.668,2413.499,1014.88,2409.265z"/>
				<path style="fill:#91B3FA;" d="M1178.08,2148.37l47.287-7.879c2.519-0.419,4.581,1.987,3.781,4.412l-4.681,14.185
					c-0.408,1.235-1.484,2.128-2.773,2.3l-45.505,6.079c-2.354,0.314-4.295-1.825-3.754-4.138l2.898-12.384
					C1175.645,2149.611,1176.729,2148.596,1178.08,2148.37z"/>
				<path style="fill:#7D97F4;" d="M1142.673,2188.403l3.896-20.292c0.391-2.035,2.071-3.573,4.132-3.782l95.51-9.692
					c3.215-0.326,5.789,2.62,5.035,5.761l-6.073,25.285c-0.486,2.023-2.247,3.484-4.325,3.589l-93.333,4.699
					C1144.477,2194.125,1142.1,2191.39,1142.673,2188.403z"/>
				
					<linearGradient id="SVGID_00000182501322308629807710000017491484420122134440_" gradientUnits="userSpaceOnUse" x1="7035.0313" y1="2315.6184" x2="7121.9248" y2="2315.6184" gradientTransform="matrix(1 0 0 1 -6010.6846 0)">
					<stop  offset="0" style="stop-color:#FEBBBA"/>
					<stop  offset="1" style="stop-color:#FF928E"/>
				</linearGradient>
				<path style="fill:url(#SVGID_00000182501322308629807710000017491484420122134440_);" d="M1030.638,2354.236
					c0,0-9.085-37.36-5.421-50.614c3.665-13.255,10.766-30.296,34.434-26.51c23.669,3.787,51.589,13.758,51.589,13.758
					s-1.41,17.265-19.399,11.695l11.155,8.631c0,0-1.594,13.823-16.789,6.438l10.375,11.447c0,0-6.525,11.353-17.705,4.072
					C1067.7,2325.87,1062.341,2358.735,1030.638,2354.236z"/>
			</g>
			<path style="fill:#FFFFFF;" d="M1115.566,2082.871l-56.296,123.32c-0.797,1.745-3.095,2.148-4.438,0.779l-104.755-106.825
				c-1.256-1.281-0.617-3.45,1.124-3.877c52.438-12.861,95.665-21.748,161.842-17.584
				C1115.109,2078.813,1116.425,2080.989,1115.566,2082.871z"/>
			
				<linearGradient id="SVGID_00000150812684989101913420000010074272361226235022_" gradientUnits="userSpaceOnUse" x1="6990.9927" y1="2046.6842" x2="7101.2666" y2="2046.6842" gradientTransform="matrix(1 0 0 1 -6010.6846 0)">
				<stop  offset="0" style="stop-color:#FEBBBA"/>
				<stop  offset="1" style="stop-color:#FF928E"/>
			</linearGradient>
			<path style="fill:url(#SVGID_00000150812684989101913420000010074272361226235022_);" d="M1016.778,1987.211l-36.259,104.86
				c-0.6,1.737,0.113,3.66,1.722,4.55c9.884,5.465,45.494,21.26,88.407-5.947c4.47-2.834,7.514-7.457,8.193-12.707l11.742-90.756
				H1016.778z"/>
			<g>
				
					<linearGradient id="SVGID_00000073001227108695156860000005954126738023244422_" gradientUnits="userSpaceOnUse" x1="-358.1612" y1="3406.4377" x2="-399.3694" y2="3270.5232" gradientTransform="matrix(0.746 -0.6659 0.6659 0.746 -884.3493 -803.1727)">
					<stop  offset="0" style="stop-color:#FEBBBA"/>
					<stop  offset="1" style="stop-color:#FF928E"/>
				</linearGradient>
				<path style="fill:url(#SVGID_00000073001227108695156860000005954126738023244422_);" d="M1095.673,1890.108
					c0,0,39.817,74.95,34.713,105.226c-5.104,30.276-54.45,28.102-97.541,3.513l-30.111-80.929L1095.673,1890.108z"/>
				
					<linearGradient id="SVGID_00000002367515452559968540000005451231560232601268_" gradientUnits="userSpaceOnUse" x1="-395.3394" y1="3169.6265" x2="-360.8688" y2="3366.2361" gradientTransform="matrix(0.746 -0.6659 0.6659 0.746 -884.3493 -803.1727)">
					<stop  offset="0" style="stop-color:#09005D"/>
					<stop  offset="1" style="stop-color:#1A0F91"/>
				</linearGradient>
				<path style="fill:url(#SVGID_00000002367515452559968540000005451231560232601268_);" d="M1034.75,1959.103
					c1.751-0.776,2.397-2.919,1.348-4.521c-3.19-4.874-9.17-14.815-11.078-23.52c0,0-7.158-4.585,18.218-10.658
					c25.376-6.074,63.217-15.502,71.172-37.101c7.755-21.059-12.621-74.019-45.129-31.821c-1.237,1.605-3.66,1.64-4.895,0.034
					c-5.329-6.936-19.34-21.332-38.791-12.605c-18.203,8.168-20.253,21.506-20.003,28.23c0.073,1.977-1.695,3.515-3.639,3.144
					c-9.203-1.755-31.288-3.263-41.596,19.393c-8.491,18.661-2.972,29.225,2.053,34.392c1.629,1.674,0.915,4.43-1.318,5.113
					c-6.048,1.852-13.859,6.981-13.077,21.151c1.081,19.591,22.984,17.865,29.22,16.972c1.023-0.146,2.052,0.204,2.744,0.969
					c5.347,5.918,29.438,31.043,55.513,34.072c2.258,0.262,4.008-1.967,3.268-4.117l-11.284-32.802
					c-0.524-1.523,0.205-3.194,1.677-3.847L1034.75,1959.103z"/>
				
					<linearGradient id="SVGID_00000110435201187271437230000005891666602713835405_" gradientUnits="userSpaceOnUse" x1="-400.2859" y1="3405.8049" x2="-437.3616" y2="3283.5203" gradientTransform="matrix(0.746 -0.6659 0.6659 0.746 -884.3493 -803.1727)">
					<stop  offset="0" style="stop-color:#FEBBBA"/>
					<stop  offset="1" style="stop-color:#FF928E"/>
				</linearGradient>
				<path style="fill:url(#SVGID_00000110435201187271437230000005891666602713835405_);" d="M1039.286,1963.759
					c0,0-28.349-19.451-30.421-3.071c-2.071,16.38,25.529,23.726,39.2,17.619L1039.286,1963.759z"/>
			</g>
			<path style="fill:#FFFFFF;" d="M1080.232,2070.816c-12.597,12.304-24.009,26.643-38.039,34.073
				c-0.96,0.731-2.259,0.837-3.325,0.266c-20.525-9.583-44.445-20.51-53.393-27.591l-23.057,16.871l78.898,24.025l69.695-35.43
				c1.637-0.832,1.147-3.291-0.684-3.432L1080.232,2070.816z"/>
			
				<linearGradient id="SVGID_00000114762174285971627570000006081535736322035098_" gradientUnits="userSpaceOnUse" x1="-2091.7449" y1="2090.2168" x2="-2092.8809" y2="2129.0278" gradientTransform="matrix(-1 0 0 1 -1054.4175 0)">
				<stop  offset="0" style="stop-color:#09005D"/>
				<stop  offset="1" style="stop-color:#1A0F91"/>
			</linearGradient>
			<path style="fill:url(#SVGID_00000114762174285971627570000006081535736322035098_);" d="M1061.674,2089.374l-4.679,44.352
				l-22.872,3.734l-21.093-44.712C1036.603,2099.983,1049.359,2093.695,1061.674,2089.374z"/>
			
				<linearGradient id="SVGID_00000101062363095433687990000007741001404151458489_" gradientUnits="userSpaceOnUse" x1="-2097.8594" y1="2135.5178" x2="-2116.4834" y2="2205.0696" gradientTransform="matrix(-1 0 0 1 -1054.4175 0)">
				<stop  offset="0" style="stop-color:#09005D"/>
				<stop  offset="1" style="stop-color:#1A0F91"/>
			</linearGradient>
			<path style="fill:url(#SVGID_00000101062363095433687990000007741001404151458489_);" d="M1079.107,2164.448l-22.112-30.723
				l-22.872,3.734l-6.768,42.243l27.877,28.526c1.079,1.104,2.93,0.792,3.586-0.606L1079.107,2164.448z"/>
		</g>
	</g>
</g>
</svg>
