<?xml version="1.0" encoding="utf-8"?>
<!-- Generator: Adobe Illustrator 27.5.0, SVG Export Plug-In . SVG Version: 6.00 Build 0)  -->
<svg version="1.1" xmlns="http://www.w3.org/2000/svg" xmlns:xlink="http://www.w3.org/1999/xlink" x="0px" y="0px"
	 viewBox="0 0 500 500" style="enable-background:new 0 0 500 500;" xml:space="preserve">
<g id="BACKGROUND">
	<rect style="fill:#FFFFFF;" width="500" height="500"/>
</g>
<g id="OBJECT">
	<path style="fill:#F7F7F7;" d="M69.804,297.721c72.796,95.1,172.442,107.712,248.37,83.029
		c75.927-24.682,135.87-71.596,142.863-138.2c6.993-66.604-3.754-134.539-97.286-147.526c-93.531-12.988-135.536,29.44-206.484,0
		C75.406,61.056-11.726,191.211,69.804,297.721z"/>
	<g>
		<defs>
			<path id="SVGID_1_" d="M69.804,297.721c72.796,95.1,172.442,107.712,248.37,83.029c75.927-24.682,135.87-71.596,142.863-138.2
				c6.993-66.604-3.754-134.539-97.286-147.526c-93.531-12.988-135.536,29.44-206.484,0
				C75.406,61.056-11.726,191.211,69.804,297.721z"/>
		</defs>
		<clipPath id="SVGID_00000045593467499444433630000003721903944481662094_">
			<use xlink:href="#SVGID_1_"  style="overflow:visible;"/>
		</clipPath>
		<path style="opacity:0.25;clip-path:url(#SVGID_00000045593467499444433630000003721903944481662094_);fill:#DADADA;" d="
			M418.276,366.856c-71.227-51.88-140.978,1.844-186.179-16.593c-45.201-18.437-109.013-33.186-143.94-11.984
			s-10.966,59.919-10.966,59.919s126.36,35.951,154.905,35.03c28.546-0.922,137.214-4.609,137.214-4.609l37.84-21.202
			L418.276,366.856z"/>
		<g style="clip-path:url(#SVGID_00000045593467499444433630000003721903944481662094_);">
			<path style="fill:#F7B274;" d="M211.817,243.86c0.715,10.328,9.212,18.625,19.558,19.112c7.667,0.361,14.459-3.462,18.299-9.384
				c0.881-1.356,2.163-2.363,3.633-2.935v63.011h-63.548c0.137,2.466,1.39,4.766,3.473,6.117c5.922,3.839,9.745,10.631,9.384,18.299
				c-0.486,10.345-8.778,18.842-19.111,19.558c-12.045,0.83-22.075-8.692-22.075-20.553c0-7.244,3.736-13.618,9.39-17.292
				c2.094-1.362,3.399-3.645,3.49-6.128h-63.543V250.91c-1.23,0.595-2.295,1.511-3.056,2.684
				c-3.839,5.922-10.631,9.745-18.299,9.384c-10.345-0.486-18.842-8.783-19.558-19.112c-0.835-12.045,8.686-22.075,20.553-22.075
				c7.244,0,13.618,3.736,17.292,9.384c0.772,1.184,1.837,2.117,3.067,2.718v-62.77h63.554v1.333c0,2.598-1.322,5.012-3.502,6.432
				c-5.653,3.679-9.39,10.048-9.39,17.292c0,11.867,10.031,21.389,22.075,20.553c10.334-0.715,18.625-9.212,19.111-19.558
				c0.361-7.662-3.462-14.46-9.384-18.299c-2.209-1.436-3.49-3.937-3.49-6.575v-1.179h63.566v63.028
				c-1.471-0.578-2.752-1.608-3.645-2.975c-3.679-5.653-10.048-9.39-17.292-9.39C220.503,221.785,210.982,231.815,211.817,243.86z"
				/>
			<path style="fill:#E93E4D;" d="M458.095,243.866c-0.715,10.328-9.212,18.625-19.558,19.112
				c-7.662,0.361-14.459-3.462-18.299-9.384c-1.431-2.209-3.937-3.49-6.574-3.49h-0.858v63.56h-63.028
				c0.578-1.471,1.608-2.752,2.975-3.645c5.653-3.679,9.39-10.048,9.39-17.292c0-11.867-10.031-21.389-22.076-20.553
				c-10.328,0.715-18.625,9.212-19.111,19.558c-0.361,7.667,3.462,14.459,9.384,18.299c1.356,0.881,2.363,2.163,2.935,3.634h-63.01
				v-63.497c-2.249,0.286-4.309,1.505-5.55,3.428c-3.839,5.922-10.637,9.745-18.299,9.384c-10.345-0.486-18.843-8.783-19.558-19.112
				c-0.835-12.045,8.686-22.075,20.553-22.075c7.244,0,13.612,3.736,17.292,9.384c1.253,1.934,3.296,3.199,5.562,3.456v-63.508
				h63.411c-0.401-2.031-1.574-3.857-3.336-4.995c-5.922-3.84-9.745-10.637-9.384-18.299c0.486-10.345,8.783-18.842,19.111-19.558
				c12.045-0.835,22.076,8.686,22.076,20.553c0,7.238-3.737,13.613-9.39,17.286c-1.774,1.156-2.981,2.97-3.364,5.013h63.417v63.56
				h1.013c2.603,0,5.012-1.327,6.431-3.507c3.679-5.648,10.048-9.384,17.292-9.384C449.409,221.79,458.931,231.821,458.095,243.866z
				"/>
			<g>
				<path style="fill:#0F3842;" d="M395.447,161.345c0.062,0.213,2.243,7.047,2.42,15.131c0,0.009,0,0.009,0,0.009
					c0.248,10.682-3.005,23.553-19.227,26.221c-28.703,4.716-39.331-35.493-39.331-35.493c-3.626-6.932-2.748-15.468,1.87-22.48
					l0.009-0.009c5.895-8.971,17.897-15.477,34.367-13.022c29.35,4.37,10.788,14.484,10.788,14.484s16.018,4.804,20.016,12.091
					C410.295,165.431,395.935,161.478,395.447,161.345z"/>
				<path style="opacity:0.16;fill:#082228;" d="M378.641,202.706c-28.703,4.716-39.331-35.493-39.331-35.493
					c-3.626-6.932-2.748-15.468,1.87-22.48l0.009-0.009c1.684,11.027,28.96,2.597,37.452,16.612
					c7.88,13.004,16.559,21.54,19.227,15.149C398.115,187.166,394.862,200.037,378.641,202.706z"/>
				<polygon style="fill:#F78858;" points="373.634,187.34 381.909,207.564 366.148,218.071 360.296,201.703 				"/>
				<path style="fill:#EA6C51;" d="M364.092,212.321c8.674-8.972,11.46-20.292,11.46-20.292l-1.918-4.689l-13.338,14.364
					L364.092,212.321z"/>
				<path style="fill:#F78858;" d="M345.103,161.337c-8.198,10.657-8.471,27.598-8.471,31.697c0,4.099,8.471,2.732,8.471,2.732
					s1.096,14.809,4.1,17.268c3.004,2.459,21.312-10.437,23.498-15.629c2.186-5.192,0.933-10.066,0.933-10.066
					s3.712-0.318,4.806-6.876c1.093-6.558-2.459-9.291-5.192-8.744c-2.733,0.546-4.919,10.657-4.919,10.657l-1.913-16.668
					L345.103,161.337z"/>
				<path style="fill:#0F3842;" d="M346.937,175.442c0,1.598,0.507,2.894,1.133,2.894c0.626,0,1.133-1.296,1.133-2.894
					c0-1.599-0.507-2.895-1.133-2.895C347.444,172.548,346.937,173.844,346.937,175.442z"/>
				<path style="fill:#EA6C51;" d="M370.937,182.446c1.104-4.908,2.945-6.135,3.927-3.559c0.982,2.577-0.613,5.031-1.963,6.258
					L370.937,182.446z"/>
				<path style="fill:#FFFFFF;" d="M350.476,198.9c4.251-1.417,9.403-5.668,9.403-5.668s1.417,8.373-8.372,11.335L350.476,198.9z"/>
				<path style="fill:#0F3842;" d="M345.103,161.337c2.967,11.211,19.76,16.747,17.576,11.211c-2.184-5.536-5.041-8.64-5.041-8.64
					s9.046,14.904,11.958,8.64s-1.671-14.273-1.671-14.273L345.103,161.337z"/>
				<path style="opacity:0.16;fill:#082228;" d="M345.103,161.337c2.967,11.211,19.76,16.747,17.576,11.211
					c-2.184-5.536-5.041-8.64-5.041-8.64s9.046,14.904,11.958,8.64s-1.671-14.273-1.671-14.273L345.103,161.337z"/>
			</g>
			<g>
				<polygon style="fill:#F78858;" points="143.929,187.34 135.654,207.564 151.415,218.071 157.267,201.703 				"/>
				<path style="fill:#EA6C51;" d="M153.471,212.321c-8.674-8.972-11.46-20.292-11.46-20.292l1.919-4.689l13.338,14.364
					L153.471,212.321z"/>
				<path style="fill:#84393B;" d="M174.778,155.654c0,0,18.713,8.058,14.963,15.468c-3.75,7.419-19.918,5.354-32.479-7.029
					l-3.324,15.725c0,0-8.058,25.343-16.293,22.888c-8.244-2.455-28.712-33.312-22.081-47.291c0.23-0.496,0.479-0.966,0.745-1.427
					c6.941-12.49,21.044-11.834,21.044-11.834s-5.682-13.5,1.569-12.552c7.251,0.948,7.703,3.785,7.703,3.785
					s26.735-13.97,29.341-5.168c2.606,8.802-8.882,14.644-8.882,14.644s24.749-0.948,23.154,5.921
					C188.642,155.654,174.778,155.654,174.778,155.654z"/>
				<path style="opacity:0.16;fill:#082228;" d="M157.262,164.093l-3.324,15.725c0,0-8.058,25.343-16.293,22.888
					c-8.244-2.455-28.712-33.312-22.081-47.291c0.23-0.496,0.479-0.966,0.745-1.427c1.4,6.232,3.847,14.369,13.997,13.226
					C143.478,165.724,144.861,155.92,157.262,164.093z"/>
				<path style="fill:#F78858;" d="M172.46,161.337c8.198,10.657,8.471,27.598,8.471,31.697c0,4.099-8.471,2.732-8.471,2.732
					s-1.096,14.809-4.1,17.268c-3.004,2.459-21.312-10.437-23.498-15.629c-2.186-5.192-0.933-10.066-0.933-10.066
					s-3.712-0.318-4.805-6.876c-1.093-6.558,2.459-9.291,5.192-8.744c2.732,0.546,4.918,10.657,4.918,10.657l1.913-16.668
					L172.46,161.337z"/>
				<path style="fill:#0F3842;" d="M170.626,175.442c0,1.598-0.507,2.894-1.133,2.894c-0.626,0-1.133-1.296-1.133-2.894
					c0-1.599,0.507-2.895,1.133-2.895C170.119,172.548,170.626,173.844,170.626,175.442z"/>
				<path style="fill:#EA6C51;" d="M146.626,182.446c-1.104-4.908-2.945-6.135-3.927-3.559c-0.982,2.577,0.614,5.031,1.963,6.258
					L146.626,182.446z"/>
				<path style="fill:#FFFFFF;" d="M167.086,198.9c-4.251-1.417-9.403-5.668-9.403-5.668s-1.417,8.373,8.373,11.335L167.086,198.9z"
					/>
			</g>
			<polygon style="fill:#082228;" points="363.873,356.068 363.873,405.057 449.543,395.796 435.106,356.068 			"/>
			<path style="fill:#F7B274;" d="M435.106,356.068h-71.234c-0.567-13.004,0.957-54.799,2.296-86.676
				c0.922-21.904,1.755-39.118,1.755-39.118l-6.276-12.171c0,0,13.359-13.084,23.854-15.371l9.219,15.371
				c15.247,20.84,29.891,85.505,36.592,118.366C433.723,348.347,435.106,356.068,435.106,356.068z"/>
			<path style="opacity:0.37;fill:#EA3D4F;" d="M435.106,356.068h-71.234c-0.567-13.004,0.957-54.799,2.296-86.676
				c7.756,2.012,17.02,0.7,18.42-16.071c2.464-29.554,18.216,11.08,18.216,11.08c9.866,36.211,0.505,62.325-17.72,65.277
				c-17.17,2.792,24.297,27.444,46.228,6.79C433.723,348.347,435.106,356.068,435.106,356.068z"/>
			<path style="fill:#F78858;" d="M301.879,282.313c-5.431-1.402-9.461-10.337-13.14-11.213c-3.679-0.876-7.646-0.431-11.372-3.01
				c-3.726-2.579-3.057,3.439-1.051,4.776c2.006,1.337,5.159,3.821,7.452,4.108c0,0-20.044-0.733-21.926-0.733
				c-1.882,0-3.186,2.52,0,3.794c3.185,1.274,10.281,2.278,10.281,2.278s-13.756-1.583-14.335,0.589
				c-0.579,2.172,0.145,3.91,4.489,4.199c4.344,0.29,9.991,0,9.991,0s-11.439,0.164-11.584,2.833
				c-0.145,2.669,11.584,2.814,11.584,2.814s-7.24-0.145-7.095,2.462c0.145,2.606,9.846,2.751,15.493,2.606
				c5.647-0.145,19.777,1.193,19.777,1.193l2.088-15.777L301.879,282.313z"/>
			<polygon style="fill:#082228;" points="309.062,282.823 299.339,280.195 294.695,299.993 306.259,299.993 			"/>
			<path style="fill:#F7B274;" d="M374.634,241.093c1.631-10.834,20.899-11.827,25.629,0s2.141,53.616-1.886,66.231
				c-4.027,12.616-12.507,11.433-38.426,6.308c-25.919-5.125-60.612-11.433-60.612-11.433l7.885-22.828l60.7,3.116
				C367.924,282.488,373.447,248.978,374.634,241.093z"/>
			<polygon style="fill:#082228;" points="153.114,356.068 153.114,409.071 77.094,378.084 80.967,341.933 			"/>
			<path style="fill:#932BBA;" d="M150.73,267.309c1.347,32.115,2.961,75.471,2.384,88.759H81.88c0,0,3.342-18.677,8.731-42.602
				c7.668-34.039,19.466-78.707,31.655-95.363l9.219-15.371c10.495,2.287,23.854,15.371,23.854,15.371l-6.276,12.171
				C149.063,230.274,149.843,246.416,150.73,267.309z"/>
			<path style="opacity:0.58;fill:#5F217C;" d="M153.114,356.068H81.88c0,0,3.342-18.677,8.731-42.602
				c1.959,8.262,5.629,17.028,12.472,21.398c15.06,9.618,33.153-3.688,18.943-9.476c-14.21-5.788-15.256-27.355-7.765-64.196
				c0,0,12.499-38.409,18.819-13.305c2.996,11.914,10.549,17.179,17.649,19.422C152.077,299.424,153.69,342.78,153.114,356.068z"/>
			<path style="fill:#F78858;" d="M215.107,282.313c5.431-1.402,9.461-10.337,13.141-11.213c3.679-0.876,7.646-0.431,11.372-3.01
				c3.726-2.579,3.057,3.439,1.051,4.776c-2.006,1.337-5.159,3.821-7.451,4.108c0,0,20.044-0.733,21.926-0.733
				c1.882,0,3.186,2.52,0,3.794c-3.186,1.274-10.281,2.278-10.281,2.278s13.756-1.583,14.335,0.589s-0.145,3.91-4.489,4.199
				c-4.344,0.29-9.991,0-9.991,0s11.439,0.164,11.584,2.833s-11.584,2.814-11.584,2.814s7.24-0.145,7.095,2.462
				c-0.145,2.606-9.846,2.751-15.493,2.606c-5.647-0.145-19.777,1.193-19.777,1.193l-2.088-15.777L215.107,282.313z"/>
			<polygon style="fill:#082228;" points="207.923,282.823 217.646,280.195 222.29,299.993 210.727,299.993 			"/>
			<path style="fill:#932BBA;" d="M142.352,241.093c-1.631-10.834-20.899-11.827-25.629,0c-4.731,11.827-2.141,53.616,1.886,66.231
				c4.027,12.616,12.507,11.433,38.426,6.308c25.919-5.125,60.611-11.433,60.611-11.433l-7.885-22.828l-60.7,3.116
				C149.062,282.488,143.539,248.978,142.352,241.093z"/>
			<path style="fill:#84393B;" d="M157.267,164.09c11.368,12.772,16.369,11.264,22.404,11.352
				c6.035,0.089-8.281-16.473-8.281-16.473l-6.877,3.088L157.267,164.09z"/>
		</g>
	</g>
	<text transform="matrix(1 0 0 1 170.6109 463.5153)" style="font-family:'Poppins-Light'; font-size:23.8017px;">Teamwork</text>
	<g>
		<g>
			<polygon style="fill:#DADADA;" points="142.401,107.415 79.815,107.415 79.815,99.578 134.131,99.578 142.401,99.578 			"/>
			
				<ellipse transform="matrix(0.2313 -0.9729 0.9729 0.2313 -9.505 170.826)" style="fill:#DADADA;" cx="103.344" cy="91.428" rx="15.306" ry="15.306"/>
			<circle style="fill:#DADADA;" cx="122.417" cy="93.424" r="10.032"/>
			<circle style="fill:#DADADA;" cx="92.047" cy="99.578" r="7.837"/>
			<path style="fill:#DADADA;" d="M85.975,101.255c0,3.402-2.758,6.16-6.16,6.16c-3.402,0-6.16-2.758-6.16-6.16
				c0-3.402,2.758-6.16,6.16-6.16C83.217,95.096,85.975,97.853,85.975,101.255z"/>
			<path style="fill:#DADADA;" d="M138.115,97.883c0,2.347-1.902,4.249-4.249,4.249c-2.347,0-4.249-1.902-4.249-4.249
				c0-2.347,1.903-4.249,4.249-4.249C136.212,93.634,138.115,95.536,138.115,97.883z"/>
			<circle style="fill:#DADADA;" cx="142.401" cy="100.868" r="6.547"/>
		</g>
	</g>
	<g>
		<g>
			<polygon style="fill:#DADADA;" points="285.18,146.518 222.594,146.518 222.594,138.681 276.91,138.681 285.18,138.681 			"/>
			
				<ellipse transform="matrix(0.9696 -0.2446 0.2446 0.9696 -24.4527 64.1709)" style="fill:#DADADA;" cx="246.123" cy="130.531" rx="15.306" ry="15.306"/>
			<circle style="fill:#DADADA;" cx="265.196" cy="132.527" r="10.032"/>
			<circle style="fill:#DADADA;" cx="234.826" cy="138.681" r="7.837"/>
			<path style="fill:#DADADA;" d="M228.753,140.358c0,3.402-2.758,6.16-6.16,6.16c-3.402,0-6.16-2.758-6.16-6.16
				c0-3.402,2.758-6.16,6.16-6.16C225.996,134.199,228.753,136.957,228.753,140.358z"/>
			<path style="fill:#DADADA;" d="M280.894,136.986c0,2.347-1.902,4.249-4.249,4.249c-2.347,0-4.249-1.902-4.249-4.249
				c0-2.347,1.902-4.249,4.249-4.249C278.991,132.737,280.894,134.639,280.894,136.986z"/>
			<circle style="fill:#DADADA;" cx="285.18" cy="139.971" r="6.547"/>
		</g>
	</g>
	<g>
		<g>
			<polygon style="fill:#DADADA;" points="349.639,87.102 287.053,87.102 287.053,79.265 341.369,79.265 349.639,79.265 			"/>
			
				<ellipse transform="matrix(0.7071 -0.7071 0.7071 0.7071 40.6818 240.4438)" style="fill:#DADADA;" cx="310.582" cy="71.115" rx="15.306" ry="15.306"/>
			
				<ellipse transform="matrix(0.978 -0.2084 0.2084 0.978 -7.9983 70.2972)" style="fill:#DADADA;" cx="329.655" cy="73.111" rx="10.032" ry="10.032"/>
			
				<ellipse transform="matrix(0.1606 -0.987 0.987 0.1606 172.9919 361.9388)" style="fill:#DADADA;" cx="299.285" cy="79.265" rx="7.837" ry="7.837"/>
			<path style="fill:#DADADA;" d="M293.213,80.942c0,3.402-2.758,6.16-6.16,6.16c-3.402,0-6.159-2.758-6.159-6.16
				c0-3.402,2.758-6.16,6.159-6.16C290.455,74.783,293.213,77.54,293.213,80.942z"/>
			<path style="fill:#DADADA;" d="M345.353,77.57c0,2.347-1.902,4.249-4.249,4.249c-2.347,0-4.249-1.903-4.249-4.249
				c0-2.347,1.902-4.249,4.249-4.249C343.451,73.321,345.353,75.223,345.353,77.57z"/>
			<path style="fill:#DADADA;" d="M356.186,80.554c0,3.616-2.931,6.547-6.547,6.547c-3.616,0-6.547-2.931-6.547-6.547
				c0-3.616,2.931-6.547,6.547-6.547C353.255,74.007,356.186,76.939,356.186,80.554z"/>
		</g>
	</g>
	<g>
		<path style="fill:#E93E4D;" d="M49.712,149.564c30.231-10.986,41.869,10.376,40.189,22.41
			c-1.68,12.034,12.908,10.572,12.908,10.572s-24.71,17.904-49.492,8.758C28.535,182.158,31.901,156.036,49.712,149.564z"/>
		<circle style="fill:#FFFFFF;" cx="47.245" cy="170.212" r="1.317"/>
		<path style="fill:#FFFFFF;" d="M61.007,170.212c0,0.728-0.59,1.317-1.317,1.317s-1.317-0.59-1.317-1.317s0.59-1.317,1.317-1.317
			S61.007,169.484,61.007,170.212z"/>
		<circle style="fill:#FFFFFF;" cx="72.135" cy="170.212" r="1.317"/>
	</g>
	<g>
		<path style="fill:#F7B274;" d="M390.548,84.22c-30.178,6.854-22.346,36.49,4.249,38.842c3.76,0.332,15.083-0.681,15.083-0.681
			s-2.112,15.273-10.833,14.606c0,0,15.673,1.508,20.573-14.606c0,0,21.959-7.527,18.985-23.341
			C435.082,80.306,404.903,80.959,390.548,84.22z"/>
		<path style="fill:#FFFFFF;" d="M394.869,101.816c0,0.728-0.59,1.317-1.317,1.317c-0.728,0-1.318-0.59-1.318-1.317
			s0.59-1.317,1.318-1.317C394.279,100.499,394.869,101.089,394.869,101.816z"/>
		<circle style="fill:#FFFFFF;" cx="405.997" cy="101.816" r="1.317"/>
		<path style="fill:#FFFFFF;" d="M419.76,101.816c0,0.728-0.59,1.317-1.317,1.317s-1.318-0.59-1.318-1.317s0.59-1.317,1.318-1.317
			S419.76,101.089,419.76,101.816z"/>
	</g>
	<g>
		<path style="fill:#DADADA;" d="M324.094,375.952v-4.682c0-1.608-1.303-2.911-2.911-2.911h-4.508c-1.313,0-2.452-0.883-2.8-2.149
			c-0.614-2.233-1.499-4.356-2.619-6.327c-0.65-1.143-0.471-2.574,0.459-3.504l3.187-3.187c1.137-1.137,1.137-2.98,0-4.117
			l-3.312-3.312c-1.137-1.137-2.98-1.137-4.117,0l-3.187,3.187c-0.93,0.93-2.36,1.109-3.504,0.459
			c-1.971-1.12-4.093-2.006-6.327-2.619c-1.266-0.348-2.149-1.487-2.149-2.8v-4.508c0-1.608-1.303-2.911-2.911-2.911h-4.682
			c-1.608,0-2.911,1.303-2.911,2.911v4.508c0,1.313-0.883,2.452-2.149,2.8c-2.233,0.614-4.356,1.499-6.327,2.619
			c-1.143,0.65-2.574,0.471-3.504-0.459l-3.187-3.187c-1.137-1.137-2.98-1.137-4.117,0l-3.312,3.312
			c-1.137,1.137-1.137,2.98,0,4.117l3.187,3.187c0.93,0.93,1.109,2.36,0.459,3.504c-1.12,1.971-2.005,4.094-2.619,6.327
			c-0.348,1.266-1.487,2.149-2.8,2.149h-4.508c-1.608,0-2.911,1.303-2.911,2.911v4.682c0,1.608,1.303,2.911,2.911,2.911h4.508
			c1.313,0,2.452,0.883,2.8,2.149c0.614,2.233,1.499,4.356,2.619,6.327c0.65,1.143,0.471,2.574-0.459,3.504l-3.187,3.187
			c-1.137,1.137-1.137,2.98,0,4.117l3.312,3.312c1.137,1.137,2.98,1.137,4.117,0l3.187-3.187c0.93-0.93,2.36-1.109,3.504-0.459
			c1.971,1.12,4.094,2.005,6.327,2.619c1.266,0.348,2.149,1.487,2.149,2.8v4.507c0,1.608,1.303,2.911,2.911,2.911h4.682
			c1.608,0,2.911-1.303,2.911-2.911v-4.507c0-1.313,0.883-2.452,2.149-2.8c2.233-0.614,4.356-1.499,6.327-2.619
			c1.143-0.65,2.574-0.471,3.504,0.459l3.187,3.187c1.137,1.137,2.98,1.137,4.117,0l3.312-3.312c1.137-1.137,1.137-2.98,0-4.117
			l-3.187-3.187c-0.93-0.93-1.109-2.36-0.459-3.504c1.12-1.971,2.005-4.094,2.619-6.327c0.348-1.266,1.487-2.149,2.8-2.149h4.508
			C322.79,378.863,324.094,377.56,324.094,375.952z M287.048,387.47c-7.647,0-13.854-6.207-13.854-13.854
			c0-7.658,6.207-13.865,13.854-13.865c7.658,0,13.865,6.207,13.865,13.865C300.913,381.263,294.706,387.47,287.048,387.47z"/>
	</g>
	<g>
		<path style="fill:#DADADA;" d="M221.688,93.942v-1.774c0-0.609-0.494-1.103-1.103-1.103h-1.708c-0.497,0-0.929-0.335-1.061-0.814
			c-0.233-0.846-0.568-1.651-0.993-2.397c-0.246-0.433-0.178-0.975,0.174-1.328l1.207-1.208c0.431-0.431,0.431-1.129,0-1.56
			l-1.255-1.255c-0.431-0.431-1.129-0.431-1.56,0l-1.208,1.208c-0.352,0.352-0.894,0.42-1.328,0.174
			c-0.747-0.424-1.551-0.76-2.398-0.993c-0.48-0.132-0.814-0.564-0.814-1.061v-1.708c0-0.609-0.494-1.103-1.103-1.103h-1.774
			c-0.609,0-1.103,0.494-1.103,1.103v1.708c0,0.498-0.335,0.929-0.814,1.061c-0.846,0.233-1.651,0.568-2.398,0.993
			c-0.433,0.246-0.975,0.178-1.328-0.174l-1.208-1.208c-0.431-0.431-1.129-0.431-1.56,0l-1.255,1.255
			c-0.431,0.431-0.431,1.129,0,1.56l1.208,1.208c0.352,0.352,0.42,0.894,0.174,1.328c-0.424,0.747-0.76,1.551-0.993,2.398
			c-0.132,0.48-0.564,0.814-1.061,0.814h-1.708c-0.609,0-1.103,0.494-1.103,1.103v1.774c0,0.609,0.494,1.103,1.103,1.103h1.708
			c0.498,0,0.929,0.335,1.061,0.814c0.233,0.846,0.568,1.651,0.993,2.397c0.246,0.433,0.178,0.975-0.174,1.328l-1.208,1.208
			c-0.431,0.431-0.431,1.129,0,1.56l1.255,1.255c0.431,0.431,1.129,0.431,1.56,0l1.208-1.208c0.352-0.352,0.895-0.42,1.328-0.174
			c0.747,0.424,1.551,0.76,2.398,0.993c0.48,0.132,0.814,0.564,0.814,1.061v1.708c0,0.609,0.494,1.103,1.103,1.103h1.774
			c0.609,0,1.103-0.494,1.103-1.103v-1.708c0-0.498,0.335-0.929,0.814-1.061c0.846-0.233,1.651-0.568,2.398-0.993
			c0.433-0.246,0.975-0.178,1.328,0.174l1.208,1.208c0.431,0.431,1.129,0.431,1.56,0l1.255-1.255c0.431-0.431,0.431-1.129,0-1.56
			l-1.207-1.208c-0.352-0.352-0.42-0.895-0.174-1.328c0.424-0.747,0.76-1.551,0.993-2.398c0.132-0.48,0.564-0.814,1.061-0.814h1.708
			C221.194,95.045,221.688,94.551,221.688,93.942z M207.649,98.307c-2.898,0-5.25-2.352-5.25-5.25c0-2.902,2.352-5.254,5.25-5.254
			c2.902,0,5.254,2.352,5.254,5.254C212.904,95.954,210.551,98.307,207.649,98.307z"/>
	</g>
	<g>
		
			<ellipse transform="matrix(0.1588 -0.9873 0.9873 0.1588 -174.8052 516.8023)" style="fill:#E93E4D;" cx="215.886" cy="360.987" rx="3.255" ry="3.255"/>
		<circle style="fill:#E93E4D;" cx="318.346" cy="122.496" r="3.255"/>
		<circle style="fill:#E93E4D;" cx="193.615" cy="125.751" r="3.255"/>
		<circle style="fill:#E93E4D;" cx="61.007" cy="217.412" r="3.255"/>
		<path style="fill:#E93E4D;" d="M233.143,342.862c0,0.6-0.486,1.086-1.086,1.086c-0.6,0-1.086-0.486-1.086-1.086
			c0-0.6,0.486-1.086,1.086-1.086C232.656,341.776,233.143,342.262,233.143,342.862z"/>
		<path style="fill:#E93E4D;" d="M337.941,349.056c0,0.6-0.486,1.086-1.086,1.086s-1.086-0.486-1.086-1.086
			c0-0.6,0.486-1.086,1.086-1.086S337.941,348.456,337.941,349.056z"/>
		<path style="fill:#E93E4D;" d="M233.143,115.225c0,0.6-0.486,1.086-1.086,1.086c-0.6,0-1.086-0.486-1.086-1.086
			c0-0.6,0.486-1.086,1.086-1.086C232.656,114.138,233.143,114.625,233.143,115.225z"/>
		<path style="fill:#E93E4D;" d="M425.536,201.891c0,0.6-0.486,1.086-1.086,1.086c-0.6,0-1.086-0.486-1.086-1.086
			c0-0.6,0.486-1.086,1.086-1.086C425.05,200.805,425.536,201.291,425.536,201.891z"/>
	</g>
</g>
</svg>
