<?xml version="1.0" encoding="utf-8"?>
<!-- Generator: Adobe Illustrator 27.5.0, SVG Export Plug-In . SVG Version: 6.00 Build 0)  -->
<svg version="1.1" xmlns="http://www.w3.org/2000/svg" xmlns:xlink="http://www.w3.org/1999/xlink" x="0px" y="0px"
	 viewBox="0 0 3710 3710" style="enable-background:new 0 0 3710 3710;" xml:space="preserve">
<g id="Background">
	<g>
		<g>
			<rect style="fill:#FFFFFF;" width="3710" height="3710"/>
		</g>
	</g>
</g>
<g id="Illustration">
	<g>
		<linearGradient id="SVGID_1_" gradientUnits="userSpaceOnUse" x1="3598.4551" y1="4018.1055" x2="1150.474" y2="977.8666">
			<stop  offset="0" style="stop-color:#DAE3FE"/>
			<stop  offset="1" style="stop-color:#E9EFFD"/>
		</linearGradient>
		<path style="fill:url(#SVGID_1_);" d="M2925,2819.145c-56.229,59.196-109.433,97.37-151.468,127.531
			c-494.114,354.532-1078.781,251.188-1203.04,225.95c-183.491-37.268-538.174-109.306-794.604-410.862
			c-387.957-456.229-327.546-1175.006-26.621-1649.48c55.044-86.789,345.802-568.491,936.767-645.741
			c357.646-46.751,774.546,47.54,1076.453,300.478C3396.219,1297.962,3351.104,2370.556,2925,2819.145z"/>
		<g>
			
				<ellipse transform="matrix(0.0439 -0.999 0.999 0.0439 -91.022 3697.281)" style="fill:#91B3FA;" cx="1886.066" cy="1896.193" rx="1177.333" ry="1270.816"/>
			<ellipse style="opacity:0.1;fill:#FFFFFF;" cx="1817.287" cy="1811.25" rx="997.196" ry="942.032"/>
			<g style="opacity:0.68;">
				<path style="fill:#FFFFFF;" d="M2210.717,1901.88c-0.305,207.649-14.546,415.722-51.139,620.43
					c-9.265,51.135-20.004,102.025-32.801,152.432c-12.835,50.387-27.655,100.336-45.799,149.173
					c-18.296,48.709-39.532,96.718-68.328,140.595c-14.511,21.779-30.97,42.646-51.282,59.813
					c-10.153,8.528-21.303,16.092-33.567,21.633c-12.239,5.505-25.615,8.99-39.191,9.232c-13.558,0.396-27.136-2.257-39.617-7.284
					c-12.529-4.978-23.95-12.2-34.348-20.447c-20.797-16.632-37.618-37.27-52.389-58.877
					c-29.307-43.565-50.831-91.477-69.318-140.109c-18.374-48.753-33.339-98.663-46.286-149.019
					c-12.924-50.373-23.772-101.24-33.113-152.359c-18.642-102.259-31.357-205.501-39.936-309.028
					c-8.518-103.543-12.788-207.417-13.313-311.307c-0.255-51.938,1.162-103.867,3.008-155.765
					c1.945-51.896,4.803-103.759,8.624-155.552c7.682-103.572,19.156-206.915,36.214-309.407
					c8.559-51.235,18.538-102.252,30.542-152.819c12.034-50.55,26.02-100.698,43.368-149.759
					c8.719-24.508,18.253-48.754,29.125-72.43c10.856-23.671,23.004-46.825,37.282-68.716
					c14.311-21.795,30.762-42.599,51.247-59.252c10.241-8.254,21.524-15.436,33.886-20.301c12.312-4.928,25.671-7.424,38.96-6.919
					c13.296,0.378,26.404,3.694,38.499,9.02c12.111,5.352,23.239,12.63,33.456,20.88c20.434,16.605,37.347,36.908,52.351,58.228
					c29.83,42.937,52.319,90.289,71.798,138.469c19.337,48.312,35.304,97.875,49.211,147.95
					c13.858,50.099,25.592,100.756,35.747,151.711C2193.794,1486.097,2210.117,1694.195,2210.717,1901.88z M2195.348,1901.88
					c0.19-103.466-3.742-206.959-12.341-310.066c-8.477-103.103-21.32-205.91-40.452-307.579
					c-9.554-50.827-20.681-101.366-33.921-151.346c-13.287-49.954-28.623-99.399-47.295-147.565
					c-18.806-48.029-40.614-95.216-69.554-137.848c-14.547-21.166-30.956-41.268-50.647-57.623
					c-9.842-8.128-20.527-15.271-32.09-20.531c-11.55-5.197-23.992-8.604-36.644-8.936c-12.644-0.401-25.273,2.143-36.969,6.956
					c-11.738,4.766-22.514,11.777-32.337,19.873c-19.654,16.329-35.579,36.868-49.42,58.469
					c-13.815,21.694-25.576,44.703-36.065,68.252c-10.507,23.555-19.7,47.704-28.089,72.124
					c-16.688,48.889-30.052,98.904-41.475,149.325c-11.393,50.44-20.773,101.338-28.738,152.45
					c-15.871,102.248-26.179,205.334-32.704,308.61c-6.591,103.29-8.867,206.813-8.681,310.291
					c-0.274,103.461,3.183,206.951,10.873,310.133c7.751,103.164,19.622,206.068,37.389,307.962
					c8.903,50.936,19.303,101.612,31.762,151.765c12.479,50.135,26.961,99.801,44.785,148.219
					c17.921,48.289,38.877,95.799,67.199,138.589c14.254,21.217,30.472,41.34,50.127,57.293
					c9.822,7.915,20.511,14.765,32.066,19.454c11.52,4.702,23.88,7.315,36.264,6.897c12.38-0.319,24.578-3.588,35.903-8.783
					c11.342-5.231,21.803-12.424,31.411-20.627c19.229-16.503,35.102-36.88,49.104-58.279c27.826-43.129,48.48-90.745,66.2-139.115
					c17.584-48.508,31.906-98.215,44.259-148.381c12.318-50.188,22.594-100.887,31.408-151.836
					c17.647-101.913,29.372-204.829,37.167-307.992C2191.741,2108.867,2195.388,2005.367,2195.348,1901.88z"/>
				<path style="fill:#FFFFFF;" d="M2734.551,1901.88c-0.718,133.72-17.905,267.5-53.701,396.452
					c-36.422,128.656-91.326,252.427-165.865,363.549c-37.274,55.5-79.503,107.742-126.688,155.139
					c-47.165,47.384-99.326,89.907-155.948,125.544c-56.673,35.499-117.884,63.917-181.959,83.197
					c-64.038,19.326-130.889,29.407-197.801,29.474c-66.911-0.006-133.781-10.027-197.853-29.3
					c-64.109-19.227-125.37-47.599-182.102-83.063c-56.68-35.6-108.919-78.085-156.16-125.45
					c-47.263-47.377-89.575-99.607-126.934-155.108c-74.69-111.137-129.709-234.962-166.302-363.681
					c-18.011-64.479-31.396-130.23-40.263-196.567c-8.82-66.348-13.252-133.256-13.556-200.188
					c0.346-66.933,4.819-133.835,13.68-200.172c8.91-66.326,22.345-132.059,40.399-196.511
					c36.683-128.668,91.787-252.409,166.526-363.431c37.375-55.449,79.692-107.622,126.949-154.936
					c47.242-47.292,99.443-89.738,156.113-125.226c56.714-35.372,117.961-63.534,181.958-82.754
					c63.957-19.299,130.72-29.366,197.542-29.431c66.823,0.121,133.569,10.244,197.494,29.592
					c63.966,19.271,125.159,47.489,181.814,82.899c56.609,35.528,108.736,78.009,155.899,125.321
					c47.179,47.335,89.413,99.518,126.703,154.968c74.587,111.006,129.58,234.693,166.09,363.299
					C2716.465,1634.403,2733.742,1768.159,2734.551,1901.88z M2716.932,1901.88c-0.193-132.203-16.661-264.547-51.543-392.163
					c-35.075-127.42-87.888-250.433-160.596-361.059c-36.334-55.256-77.601-107.339-123.822-154.683
					c-46.238-47.27-97.311-90.037-153.167-125.583c-55.924-35.347-116.316-63.799-179.64-83.042
					c-63.292-19.258-129.373-29.381-195.575-29.602c-66.202,0.277-132.266,10.456-195.527,29.762
					c-63.291,19.295-123.631,47.803-179.495,83.188c-55.795,35.587-106.792,78.389-152.953,125.679
					c-46.141,47.365-87.326,99.459-123.576,154.715c-72.557,110.612-125.256,233.57-160.159,360.927
					c-17.388,63.751-29.977,128.756-38.508,194.245c-8.551,65.497-12.77,131.547-12.918,197.616
					c0.189,66.069,4.45,132.113,13.042,197.599c8.573,65.477,21.214,130.464,38.644,194.189
					c34.993,127.305,87.78,250.18,160.385,360.677c36.264,55.206,77.454,107.241,123.591,154.543
					c46.16,47.218,97.121,89.981,152.906,125.455c55.848,35.294,116.172,63.59,179.352,82.879
					c63.146,19.333,129.102,29.558,195.216,29.894c66.115-0.275,132.089-10.438,195.269-29.719
					c63.214-19.236,123.588-47.487,179.494-82.745c55.844-35.438,106.881-78.163,153.119-125.362
					c46.215-47.281,87.488-99.306,123.836-154.511c72.756-110.512,125.658-233.44,160.82-360.809
					C2700.09,2166.403,2716.649,2034.082,2716.932,1901.88z"/>
				<path style="fill:#FFFFFF;" d="M823.409,1445.493l264.864-2.14l264.865-1.213l529.729-0.978l529.729,1.076l264.865,1.325
					l264.864,2.31c0.43,0.004,0.774,0.355,0.77,0.785c-0.003,0.424-0.347,0.767-0.77,0.771l-264.864,2.31l-264.865,1.324
					l-529.729,1.077l-529.729-0.978l-264.865-1.213l-264.864-2.14c-0.639-0.006-1.154-0.528-1.149-1.168
					C822.266,1446.009,822.779,1445.498,823.409,1445.493z"/>
				<path style="fill:#FFFFFF;" d="M1130.684,1001.868c62.681-0.993,125.364-1.419,188.045-2.14l188.046-1.212
					c62.683-0.517,125.364-0.461,188.047-0.621l188.046-0.358l376.091,1.077l188.046,1.324c62.683,0.786,125.364,1.246,188.047,2.31
					c0.429,0.007,0.771,0.361,0.764,0.791c-0.007,0.42-0.348,0.757-0.764,0.764c-62.683,1.064-125.364,1.524-188.047,2.31
					l-188.046,1.324l-376.091,1.077l-188.046-0.358c-62.683-0.16-125.364-0.104-188.047-0.62l-188.046-1.213
					c-62.681-0.72-125.364-1.146-188.045-2.14c-0.64-0.01-1.15-0.537-1.14-1.177
					C1129.554,1002.381,1130.061,1001.878,1130.684,1001.868z"/>
				<path style="fill:#FFFFFF;" d="M731.366,1889.119l287.875-2.133l287.876-1.22l575.75-0.979l575.75,1.077l287.875,1.325
					l287.875,2.309c0.43,0.004,0.775,0.354,0.772,0.784c-0.004,0.426-0.348,0.768-0.772,0.772l-287.875,2.308l-287.875,1.325
					l-575.75,1.077l-575.75-0.978l-287.876-1.22l-287.875-2.132c-0.64-0.005-1.154-0.527-1.15-1.167
					C730.221,1889.634,730.734,1889.124,731.366,1889.119z"/>
				<path style="fill:#FFFFFF;" d="M823.409,2332.743l264.864-2.139l264.865-1.212l529.729-0.979l529.729,1.077l264.865,1.324
					l264.864,2.31c0.43,0.004,0.774,0.355,0.77,0.784c-0.003,0.425-0.347,0.767-0.77,0.771l-264.864,2.31l-264.865,1.325
					l-529.729,1.077l-529.729-0.978l-264.865-1.213l-264.864-2.14c-0.639-0.005-1.154-0.528-1.149-1.167
					C822.266,2333.26,822.779,2332.749,823.409,2332.743z"/>
				<path style="fill:#FFFFFF;" d="M2672.95,2781.589H1168.585c-2.245,0-4.061-1.818-4.061-4.061c0-2.242,1.816-4.061,4.061-4.061
					H2672.95c2.244,0,4.061,1.819,4.061,4.061C2677.011,2779.771,2675.195,2781.589,2672.95,2781.589z"/>
			</g>
		</g>
		<g>
			
				<linearGradient id="SVGID_00000007413997619495110390000008783312468369450152_" gradientUnits="userSpaceOnUse" x1="2667.606" y1="2286.6863" x2="3477.1045" y2="1161.6218">
				<stop  offset="0" style="stop-color:#FF928E"/>
				<stop  offset="1" style="stop-color:#FE7062"/>
			</linearGradient>
			<path style="fill:url(#SVGID_00000007413997619495110390000008783312468369450152_);" d="M2660.417,1768.511l-10.757,341.657
				c-1.169,37.142,28.622,67.886,65.783,67.886h390.438c35.437,0,64.513-28.058,65.774-63.473l10.684-300.016
				c1.229-34.523-24.442-64.122-58.793-67.786l-390.364-41.641C2695.11,1701.077,2661.622,1730.244,2660.417,1768.511z"/>
			<g>
				<path style="fill:#FFFFFF;" d="M3066.132,2111.383H2717.11c-10.219,0-19.508-5.627-24.242-14.686
					c-4.734-9.052-4.052-19.898,1.784-28.287l72.593-104.397c4.507-6.485,11.593-10.703,19.443-11.574
					c7.814-0.871,15.684,1.683,21.503,7.018l27.634,24.921c0.367-0.071,0.471-0.299,0.523-0.416l66.722-146.188
					c4.25-9.319,13.244-15.434,23.469-15.967c10.271-0.442,19.804,4.627,24.993,13.452l138.175,234.897
					c5.04,8.558,5.104,18.826,0.172,27.449C3084.948,2106.23,3076.068,2111.383,3066.132,2111.383z M2790.204,1979.082l-1.105,0.123
					l-72.594,104.396c-0.127,0.182-0.257,0.371-0.049,0.767c0.205,0.396,0.432,0.396,0.653,0.396h349.022c0.192,0,0.429,0,0.64-0.37
					c0.214-0.371,0.094-0.578-0.003-0.741l-138.175-234.903c-0.11-0.182-0.25-0.292-0.673-0.357
					c-0.448,0.026-0.546,0.227-0.637,0.429l-66.719,146.188c-3.623,7.941-10.895,13.725-19.45,15.46
					c-8.562,1.735-17.5-0.754-23.927-6.654L2790.204,1979.082z"/>
				<path style="fill:#FFFFFF;" d="M3061.388,1898.399c-35.003,0-63.479-28.476-63.479-63.483s28.476-63.483,63.479-63.483
					c35.004,0,63.483,28.476,63.483,63.483S3096.392,1898.399,3061.388,1898.399z M3061.388,1798.05
					c-20.327,0-36.862,16.538-36.862,36.865c0,20.327,16.535,36.865,36.862,36.865c20.327,0,36.865-16.538,36.865-36.865
					C3098.253,1814.589,3081.715,1798.05,3061.388,1798.05z"/>
			</g>
		</g>
		<g>
			
				<linearGradient id="SVGID_00000114754302151371463150000003850681015527825060_" gradientUnits="userSpaceOnUse" x1="2421.791" y1="2956.5625" x2="3243.1416" y2="2103.3779">
				<stop  offset="0" style="stop-color:#FF928E"/>
				<stop  offset="1" style="stop-color:#FE7062"/>
			</linearGradient>
			<path style="fill:url(#SVGID_00000114754302151371463150000003850681015527825060_);" d="M2445.257,2540.712v277.646
				c0,32.988,25.92,60.155,58.872,61.703l347.204,16.313c35.215,1.655,64.67-26.45,64.67-61.703v-293.959
				c0-34.115-27.656-61.771-61.771-61.771h-347.204C2472.913,2478.94,2445.257,2506.596,2445.257,2540.712z"/>
			<path style="fill:#FFFFFF;" d="M2571.036,2828.271c-4.487,0-8.278-0.054-11.281-0.115c-5.127-0.102-9.333-3.878-9.988-8.975
				c-0.657-5.133,2.482-9.873,7.464-11.278c26.665-7.473,55.738-20.175,77.146-30.458c-102.098-8.323-122.48-60.759-126.419-84.746
				c-9.939-60.488,42.56-128.931,117.025-152.574c75.991-24.107,152.966-15.422,196.132,22.141
				c22.937,19.964,47.816,58.19,36.085,126.983C2835.258,2817.957,2634.54,2828.271,2571.036,2828.271z M2562.26,2825.731h0.006
				H2562.26z M2560.138,2809.628c0,0,0.018,0,0.024,0C2560.156,2809.628,2560.146,2809.628,2560.138,2809.628z M2707.648,2759.297
				l-32.346,18.033c-1.704,0.947-30.175,16.737-64.8,31.218c78.823-4.753,212.175-27.02,228.435-122.411
				c8.251-48.419-1.833-85.397-29.981-109.89c-43.667-38.009-121.039-36.646-178.367-18.462
				c-64.924,20.615-112.71,81.018-104.35,131.91c7.59,46.2,60.201,72.044,144.383,70.277L2707.648,2759.297z"/>
		</g>
		<g>
			<g>
				
					<linearGradient id="SVGID_00000116955956855243715860000011611247521778511762_" gradientUnits="userSpaceOnUse" x1="1079.9796" y1="850.742" x2="1284.5786" y2="613.2614">
					<stop  offset="0" style="stop-color:#E1473D"/>
					<stop  offset="1" style="stop-color:#E9605A"/>
				</linearGradient>
				
					<circle style="fill:url(#SVGID_00000116955956855243715860000011611247521778511762_);" cx="1288.711" cy="608.464" r="152.536"/>
				
					<linearGradient id="SVGID_00000033348118084529282770000006101172072258657436_" gradientUnits="userSpaceOnUse" x1="1400.1906" y1="440.0512" x2="795.1854" y2="1354.0415">
					<stop  offset="0" style="stop-color:#FF928E"/>
					<stop  offset="1" style="stop-color:#FE7062"/>
				</linearGradient>
				
					<circle style="fill:url(#SVGID_00000033348118084529282770000006101172072258657436_);" cx="1288.711" cy="608.464" r="147.464"/>
				<path style="opacity:0.78;fill:#FFFFFF;" d="M1167.109,553.402c-0.938,0-1.89-0.212-2.786-0.666
					c-3.054-1.539-4.279-5.265-2.737-8.32c24.368-48.28,73.081-78.271,127.125-78.271c8.629,0,17.264,0.777,25.669,2.308
					c3.367,0.614,5.599,3.838,4.985,7.204c-0.611,3.366-3.847,5.592-7.205,4.984c-7.673-1.401-15.564-2.108-23.449-2.108
					c-49.341,0-93.817,27.383-116.068,71.465C1171.556,552.159,1169.375,553.402,1167.109,553.402z"/>
				
					<ellipse transform="matrix(0.2298 -0.9732 0.9732 0.2298 399.7859 1728.5063)" style="opacity:0.78;fill:#FFFFFF;" cx="1291.924" cy="611.677" rx="124.81" ry="124.81"/>
				<g>
					
						<linearGradient id="SVGID_00000164477312717017525840000010540603498640533384_" gradientUnits="userSpaceOnUse" x1="1339.7902" y1="450.4289" x2="1270.953" y2="693.0524">
						<stop  offset="0" style="stop-color:#FF928E"/>
						<stop  offset="1" style="stop-color:#FE7062"/>
					</linearGradient>
					<path style="fill:url(#SVGID_00000164477312717017525840000010540603498640533384_);" d="M1279.677,704.463v-13.578
						c-14.155-0.567-28.156-3.908-38.101-8.261c-3.551-1.554-5.361-5.539-4.341-9.279l3.449-12.648
						c1.266-4.64,6.312-7.04,10.747-5.181c9.865,4.136,22.044,7.407,35.178,7.407c13.634,0,23.802-4.622,23.802-14.097
						c0-8.55-7.857-13.633-26.806-18.717c-27.037-7.395-46.449-19.181-46.449-42.983c0-21.492,15.715-37.899,42.983-42.289v-13.58
						c0-4.37,3.542-7.912,7.912-7.912h7.978c4.37,0,7.912,3.542,7.912,7.912v12.192c13.098,0.525,22.633,2.765,30.2,5.423
						c3.877,1.362,5.995,5.538,4.92,9.504l-3.173,11.698c-1.223,4.51-6.044,6.981-10.416,5.328
						c-6.966-2.635-16.816-5.378-29.619-5.378c-16.176,0-20.797,6.702-20.797,12.71c0,7.395,9.705,12.478,30.734,18.95
						c30.041,9.012,42.519,21.491,42.519,43.906c0,20.567-15.251,39.054-44.831,43.676v15.196c0,4.37-3.542,7.912-7.912,7.912
						h-7.979C1283.219,712.375,1279.677,708.833,1279.677,704.463z"/>
				</g>
			</g>
			<g>
				
					<linearGradient id="SVGID_00000135675349160895689580000018210783286309952144_" gradientUnits="userSpaceOnUse" x1="938.8736" y1="1650.8436" x2="1143.4729" y2="1413.3627">
					<stop  offset="0" style="stop-color:#E1473D"/>
					<stop  offset="1" style="stop-color:#E9605A"/>
				</linearGradient>
				
					<circle style="fill:url(#SVGID_00000135675349160895689580000018210783286309952144_);" cx="1147.605" cy="1408.566" r="152.536"/>
				
					<linearGradient id="SVGID_00000075122583950404734050000005647692630516198584_" gradientUnits="userSpaceOnUse" x1="1259.0847" y1="1240.1526" x2="654.0792" y2="2154.1433">
					<stop  offset="0" style="stop-color:#FF928E"/>
					<stop  offset="1" style="stop-color:#FE7062"/>
				</linearGradient>
				
					<circle style="fill:url(#SVGID_00000075122583950404734050000005647692630516198584_);" cx="1147.605" cy="1408.566" r="147.464"/>
				<path style="opacity:0.78;fill:#FFFFFF;" d="M1026.004,1353.503c-0.938,0-1.89-0.212-2.785-0.665
					c-3.055-1.54-4.28-5.266-2.737-8.321c24.368-48.28,73.081-78.271,127.125-78.271c8.628,0,17.264,0.777,25.669,2.308
					c3.366,0.614,5.598,3.838,4.984,7.204c-0.611,3.366-3.847,5.592-7.204,4.984c-7.673-1.4-15.564-2.108-23.448-2.108
					c-49.341,0-93.817,27.384-116.068,71.466C1030.45,1352.26,1028.269,1353.503,1026.004,1353.503z"/>
				
					<ellipse transform="matrix(0.2298 -0.9732 0.9732 0.2298 -487.5975 2207.4521)" style="opacity:0.78;fill:#FFFFFF;" cx="1150.818" cy="1411.779" rx="124.81" ry="124.81"/>
				<g>
					
						<linearGradient id="SVGID_00000109740142052116442880000009050950948646666905_" gradientUnits="userSpaceOnUse" x1="1177.4893" y1="1261.942" x2="1136.8643" y2="1504.5651">
						<stop  offset="0" style="stop-color:#FF928E"/>
						<stop  offset="1" style="stop-color:#FE7062"/>
					</linearGradient>
					<path style="fill:url(#SVGID_00000109740142052116442880000009050950948646666905_);" d="M1138.571,1504.564v-13.578
						c-14.155-0.567-28.156-3.908-38.101-8.261c-3.551-1.554-5.361-5.54-4.341-9.279l3.45-12.649
						c1.265-4.64,6.311-7.039,10.747-5.181c9.865,4.136,22.044,7.407,35.178,7.407c13.634,0,23.802-4.622,23.802-14.097
						c0-8.549-7.857-13.633-26.806-18.717c-27.037-7.395-46.449-19.18-46.449-42.983c0-21.492,15.714-37.899,42.982-42.289v-13.58
						c0-4.369,3.542-7.912,7.912-7.912h7.978c4.369,0,7.912,3.543,7.912,7.912v12.193c13.098,0.525,22.633,2.764,30.199,5.423
						c3.877,1.362,5.995,5.538,4.92,9.504l-3.173,11.698c-1.223,4.51-6.044,6.981-10.416,5.328
						c-6.966-2.635-16.816-5.377-29.619-5.377c-16.177,0-20.798,6.701-20.798,12.71c0,7.395,9.705,12.478,30.734,18.95
						c30.042,9.012,42.519,21.491,42.519,43.906c0,20.567-15.251,39.054-44.831,43.676v15.196c0,4.37-3.542,7.912-7.912,7.912
						h-7.979C1142.113,1512.476,1138.571,1508.934,1138.571,1504.564z"/>
				</g>
			</g>
			<g>
				
					<linearGradient id="SVGID_00000059307479450758033660000003909532956205223355_" gradientUnits="userSpaceOnUse" x1="591.1216" y1="1349.507" x2="910.7661" y2="978.4915">
					<stop  offset="0" style="stop-color:#E1473D"/>
					<stop  offset="1" style="stop-color:#E9605A"/>
				</linearGradient>
				
					<circle style="fill:url(#SVGID_00000059307479450758033660000003909532956205223355_);" cx="917.223" cy="970.997" r="238.307"/>
				
					<linearGradient id="SVGID_00000136388368372889553130000017325661246563583167_" gradientUnits="userSpaceOnUse" x1="1091.3861" y1="707.8859" x2="146.1882" y2="2135.8105">
					<stop  offset="0" style="stop-color:#FF928E"/>
					<stop  offset="1" style="stop-color:#FE7062"/>
				</linearGradient>
				
					<circle style="fill:url(#SVGID_00000136388368372889553130000017325661246563583167_);" cx="917.223" cy="970.997" r="230.383"/>
				<path style="opacity:0.78;fill:#FFFFFF;" d="M727.247,880.855c-0.842,0-1.697-0.19-2.5-0.597
					c-2.741-1.382-3.84-4.726-2.457-7.467c37.368-74.033,112.061-120.022,194.931-120.022c13.23,0,26.473,1.191,39.363,3.542
					c3.021,0.551,5.024,3.447,4.474,6.466c-0.554,3.021-3.439,5.019-6.466,4.474c-12.236-2.231-24.809-3.363-37.371-3.363
					c-78.65,0-149.54,43.649-185.008,113.914C731.237,879.739,729.28,880.855,727.247,880.855z"/>
				
					<ellipse transform="matrix(0.7071 -0.7071 0.7071 0.7071 -420.0297 937.9926)" style="opacity:0.78;fill:#FFFFFF;" cx="922.242" cy="976.017" rx="194.991" ry="194.991"/>
				<g>
					
						<linearGradient id="SVGID_00000068663687146441327290000014936436001874172848_" gradientUnits="userSpaceOnUse" x1="997.6233" y1="763.2365" x2="891.546" y2="1078.0825">
						<stop  offset="0" style="stop-color:#FF928E"/>
						<stop  offset="1" style="stop-color:#FE7062"/>
					</linearGradient>
					<path style="fill:url(#SVGID_00000068663687146441327290000014936436001874172848_);" d="M903.107,1120.976v-21.214
						c-22.115-0.886-43.989-6.105-59.525-12.906c-5.548-2.428-8.376-8.654-6.782-14.497l5.389-19.761
						c1.977-7.249,9.86-10.998,16.79-8.093c15.411,6.46,34.44,11.571,54.959,11.571c21.3,0,37.185-7.222,37.185-22.024
						c0-13.357-12.274-21.299-41.879-29.241c-42.24-11.553-72.567-29.966-72.567-67.152c0-33.577,24.551-59.21,67.151-66.068
						v-21.216c0-6.827,5.535-12.361,12.361-12.361h12.464c6.827,0,12.361,5.534,12.361,12.361v19.048
						c20.464,0.819,35.359,4.318,47.181,8.472c6.057,2.128,9.366,8.652,7.686,14.849l-4.956,18.275
						c-1.911,7.047-9.443,10.907-16.272,8.324c-10.884-4.116-26.272-8.401-46.274-8.401c-25.272,0-32.492,10.469-32.492,19.857
						c0,11.552,15.163,19.494,48.015,29.604c46.935,14.08,66.429,33.575,66.429,68.595c0,32.131-23.827,61.013-70.039,68.235v23.741
						c0,6.827-5.534,12.36-12.36,12.36h-12.465C908.641,1133.336,903.107,1127.803,903.107,1120.976z"/>
				</g>
			</g>
			<g>
				
					<linearGradient id="SVGID_00000024707085229586801810000010282336392883979188_" gradientUnits="userSpaceOnUse" x1="1180.7358" y1="1367.9822" x2="1423.0818" y2="1086.6882">
					<stop  offset="0" style="stop-color:#E1473D"/>
					<stop  offset="1" style="stop-color:#E9605A"/>
				</linearGradient>
				
					<circle style="fill:url(#SVGID_00000024707085229586801810000010282336392883979188_);" cx="1427.977" cy="1081.006" r="180.678"/>
				
					<linearGradient id="SVGID_00000183226681066740098680000005711591553435893890_" gradientUnits="userSpaceOnUse" x1="1560.0228" y1="881.5226" x2="843.4" y2="1964.1353">
					<stop  offset="0" style="stop-color:#FF928E"/>
					<stop  offset="1" style="stop-color:#FE7062"/>
				</linearGradient>
				
					<circle style="fill:url(#SVGID_00000183226681066740098680000005711591553435893890_);" cx="1427.977" cy="1081.006" r="174.67"/>
				<path style="opacity:0.78;fill:#FFFFFF;" d="M1283.942,1014.038c-0.846,0-1.706-0.191-2.514-0.6
					c-2.757-1.389-3.862-4.752-2.471-7.509c28.568-56.595,85.668-91.752,149.019-91.752c10.105,0,20.232,0.912,30.091,2.708
					c3.038,0.554,5.052,3.464,4.498,6.502c-0.551,3.038-3.475,5.041-6.501,4.498c-9.202-1.679-18.652-2.528-28.088-2.528
					c-59.106,0-112.383,32.804-139.04,85.611C1287.954,1012.916,1285.986,1014.038,1283.942,1014.038z"/>
				
					<ellipse transform="matrix(0.7071 -0.7071 0.7071 0.7071 -347.7186 1330.1573)" style="opacity:0.78;fill:#FFFFFF;" cx="1431.783" cy="1084.812" rx="147.837" ry="147.837"/>
				<g>
					
						<linearGradient id="SVGID_00000048468901838868747520000016115231023220499085_" gradientUnits="userSpaceOnUse" x1="1487.2616" y1="895.29" x2="1420.6815" y2="1133.3982">
						<stop  offset="0" style="stop-color:#FF928E"/>
						<stop  offset="1" style="stop-color:#FE7062"/>
					</linearGradient>
					<path style="fill:url(#SVGID_00000048468901838868747520000016115231023220499085_);" d="M1417.275,1194.716v-16.084
						c-16.767-0.672-33.351-4.628-45.13-9.785c-4.206-1.842-6.35-6.562-5.142-10.992l4.086-14.981
						c1.499-5.496,7.476-8.338,12.73-6.137c11.684,4.899,26.112,8.774,41.668,8.774c16.149,0,28.193-5.475,28.193-16.698
						c0-10.127-9.306-16.148-31.752-22.17c-32.024-8.759-55.018-22.719-55.018-50.913c0-25.457,18.614-44.891,50.913-50.09v-16.086
						c0-5.176,4.195-9.372,9.371-9.372h9.45c5.176,0,9.372,4.196,9.372,9.372v14.442c15.515,0.621,26.808,3.274,35.771,6.424
						c4.592,1.613,7.101,6.56,5.827,11.258l-3.757,13.856c-1.449,5.342-7.159,8.269-12.338,6.311
						c-8.252-3.12-19.919-6.369-35.084-6.369c-19.161,0-24.634,7.937-24.634,15.054c0,8.759,11.495,14.781,36.405,22.445
						c35.584,10.675,50.364,25.455,50.364,52.007c0,24.361-18.065,46.259-53.102,51.734v18c0,5.176-4.195,9.372-9.371,9.372h-9.45
						C1421.471,1204.088,1417.275,1199.892,1417.275,1194.716z"/>
				</g>
			</g>
		</g>
		<g>
			
				<linearGradient id="SVGID_00000063624376880233899040000001640558211564594831_" gradientUnits="userSpaceOnUse" x1="2404.5457" y1="1626.228" x2="3126.428" y2="1065.578">
				<stop  offset="0" style="stop-color:#FF928E"/>
				<stop  offset="1" style="stop-color:#FE7062"/>
			</linearGradient>
			<path style="fill:url(#SVGID_00000063624376880233899040000001640558211564594831_);" d="M2825.76,1593.102h-333.241
				c-25.486,0-46.146-15.95-46.146-35.625v-257.957c0-18.561,18.459-34.012,42.423-35.509l355.048-22.184
				c27.97-1.748,51.469,16.021,49.786,37.646l-21.806,280.142C2870.359,1578.425,2850.171,1593.102,2825.76,1593.102z"/>
			<path style="fill:#FFFFFF;" d="M2539.969,1541.781c-9.263,0-17.919-3.242-23.978-9.029c-4.942-4.724-7.663-10.796-7.663-17.105
				v-165.383c0-4.047,3.281-7.329,7.329-7.329c4.047,0,7.329,3.281,7.329,7.329v165.383c0,2.906,1.704,5.139,3.131,6.506
				c3.521,3.368,9.147,5.2,15.006,4.942l253.86-11.673c8.774-0.401,15.913-5.54,15.913-11.448v-162.374
				c0-2.981-1.782-5.257-3.278-6.645c-3.715-3.439-9.53-5.221-15.59-4.756l-211.177,16.146c-8.592,0.658-13.276,5.099-14.675,8.703
				c-1.156,2.977-0.415,5.994,2.142,8.721l80.545,85.809c3.158,3.367,8.454,5.407,14.164,5.457c5.758-0.1,11.163-1.929,14.436-5.296
				l88.721-91.259c2.823-2.898,7.463-2.959,10.363-0.143c2.902,2.82,2.969,7.461,0.147,10.363l-88.722,91.259
				c-6.098,6.269-15.198,9.715-25.074,9.733c-9.778-0.086-18.791-3.761-24.724-10.081l-80.545-85.812
				c-6.404-6.828-8.314-15.82-5.115-24.058c3.933-10.127,14.363-17.026,27.22-18.011l211.179-16.146
				c10.034-0.766,20.013,2.455,26.667,8.62c5.142,4.763,7.974,10.943,7.974,17.395v162.374c0,13.859-13.133,25.321-29.898,26.091
				l-253.862,11.673C2541.183,1541.767,2540.573,1541.781,2539.969,1541.781z"/>
		</g>
		<g>
			<path style="fill:#FFFFFF;" d="M2399.463,1796.365c-106.969-19.587-192.296-58.443-253.614-115.495
				c-59.721-55.567-98.26-129.844-114.592-220.837c-184.906,91.782-338.117,90.974-455.457-2.41l-7.194-5.726l9.191-0.306
				c111.253-3.693,206.697-43.064,276.006-113.855c54.921-56.093,93.549-133.037,105.983-211.106l6.685,1.064
				c-12.649,79.422-51.952,157.706-107.828,214.777c-68.618,70.083-162.276,109.908-271.341,115.495
				c56.038,42.199,120.567,63.667,191.942,63.834c0.274,0.002,0.562,0.002,0.84,0.002c75.104,0,159.946-23.496,252.205-69.853
				l4.09-2.055l0.767,4.511c15.605,91.541,53.731,166.067,113.316,221.507c60.356,56.157,144.542,94.442,250.218,113.791
				L2399.463,1796.365z"/>
			
				<linearGradient id="SVGID_00000034806336983508557460000006060062140338784419_" gradientUnits="userSpaceOnUse" x1="2341.7571" y1="442.188" x2="1535.5973" y2="1900.6062">
				<stop  offset="0" style="stop-color:#4F52FF"/>
				<stop  offset="1" style="stop-color:#4042E2"/>
			</linearGradient>
			
				<circle style="fill:url(#SVGID_00000034806336983508557460000006060062140338784419_);" cx="1963.128" cy="1127.163" r="46.156"/>
			
				<linearGradient id="SVGID_00000081630198537315199490000012180494199331334815_" gradientUnits="userSpaceOnUse" x1="2146.5945" y1="423.3379" x2="1340.4348" y2="1881.7559">
				<stop  offset="0" style="stop-color:#4F52FF"/>
				<stop  offset="1" style="stop-color:#4042E2"/>
			</linearGradient>
			<circle style="fill:url(#SVGID_00000081630198537315199490000012180494199331334815_);" cx="1577.91" cy="1452.141" r="46.156"/>
			
				<linearGradient id="SVGID_00000142174312464686747650000009112129762223728788_" gradientUnits="userSpaceOnUse" x1="2496.8755" y1="616.9622" x2="1690.7159" y2="2075.3801">
				<stop  offset="0" style="stop-color:#4F52FF"/>
				<stop  offset="1" style="stop-color:#4042E2"/>
			</linearGradient>
			<circle style="fill:url(#SVGID_00000142174312464686747650000009112129762223728788_);" cx="2035.22" cy="1452.141" r="46.156"/>
			
				<linearGradient id="SVGID_00000078039664706621217710000004342411646856691121_" gradientUnits="userSpaceOnUse" x1="2940.8489" y1="862.3764" x2="2134.6887" y2="2320.7954">
				<stop  offset="0" style="stop-color:#4F52FF"/>
				<stop  offset="1" style="stop-color:#4042E2"/>
			</linearGradient>
			<circle style="fill:url(#SVGID_00000078039664706621217710000004342411646856691121_);" cx="2423.643" cy="1798.05" r="46.156"/>
		</g>
		<g>
			
				<linearGradient id="SVGID_00000150086652325602877150000008688415510959388062_" gradientUnits="userSpaceOnUse" x1="588.3342" y1="2313.8149" x2="1008.1303" y2="3288.8235">
				<stop  offset="0" style="stop-color:#09005D"/>
				<stop  offset="1" style="stop-color:#1A0F91"/>
			</linearGradient>
			<path style="fill:url(#SVGID_00000150086652325602877150000008688415510959388062_);" d="M515.456,2501.6
				c0,0,214.576,565.906,282.368,683.63c78.694,136.655,308.519,49.575,297.083-64.79
				c-11.437-114.365-279.953-587.076-279.953-587.076L515.456,2501.6z"/>
			
				<linearGradient id="SVGID_00000083803760895784515950000001246452534121748627_" gradientUnits="userSpaceOnUse" x1="1260.7875" y1="1757.2281" x2="2114.2412" y2="3277.2502">
				<stop  offset="0" style="stop-color:#4F52FF"/>
				<stop  offset="1" style="stop-color:#4042E2"/>
			</linearGradient>
			<polygon style="fill:url(#SVGID_00000083803760895784515950000001246452534121748627_);" points="805.388,2089.366 
				2139.055,1626.963 2125.049,2878.3 768.941,2575.719 			"/>
			
				<linearGradient id="SVGID_00000183209537452667915700000002340636374803396493_" gradientUnits="userSpaceOnUse" x1="3072.1948" y1="1867.9774" x2="2203.0193" y2="2230.1345">
				<stop  offset="0" style="stop-color:#09005D"/>
				<stop  offset="1" style="stop-color:#1A0F91"/>
			</linearGradient>
			
				<ellipse style="fill:url(#SVGID_00000183209537452667915700000002340636374803396493_);" cx="2140.313" cy="2256.262" rx="131.028" ry="643.072"/>
			
				<linearGradient id="SVGID_00000046327345980092250710000001619191281951150726_" gradientUnits="userSpaceOnUse" x1="1995.464" y1="2266.7031" x2="2340.3572" y2="2235.3494">
				<stop  offset="0" style="stop-color:#4F52FF"/>
				<stop  offset="1" style="stop-color:#4042E2"/>
			</linearGradient>
			<path style="fill:url(#SVGID_00000046327345980092250710000001619191281951150726_);" d="M2150.257,2855.356
				c-11.842-12.045-37.642-58.507-59.759-178.656c-21.377-116.111-33.148-266.715-33.148-424.068
				c0-157.353,11.771-307.956,33.148-424.068c22.117-120.15,47.916-166.613,59.759-178.659
				c11.843,12.046,37.642,58.508,59.759,178.659c21.377,116.111,33.148,266.715,33.148,424.068
				c0,157.353-11.772,307.956-33.148,424.068C2187.899,2796.849,2162.1,2843.312,2150.257,2855.356z"/>
			<g>
				<defs>
					<path id="SVGID_00000129175618161538617720000011225434502715941766_" d="M2150.257,2855.356
						c-11.842-12.045-37.642-58.507-59.759-178.656c-21.377-116.111-33.148-266.715-33.148-424.068
						c0-157.353,11.771-307.956,33.148-424.068c22.117-120.15,47.916-166.613,59.759-178.659
						c11.843,12.046,37.642,58.508,59.759,178.659c21.377,116.111,190.055,266.715,190.055,424.068
						c0,157.353-168.679,307.956-190.055,424.068C2187.899,2796.849,2162.1,2843.312,2150.257,2855.356z"/>
				</defs>
				<clipPath id="SVGID_00000023982024459144412230000005101760962490294965_">
					<use xlink:href="#SVGID_00000129175618161538617720000011225434502715941766_"  style="overflow:visible;"/>
				</clipPath>
				
					<linearGradient id="SVGID_00000159436205199227391600000012563467870406291620_" gradientUnits="userSpaceOnUse" x1="2430.6023" y1="2231.3276" x2="1500.4314" y2="2284.6987">
					<stop  offset="0" style="stop-color:#09005D"/>
					<stop  offset="1" style="stop-color:#1A0F91"/>
				</linearGradient>
				
					<path style="clip-path:url(#SVGID_00000023982024459144412230000005101760962490294965_);fill:url(#SVGID_00000159436205199227391600000012563467870406291620_);" d="
					M2318.199,2247.843c0,109.265-58.861,197.842-175.36,197.842c-116.499,0-210.941-88.577-210.941-197.842
					c0-109.265,94.442-197.842,210.941-197.842C2259.338,2050.001,2318.199,2138.578,2318.199,2247.843z"/>
			</g>
			
				<linearGradient id="SVGID_00000126309640543509005470000011870792741867860133_" gradientUnits="userSpaceOnUse" x1="1335.5992" y1="1925.1163" x2="821.0123" y2="2256.8899">
				<stop  offset="0" style="stop-color:#09005D"/>
				<stop  offset="1" style="stop-color:#1A0F91"/>
			</linearGradient>
			<path style="fill:url(#SVGID_00000126309640543509005470000011870792741867860133_);" d="M590.287,2062.467
				c62.738-7.286,152.703-9.907,249.975,12.369c-32.048,167.407-27.211,341.896,9.853,522.573l-274.357,0
				c-43.742,0-81.041-31.773-87.862-74.979c-13.673-86.606-30.389-232.169-12.565-349.079
				C484.275,2114.679,531.333,2069.314,590.287,2062.467z"/>
			<path style="fill:#91B3FA;" d="M754.943,2190.681H541.186c-7.255,0-13.658-3.804-17.125-10.177
				c-3.466-6.373-3.183-13.816,0.759-19.907c1.65-2.548,5.053-3.264,7.601-1.628c2.548,1.65,3.278,5.053,1.628,7.604
				c-1.717,2.655-1.841,5.897-0.331,8.678c1.512,2.777,4.305,4.438,7.468,4.438h213.757c4.688,0,8.501-3.811,8.501-8.499v-15.212
				c0-4.688-3.813-8.499-8.501-8.499H539.6c-3.037,0-5.497-2.462-5.497-5.497c0-3.034,2.46-5.497,5.497-5.497h215.342
				c10.75,0,19.494,8.746,19.494,19.492v15.212C774.437,2181.935,765.693,2190.681,754.943,2190.681z"/>
			<path style="fill:#91B3FA;" d="M735.882,2285.35H522.125c-7.255,0-13.657-3.804-17.125-10.177
				c-3.466-6.373-3.183-13.816,0.759-19.907c1.65-2.544,5.055-3.264,7.601-1.628c2.548,1.65,3.278,5.053,1.628,7.604
				c-1.718,2.655-1.841,5.897-0.331,8.678c1.512,2.777,4.305,4.437,7.468,4.437h213.757c4.688,0,8.501-3.811,8.501-8.499v-15.209
				c0-4.688-3.813-8.502-8.501-8.502H520.539c-3.036,0-5.497-2.462-5.497-5.497c0-3.034,2.46-5.496,5.497-5.496h215.342
				c10.75,0,19.494,8.746,19.494,19.495v15.209C755.376,2276.604,746.632,2285.35,735.882,2285.35z"/>
			<path style="fill:#91B3FA;" d="M999.178,2055.497c-2.329,0-4.491-1.492-5.235-3.829c-0.921-2.895,0.678-5.983,3.569-6.906
				l1010.105-321.434c2.891-0.919,5.983,0.68,6.905,3.571c0.921,2.895-0.678,5.984-3.569,6.907l-1010.105,321.434
				C1000.292,2055.414,999.731,2055.497,999.178,2055.497z"/>
			<path style="fill:#FFFFFF;" d="M862.584,2111.335c-2.167,0-4.219-1.288-5.091-3.418c-1.149-2.809,0.199-6.019,3.009-7.168
				l51.986-21.249c2.807-1.156,6.019,0.2,7.168,3.009c1.148,2.809-0.199,6.019-3.009,7.168l-51.986,21.249
				C863.981,2111.206,863.276,2111.335,862.584,2111.335z"/>
			<path style="fill:#91B3FA;" d="M754.943,2396.222H541.186c-7.255,0-13.656-3.804-17.123-10.177s-3.185-13.817,0.757-19.907
				c1.65-2.552,5.053-3.271,7.601-1.632c2.548,1.65,3.278,5.053,1.628,7.601c-1.719,2.659-1.843,5.904-0.329,8.685
				c1.512,2.777,4.303,4.438,7.467,4.438h213.757c4.688,0,8.501-3.814,8.501-8.502v-15.208c0-4.688-3.813-8.499-8.501-8.499H539.6
				c-3.037,0-5.497-2.462-5.497-5.497c0-3.034,2.46-5.496,5.497-5.496h215.342c10.75,0,19.494,8.746,19.494,19.492v15.208
				C774.437,2387.476,765.693,2396.222,754.943,2396.222z"/>
			<path style="fill:#91B3FA;" d="M774.957,2519.286H561.2c-7.255,0-13.656-3.804-17.123-10.177
				c-3.467-6.373-3.185-13.816,0.757-19.907c1.651-2.552,5.055-3.271,7.601-1.632c2.548,1.65,3.278,5.053,1.628,7.601
				c-1.719,2.659-1.843,5.904-0.329,8.685c1.512,2.777,4.303,4.438,7.466,4.438h213.757c4.688,0,8.501-3.811,8.501-8.499v-15.212
				c0-4.688-3.813-8.499-8.501-8.499H559.615c-3.036,0-5.497-2.462-5.497-5.497c0-3.034,2.46-5.496,5.497-5.496h215.342
				c10.75,0,19.494,8.746,19.494,19.492v15.212C794.451,2510.54,785.707,2519.286,774.957,2519.286z"/>
			<path style="fill:#91B3FA;" d="M965.87,3188.385c-9.85,0-19.805-1.063-29.737-3.228c-43.459-9.469-78.84-38.125-97.068-78.623
				l-170.78-379.405c-1.247-2.766-0.012-6.019,2.756-7.268c2.768-1.249,6.022-0.007,7.268,2.759l170.78,379.406
				c16.785,37.284,49.365,63.672,89.385,72.389c39.333,8.578,79.133-1.603,109.203-27.92c1.612-1.41,3.231-2.859,4.858-4.344
				c2.24-2.047,5.716-1.893,7.765,0.351c2.047,2.24,1.891,5.718-0.351,7.765c-1.687,1.542-3.364,3.042-5.035,4.502
				C1029.794,3176.747,998.434,3188.385,965.87,3188.385z"/>
			<path style="fill:#91B3FA;" d="M648.048,2674.271c-2.097,0-4.099-1.206-5.015-3.239l-19.052-42.326
				c-1.247-2.766-0.013-6.019,2.756-7.268c2.766-1.245,6.022-0.007,7.268,2.756l19.052,42.323c1.247,2.77,0.012,6.022-2.756,7.271
				C649.569,2674.117,648.801,2674.271,648.048,2674.271z"/>
			<path style="fill:#91B3FA;" d="M2286.971,2242.147c-2.859,0-5.271-2.211-5.477-5.107c-3.798-53.537-22.355-93.452-55.153-118.634
				c-56.719-43.547-137.652-28.582-138.464-28.42c-2.997,0.569-5.862-1.374-6.436-4.355c-0.576-2.981,1.376-5.865,4.357-6.438
				c3.507-0.676,86.638-16.028,147.238,30.492c35.4,27.178,55.393,69.766,59.423,126.574c0.215,3.028-2.065,5.658-5.094,5.873
				C2287.232,2242.143,2287.102,2242.147,2286.971,2242.147z"/>
		</g>
		<g>
			
				<linearGradient id="SVGID_00000018223024714221238630000000980829134539611832_" gradientUnits="userSpaceOnUse" x1="-7930.98" y1="-7106.2749" x2="-7965.4751" y2="-6577.3511" gradientTransform="matrix(-0.7895 -0.6137 -0.6137 0.7895 -9357.4795 3191.1018)">
				<stop  offset="0" style="stop-color:#09005D"/>
				<stop  offset="1" style="stop-color:#1A0F91"/>
			</linearGradient>
			<path style="fill:url(#SVGID_00000018223024714221238630000000980829134539611832_);" d="M1116.14,2503.387
				c0,0-18.261,1.992-27.207,16.041c-4.28,6.721-2.998,15.601,2.406,21.456c24.014,26.019,103.517,110.429,143.783,132.065
				c3.301,1.774,7.304-0.717,7.254-4.464c-0.142-10.422-3.151-31.799-20.075-65.677l1.198,4.589
				c1.516,5.808-5.356,10.109-9.877,6.161C1188.272,2591.427,1137.147,2543.891,1116.14,2503.387z"/>
			
				<linearGradient id="SVGID_00000096770227803578915370000009306598787777964673_" gradientUnits="userSpaceOnUse" x1="20295.9355" y1="2101.4392" x2="19886.1211" y2="2335.3552" gradientTransform="matrix(1 0 0 1 -18912.9277 0)">
				<stop  offset="0" style="stop-color:#FEBBBA"/>
				<stop  offset="1" style="stop-color:#FF928E"/>
			</linearGradient>
			<path style="fill:url(#SVGID_00000096770227803578915370000009306598787777964673_);" d="M1320.701,2482.777
				c-0.483-0.186-260.424-455.404-295.55-498.243c-5.91-7.205-15.055-10.875-24.309-9.772l-72.554,8.646l-85.235,184.395l142-82.698
				c-14.051,97.177,168.366,241.594,230.928,294.291c6.349,5.348,6.87,14.926,1.136,20.929l-24.976,26.146
				c41.005,41.564,88.321,68.252,141.725,80.596L1320.701,2482.777z"/>
			
				<linearGradient id="SVGID_00000009573649872512622120000005301883944834557881_" gradientUnits="userSpaceOnUse" x1="-9900.9141" y1="-4673.6201" x2="-9932.374" y2="-4191.2358" gradientTransform="matrix(-0.8974 -0.4412 -0.4412 0.8974 -9617.6494 2161.1482)">
				<stop  offset="0" style="stop-color:#09005D"/>
				<stop  offset="1" style="stop-color:#1A0F91"/>
			</linearGradient>
			<path style="fill:url(#SVGID_00000009573649872512622120000005301883944834557881_);" d="M1206.588,2412.359
				c0,0-15.941,5.149-21.338,19.346c-2.582,6.793,0.201,14.486,6.109,18.718c26.248,18.805,112.829,79.518,152.784,91.408
				c3.275,0.975,6.391-1.989,5.654-5.325c-2.05-9.281-8.683-27.817-30.05-54.95l1.917,3.877c2.426,4.907-2.918,10.016-7.684,7.325
				C1287.256,2477.674,1232.825,2444.656,1206.588,2412.359z"/>
			
				<linearGradient id="SVGID_00000097478016576301301960000011228143245009212300_" gradientUnits="userSpaceOnUse" x1="20256.291" y1="2159.7759" x2="21658.4688" y2="1281.99" gradientTransform="matrix(1 0 0 1 -18912.9277 0)">
				<stop  offset="0" style="stop-color:#FEBBBA"/>
				<stop  offset="1" style="stop-color:#FF928E"/>
			</linearGradient>
			<path style="fill:url(#SVGID_00000097478016576301301960000011228143245009212300_);" d="M1219.452,2594.502
				c-0.436-0.28-39.435-94.242-39.871-94.521c-35.758-217.71-123.001-404.163-148.729-453.224
				c-4.329-8.252-12.542-13.696-21.828-14.489l-72.802-6.216l-120.789,163.33l155.797-52.25
				c-33.427,92.323,115.989,270.669,166.592,334.935c5.135,6.522,3.708,16.008-3.123,20.726l-29.751,20.55
				c31.745,49.002,72.681,84.714,122.481,107.609L1219.452,2594.502z"/>
			<g>
				
					<linearGradient id="SVGID_00000036236936562334733460000004875855601394414777_" gradientUnits="userSpaceOnUse" x1="12080.3672" y1="1807.7344" x2="11743.3105" y2="2177.1111" gradientTransform="matrix(1 0 0 1 -11081.2285 0)">
					<stop  offset="0" style="stop-color:#FF928E"/>
					<stop  offset="1" style="stop-color:#FE7062"/>
				</linearGradient>
				<path style="fill:url(#SVGID_00000036236936562334733460000004875855601394414777_);" d="M595.442,1991.654
					c0,0-65.859,97.957-71.263,142.641c-5.404,44.683,18.211,60.136,87.143,65.835c205.131,16.958,306.252-44.521,306.252-44.521
					c14.033-89.47,24.017-112.232,141.213-160.879c0,0-148.232,11.768-178.064,0.192
					C850.891,1983.344,595.442,1991.654,595.442,1991.654z"/>
			</g>
			<g>
				
					<linearGradient id="SVGID_00000010990996960749289800000002253148902295797151_" gradientUnits="userSpaceOnUse" x1="-12987.9473" y1="-1331.9274" x2="-12887.1738" y2="-1079.1372" gradientTransform="matrix(-0.9446 -0.3283 -0.3283 0.9446 -11777.3916 -1699.1722)">
					<stop  offset="0" style="stop-color:#09005D"/>
					<stop  offset="1" style="stop-color:#1A0F91"/>
				</linearGradient>
				<path style="fill:url(#SVGID_00000010990996960749289800000002253148902295797151_);" d="M858.066,1442.837
					c0,0-45.87-54.272-94.636,12.315c-8.832,12.06-42.756,2.111-55.192,27.354c-6.421,13.033-20.291,20.438-34.579,17.802
					c-35.585-6.564-93.75-7.116-122.468,48.648c-21.921,42.565-4.996,67.475,16.916,81.677
					c16.094,10.432,21.838,31.608,12.106,48.134c-9.335,15.851-11.09,37.315,13.013,63.148
					c54.012,57.889,160.933-36.737,160.933-36.737l84.893-200.604L858.066,1442.837z"/>
				
					<linearGradient id="SVGID_00000047762867536192512330000002541099476103286166_" gradientUnits="userSpaceOnUse" x1="462.2167" y1="2182.6248" x2="821.0734" y2="1722.2054">
					<stop  offset="0" style="stop-color:#4F52FF"/>
					<stop  offset="1" style="stop-color:#4042E2"/>
				</linearGradient>
				<path style="fill:url(#SVGID_00000047762867536192512330000002541099476103286166_);" d="M773.552,1978.686
					c0,0,76.693-73.027,114.445-121.397c20.407-26.146,26.815-60.567,17.378-92.362c-17.236-58.068-47.867-118.21-50.66-127.571
					c-4.282-14.348-90.275-13.75-90.275-13.75s-169.218,109.824-235.704,295.858l74.668,23.246c0,0,44.183-74.125,87.838-121.252
					c0,0-75.539,99.79-78.199,140.641L773.552,1978.686z"/>
				
					<linearGradient id="SVGID_00000060022876743515295850000005110122865296929459_" gradientUnits="userSpaceOnUse" x1="-11181.6982" y1="1966.6077" x2="-10773.4619" y2="1966.6077" gradientTransform="matrix(-1 0 0 1 -10516.4648 0)">
					<stop  offset="0" style="stop-color:#FEBBBA"/>
					<stop  offset="1" style="stop-color:#FF928E"/>
				</linearGradient>
				<path style="fill:url(#SVGID_00000060022876743515295850000005110122865296929459_);" d="M919.677,2007.504l-57.627-62.699
					l-66.553,17.921c0,0-77.591,12.021-121.999,0c-44.408-12.021-44.408-12.021-44.408-12.021l-100.353-31.243l-15.761,44.543
					c-4.002,11.309,0.019,23.864,9.798,30.813c8.682,6.169,18.859,12.949,25.346,15.788c13.216,5.781,304.434,1.828,304.434,1.828
					L919.677,2007.504z"/>
				
					<linearGradient id="SVGID_00000003797752977251402590000002831389073689969564_" gradientUnits="userSpaceOnUse" x1="-13100.0605" y1="729.1038" x2="-13080.1045" y2="583.109" gradientTransform="matrix(-0.9974 -0.0717 -0.0717 0.9974 -12182.3359 105.0094)">
					<stop  offset="0" style="stop-color:#FEBBBA"/>
					<stop  offset="1" style="stop-color:#FF928E"/>
				</linearGradient>
				<path style="fill:url(#SVGID_00000003797752977251402590000002831389073689969564_);" d="M823.541,1520.212l-57.796,107.474
					c3.816,23.46,62.905,24.122,72.032,10.113c0.929-1.425,1.46-3.075,1.813-4.74l34.574-71.811
					c1.484-7.002-17.712-30.597-24.031-33.96l-22.972-12.228C818.315,1510.351,855.226,1509.981,823.541,1520.212z"/>
				<g>
					
						<linearGradient id="SVGID_00000117647389907860730770000013477176083496421794_" gradientUnits="userSpaceOnUse" x1="-10775.7607" y1="-5608.585" x2="-10587.8613" y2="-5942.9834" gradientTransform="matrix(-0.5458 -0.8379 -0.8379 0.5458 -9763.3516 -4320.769)">
						<stop  offset="0" style="stop-color:#FEBBBA"/>
						<stop  offset="1" style="stop-color:#FF928E"/>
					</linearGradient>
					<path style="fill:url(#SVGID_00000117647389907860730770000013477176083496421794_);" d="M940.51,1494.989
						c0,0,6.524,36.311-22.015,82.477c-28.539,46.167-56.959,44.083-71.397,27.618c-14.438-16.464-31.734-43.886-23.864-89.932
						C831.103,1469.106,930.652,1448.685,940.51,1494.989z"/>
					
						<linearGradient id="SVGID_00000129901206299317222130000016737965955822707112_" gradientUnits="userSpaceOnUse" x1="-10735.3555" y1="-5899.7939" x2="-10641.4063" y2="-5664.1245" gradientTransform="matrix(-0.5458 -0.8379 -0.8379 0.5458 -9763.3516 -4320.769)">
						<stop  offset="0" style="stop-color:#09005D"/>
						<stop  offset="1" style="stop-color:#1A0F91"/>
					</linearGradient>
					<path style="fill:url(#SVGID_00000129901206299317222130000016737965955822707112_);" d="M857.783,1520.156
						c0,0,46.212-60.699,81.692-7.785l-0.598,18.279c0,0,46.137-2.157,41.134-44.681c-5.003-42.525-42.67-71.574-94.888-57.046
						c-52.218,14.529-82.73,31.075-88.627,67.329c-5.897,36.255,23.707,30.331,23.707,30.331s11.308-25.016,24.962-26.724
						c13.654-1.709,8.72,18.079,8.72,18.079L857.783,1520.156z"/>
					
						<linearGradient id="SVGID_00000011028551606565002860000012372553571267987332_" gradientUnits="userSpaceOnUse" x1="-10735.7637" y1="-5586.1133" x2="-10547.8643" y2="-5920.5098" gradientTransform="matrix(-0.5458 -0.8379 -0.8379 0.5458 -9763.3516 -4320.769)">
						<stop  offset="0" style="stop-color:#FEBBBA"/>
						<stop  offset="1" style="stop-color:#FF928E"/>
					</linearGradient>
					<path style="fill:url(#SVGID_00000011028551606565002860000012372553571267987332_);" d="M847.178,1518.537
						c0,0,23.938-31.064,2.148-37.51c-21.79-6.448-20.976,30.438-19.557,44.16L847.178,1518.537z"/>
				</g>
			</g>
			<g>
				
					<linearGradient id="SVGID_00000014597794754565957160000011244111424697948317_" gradientUnits="userSpaceOnUse" x1="-11244.7236" y1="1463.1921" x2="-11458.2842" y2="1521.7235" gradientTransform="matrix(-0.9988 -0.0494 -0.0494 0.9988 -10474.9961 -55.0328)">
					<stop  offset="0" style="stop-color:#09005D"/>
					<stop  offset="1" style="stop-color:#1A0F91"/>
				</linearGradient>
				<path style="fill:url(#SVGID_00000014597794754565957160000011244111424697948317_);" d="M728.923,2032.319
					c0.202,0.01,0.405,0.015,0.609,0.014l265.061-0.29c6.552-0.005,11.858-5.323,11.852-11.875
					c-0.006-6.555-5.344-11.97-11.878-11.851l-265.061,0.289c-6.552,0.006-11.858,5.323-11.851,11.875
					C717.662,2026.83,722.654,2032.009,728.923,2032.319z"/>
				
					<linearGradient id="SVGID_00000168093789302664092530000013252461109030770087_" gradientUnits="userSpaceOnUse" x1="-203.5847" y1="1927.5172" x2="1717.1667" y2="1765.9156" gradientTransform="matrix(-1 0 0 1 1034.6445 0)">
					<stop  offset="0" style="stop-color:#09005D"/>
					<stop  offset="1" style="stop-color:#1A0F91"/>
				</linearGradient>
				<path style="fill:url(#SVGID_00000168093789302664092530000013252461109030770087_);" d="M1232.871,1791.661h-220.744
					c-16.284,0-31.106,9.397-38.052,24.126l-102.05,216.391h274.326c10.494,0,19.923-6.412,23.78-16.172l79.135-200.238
					C1253.838,1804.198,1245.311,1791.661,1232.871,1791.661z"/>
				
					<linearGradient id="SVGID_00000085971420133818803380000011112317230019995310_" gradientUnits="userSpaceOnUse" x1="1499.8901" y1="1493.0343" x2="999.7309" y2="2004.1869">
					<stop  offset="0" style="stop-color:#53D8FF"/>
					<stop  offset="1" style="stop-color:#3840F7"/>
				</linearGradient>
				<path style="fill:url(#SVGID_00000085971420133818803380000011112317230019995310_);" d="M1077.354,1902.611
					c-4.783,14.862-1.25,29.296,7.894,32.238c9.143,2.943,20.432-6.719,25.216-21.582c4.784-14.861,1.25-29.295-7.893-32.238
					C1093.427,1878.087,1082.138,1887.748,1077.354,1902.611z"/>
			</g>
		</g>
	</g>
</g>
</svg>
