<?xml version="1.0" encoding="utf-8"?>
<!-- Generator: Adobe Illustrator 27.5.0, SVG Export Plug-In . SVG Version: 6.00 Build 0)  -->
<svg version="1.1" xmlns="http://www.w3.org/2000/svg" xmlns:xlink="http://www.w3.org/1999/xlink" x="0px" y="0px"
	 viewBox="0 0 3710 3710" style="enable-background:new 0 0 3710 3710;" xml:space="preserve">
<g id="Background">
	<g>
		<g>
			<rect style="fill:#FFFFFF;" width="3710" height="3710"/>
		</g>
	</g>
</g>
<g id="Illustration">
	<g>
		
			<linearGradient id="SVGID_1_" gradientUnits="userSpaceOnUse" x1="-1027.0886" y1="1325.2952" x2="-3137.6128" y2="-952.7312" gradientTransform="matrix(-0.9748 -0.1323 0.1345 -0.9909 -654.8552 1069.4224)">
			<stop  offset="0" style="stop-color:#DAE3FE"/>
			<stop  offset="1" style="stop-color:#E9EFFD"/>
		</linearGradient>
		<path style="fill:url(#SVGID_1_);" d="M636.739,1217.295c373.869-633.299,1159.238-820.501,1737.222-691.942
			c157.813,35.102,475.337,105.728,693.399,380.858c418.773,528.37,213.22,1486.076-325.18,1993.26
			c-69.335,65.315-547.05,501.128-1186.589,407.607c-468.236-68.471-760.795-382.398-796.259-421.374
			c-44.802-49.237-142.634-165.068-221.438-338.456C352.731,2139.848,403.108,1613.044,636.739,1217.295z"/>
		<g>
			<path style="fill:#BDD0FB;" d="M936.733,461.43c7.513-12.026,26.195-5.974,25.167,8.169
				c-9.941,136.725-24.778,496.059,69.716,723.657c153.857,370.583,159.881,884.417-87.654,1060.161
				C943.961,2253.417,118.174,1771.715,936.733,461.43z"/>
			<path style="opacity:0.43;fill:#FFFFFF;" d="M901.203,648.875c-0.774,3.307-1.424,7.187-2.111,10.854l-1.9,11.175l-3.557,22.407
				c-2.3,14.951-4.491,29.922-6.614,44.902c-4.17,29.972-7.969,59.995-11.491,90.049c-7.113,60.098-13.08,120.33-17.873,180.648
				c-9.361,120.642-15.051,241.599-14.479,362.569c0.53,60.468,1.586,120.95,5.06,181.32c3.53,60.353,8.368,120.646,15.723,180.65
				c0.757,7.52,1.755,15.009,2.809,22.49l3.062,22.459l3.062,22.463c1.115,7.472,2.427,14.913,3.63,22.372
				c2.54,14.894,4.733,29.856,7.557,44.699l8.731,44.486c12.355,59.169,27.564,117.732,46.052,175.346l0.005,0.019
				c0.292,0.91-0.208,1.883-1.118,2.176c-0.893,0.287-1.849-0.194-2.159-1.073c-20.154-57.22-36.254-115.812-49.78-174.964
				l-9.286-44.557c-3.012-14.87-5.388-29.856-8.113-44.782c-1.296-7.472-2.701-14.931-3.907-22.419l-3.339-22.508l-3.338-22.512
				c-1.147-7.499-2.238-15.007-3.086-22.544c-15.196-120.423-21.804-241.807-22.018-363.093
				c-0.24-60.654,1.515-121.288,4.126-181.862c2.68-60.575,6.614-121.092,12.144-181.465
				c5.464-60.374,11.879-120.663,19.845-180.753c4.023-30.038,8.322-60.039,12.994-89.983c2.387-14.965,4.787-29.927,7.395-44.858
				l4.06-22.373l2.157-11.171c0.806-3.755,1.429-7.342,2.517-11.376c0.247-0.915,1.189-1.458,2.104-1.209
				c0.895,0.242,1.432,1.149,1.223,2.044L901.203,648.875z"/>
		</g>
		<g>
			<path style="fill:#BDD0FB;" d="M942.949,2306.868c0,0,69.286-183.903-40.348-442.112
				c-101.72-239.574-361.683-803.687-370.256-1061.774c-0.379-11.433-15.958-14.343-20.322-3.769
				c-46.817,113.426-141.743,406.72-58.701,769.404C560.409,2036.319,942.949,2306.868,942.949,2306.868z"/>
			<path style="opacity:0.45;fill:#FFFFFF;" d="M517.443,1033.606c-2.966,13.205-4.456,26.689-6.062,40.096l-1.777,20.194
				c-0.537,6.733-0.698,13.497-1.066,20.238c-0.144,3.373-0.353,6.743-0.443,10.118l-0.064,10.133l-0.12,20.25l0.728,20.238
				c0.34,6.741,0.252,13.49,0.883,20.218c3.238,53.862,10.844,107.466,23.133,159.977c12.048,52.526,26.807,104.5,45.831,154.964
				l6.89,19.009l3.474,9.491l3.91,9.325l15.639,37.299c2.648,6.204,5.118,12.458,7.912,18.62l8.357,18.49l16.717,36.984
				c22.735,49.108,45.865,98.033,69.741,146.615c11.808,24.351,24.022,48.513,36.09,72.746l36.421,72.629
				c24.253,48.451,48.989,96.72,71.469,146.176c5.751,12.293,10.906,24.886,16.262,37.369c2.752,6.209,5.089,12.607,7.569,18.939
				c2.414,6.359,4.998,12.644,7.27,19.058c9.139,25.638,16.663,51.91,21.311,78.769c0.164,0.941-0.468,1.838-1.41,2
				c-0.902,0.157-1.762-0.416-1.976-1.292l-0.024-0.1c-3.177-13.112-5.927-26.29-10.322-39.063
				c-3.677-12.96-8.724-25.501-13.293-38.171c-2.42-6.292-5.157-12.472-7.719-18.71c-2.626-6.216-5.106-12.482-8.011-18.588
				c-5.658-12.268-11.099-24.615-17.157-36.71c-23.546-48.658-48.685-96.626-73.776-144.646l-37.565-72.104
				c-12.261-24.18-24.648-48.295-36.649-72.616c-24.375-48.452-47.537-97.518-70.351-146.735l-16.784-37.065l-8.391-18.532
				c-2.807-6.173-5.248-12.551-7.89-18.816l-15.56-37.749l-3.89-9.437l-3.451-9.609l-6.846-19.238l-6.842-19.237
				c-2.233-6.429-4.721-12.769-6.515-19.345l-11.641-39.149c-4.172-12.964-6.94-26.324-10.303-39.51
				c-3.147-13.244-6.807-26.366-9.04-39.814c-11.127-53.3-17.5-107.571-19.456-161.921c-0.475-6.783-0.245-13.597-0.292-20.395
				l0.04-20.39l0.892-20.375l0.451-10.18c0.218-3.39,0.557-6.773,0.831-10.16c2.022-27.076,5.575-54.128,12.45-80.401
				c0.03-0.115,0.147-0.182,0.262-0.152C517.402,1033.371,517.468,1033.495,517.443,1033.606z"/>
		</g>
		<g>
			
				<linearGradient id="SVGID_00000085953054494603739450000013604126999763525514_" gradientUnits="userSpaceOnUse" x1="-916.4723" y1="2641.0071" x2="-328.2398" y2="876.3046" gradientTransform="matrix(-1 0 0 1 1155.7772 0)">
				<stop  offset="0" style="stop-color:#09005D"/>
				<stop  offset="1" style="stop-color:#1A0F91"/>
			</linearGradient>
			<path style="fill:url(#SVGID_00000085953054494603739450000013604126999763525514_);" d="M553.385,2705.025
				c0,25.307,20.726,46.013,46.058,46.013h2490.628c25.332,0,46.058-20.706,46.058-46.013l20.725-1431.296
				c0-25.307-29.816-74.714-84.461-71.001l-2434.117-62.983c-31.785-0.823-62.516,11.411-85.024,33.846
				c-22.507,22.434-34.823,53.108-34.071,84.863L553.385,2705.025z"/>
			<path style="fill:#7D97F4;" d="M598.857,2660.881c0,23.965,19.608,43.574,43.574,43.574h2387.579
				c23.966,0,43.574-19.609,43.574-43.574l19.557-1299.343c-2.303-78.192-70.855-106.294-112.41-104.635L647.78,1194.314
				c-22.33-0.599-43.926,7.998-59.735,23.78c-15.809,15.781-24.444,37.363-23.884,59.694L598.857,2660.881z"/>
			<g>
				<path style="fill:#BDD0FB;" d="M3047.781,2043.12c-0.03,0-0.059,0-0.088,0c-3.263-0.048-5.868-2.735-5.818-5.994l1.547-105.373
					c0.048-3.259,2.723-5.629,5.988-5.818c3.263,0.047,5.868,2.735,5.818,5.994l-1.547,105.374
					C3053.634,2040.532,3051,2043.12,3047.781,2043.12z"/>
				<path style="fill:#BDD0FB;" d="M3051.574,1784.897c-0.029,0-0.058,0-0.088,0c-3.262-0.048-5.867-2.736-5.818-5.995
					l5.927-403.587c-0.112-24.118-7.439-43.375-21.779-57.113c-26.721-25.604-69.113-24.278-70.926-24.224l-745.609-19.993
					c-3.259-0.083-5.829-2.8-5.744-6.059c0.085-3.207,2.711-5.747,5.9-5.747c0.053,0,0.106,0,0.162,0.006l745.199,19.993
					c4.624-0.218,49.404-1.038,79.186,27.496c16.739,16.043,25.291,38.146,25.417,65.7l-5.929,403.705
					C3057.427,1782.309,3054.792,1784.897,3051.574,1784.897z"/>
			</g>
			
				<linearGradient id="SVGID_00000158726571011161572420000016441269934188442017_" gradientUnits="userSpaceOnUse" x1="1849.104" y1="2848.8179" x2="1898.8639" y2="2561.3159">
				<stop  offset="0" style="stop-color:#09005D"/>
				<stop  offset="1" style="stop-color:#1A0F91"/>
			</linearGradient>
			<path style="fill:url(#SVGID_00000158726571011161572420000016441269934188442017_);" d="M437.6,2869.854h2837.492
				c3.656,0,6.648-2.992,6.648-6.648v-112.462c0-3.656-2.992-6.648-6.648-6.648H437.6c-3.657,0-6.648,2.992-6.648,6.648v112.462
				C430.951,2866.862,433.943,2869.854,437.6,2869.854z"/>
		</g>
		<g>
			<g>
				
					<linearGradient id="SVGID_00000072254294370135493500000014272811137352268983_" gradientUnits="userSpaceOnUse" x1="-8316.0254" y1="-557.9882" x2="-7389.1582" y2="-557.9882" gradientTransform="matrix(0.019 -0.9532 -0.9998 -0.0199 732.5225 -4898.5288)">
					<stop  offset="0" style="stop-color:#09005D"/>
					<stop  offset="1" style="stop-color:#1A0F91"/>
				</linearGradient>
				<path style="fill:url(#SVGID_00000072254294370135493500000014272811137352268983_);" d="M1781.525,3037.901
					c-230.319,0.063-1024.757-0.678-1306.032-13.488c-29.798-1.357-53.339-21.313-53.831-45.63
					c-2.43-120.27-5.881-561.066,8.155-757.429c2.924-40.9,44.263-72.647,94.548-72.495c241.734,0.731,921.589,5.265,1232.522,32.89
					c37.254,3.311,66.486,27.766,69.608,58.201c13.456,131.196,43.906,574.425,27,743.976
					C1850.447,3014.504,1819.187,3037.89,1781.525,3037.901z"/>
				<path style="fill:#91B3FA;" d="M1711.959,2982.871c-185.956,2.765-804.565,10.848-1033.034-0.183
					c-33.395-1.612-59.983-23.613-61.395-50.854c-5.81-112.157-15.926-494.615,3.488-658.565
					c3.496-29.521,33.311-52.148,69.701-53.021c189.747-4.546,765.857-16.976,991.77-6.264c36.039,1.71,65.034,25.061,67.677,54.413
					c10.933,121.428,34.601,528.091,22.474,667.497C1770.363,2962.065,1744.152,2982.393,1711.959,2982.871z"/>
				<path style="opacity:0.5;fill:#FFFFFF;" d="M1818.082,2741.512L1818.082,2741.512c-7.064-0.141-12.802-4.743-13.056-10.5
					c-1.258-28.421-4.825-108.483-6.657-144.269c-0.362-7.055,7.519-12.431,15.996-10.925l1.446,0.258
					c5.783,1.028,10.073,5.036,10.516,9.842c2.234,24.209,8.312,97.246,5.235,145.496
					C1831.193,2737.209,1825.204,2741.654,1818.082,2741.512z"/>
			</g>
		</g>
		<g>
			<g>
				
					<linearGradient id="SVGID_00000156584402280919273190000010229658518520037776_" gradientUnits="userSpaceOnUse" x1="1617.2997" y1="2586.5371" x2="2287.6277" y2="2586.5371">
					<stop  offset="0" style="stop-color:#09005D"/>
					<stop  offset="1" style="stop-color:#1A0F91"/>
				</linearGradient>
				<path style="fill:url(#SVGID_00000156584402280919273190000010229658518520037776_);" d="M1628.264,2117.171
					c-3.528,166.545-14.974,741.015-9.51,944.59c0.578,21.568,15.357,38.878,33.793,39.583
					c91.178,3.491,425.433,12.338,574.572,5.019c31.063-1.525,55.764-30.96,56.409-67.323c3.099-174.809,9.937-666.48-6.314-891.714
					c-1.948-26.987-20.053-48.478-43.089-51.173c-99.298-11.621-434.991-40.027-563.837-30.246
					C1647.049,2067.671,1628.842,2089.938,1628.264,2117.171z"/>
				<path style="fill:#BDD0FB;" d="M1668.947,2168.268c-4.907,134.425-20.388,581.627-15.475,746.993
					c0.718,24.17,17.003,43.714,37.641,45.126c84.973,5.818,374.884,18.645,499.52,6.969c22.443-2.102,40.054-23.335,41.265-49.637
					c6.316-137.141,24.451-553.549,19.74-717.062c-0.75-26.084-18.023-47.388-40.243-49.721
					c-91.929-9.657-399.991-32.63-505.903-25.871C1685.611,2126.335,1669.798,2144.996,1668.947,2168.268z"/>
			</g>
		</g>
		<g>
			<circle style="fill:#FFFFFF;" cx="1154.785" cy="2585.867" r="172.652"/>
			
				<linearGradient id="SVGID_00000031888922285912969610000005814889969822473394_" gradientUnits="userSpaceOnUse" x1="1353.9551" y1="2097.9954" x2="1063.3979" y2="2710.241">
				<stop  offset="0" style="stop-color:#FF928E"/>
				<stop  offset="1" style="stop-color:#FE7062"/>
			</linearGradient>
			<path style="fill:url(#SVGID_00000031888922285912969610000005814889969822473394_);" d="M1140.615,2718.381
				c-9.158,0.599-17.677-3.661-22.418-11.273l-79.611-127.837c-7.461-11.98-3.441-28.389,8.975-36.647
				c12.405-8.254,28.505-5.239,35.956,6.736l55.211,88.74l72.85-148.369c6.538-13.315,22.246-19.424,35.075-13.648
				c12.827,5.773,17.931,21.238,11.402,34.545l-94.143,191.89c-4.311,8.786-12.881,14.833-22.378,15.787
				C1141.227,2718.335,1140.921,2718.361,1140.615,2718.381z"/>
		</g>
		<g>
			<path style="fill:#FFFFFF;" d="M1036.042,1517.452l10.177,2.003l0.024,0.005c2.92,0.574,4.822,3.408,4.248,6.329
				c-0.576,2.92-3.409,4.821-6.329,4.246c-0.061-0.012-0.142-0.03-0.201-0.044l-10.139-2.402c-2.79-0.66-4.515-3.458-3.854-6.246
				c0.645-2.721,3.322-4.429,6.042-3.898L1036.042,1517.452z"/>
			<path style="fill:#FFFFFF;" d="M1069.955,1523.929l10.195,1.828l0.034,0.005c3.288,0.591,5.478,3.734,4.888,7.025
				s-3.734,5.479-7.025,4.888c-0.068-0.012-0.159-0.031-0.226-0.044l-10.183-2.231c-3.159-0.691-5.157-3.812-4.466-6.969
				c0.676-3.079,3.662-5.057,6.738-4.51L1069.955,1523.929z"/>
			<path style="fill:#FFFFFF;" d="M1103.94,1529.773l10.214,1.608l0.046,0.007c3.664,0.578,6.165,4.013,5.587,7.677
				c-0.576,3.664-4.013,6.165-7.675,5.587c-0.076-0.012-0.179-0.03-0.253-0.044l-10.237-2.017c-3.53-0.694-5.827-4.12-5.133-7.65
				c0.679-3.444,3.954-5.714,7.391-5.179L1103.94,1529.773z"/>
			<path style="fill:#FFFFFF;" d="M1137.998,1534.83l10.232,1.339l0.063,0.008c4.039,0.529,6.885,4.231,6.356,8.271
				c-0.529,4.039-4.231,6.885-8.271,6.356c-0.083-0.01-0.196-0.027-0.279-0.041l-10.296-1.751c-3.909-0.664-6.537-4.37-5.873-8.278
				c0.649-3.812,4.191-6.407,7.991-5.915L1137.998,1534.83z"/>
			<path style="fill:#FFFFFF;" d="M1172.131,1538.933l10.249,1.019l0.079,0.008c4.417,0.439,7.643,4.376,7.204,8.793
				c-0.438,4.419-4.376,7.645-8.793,7.206c-0.091-0.009-0.216-0.024-0.306-0.037l-10.361-1.431c-4.289-0.593-7.285-4.55-6.692-8.837
				c0.578-4.184,4.358-7.138,8.523-6.729L1172.131,1538.933z"/>
			<path style="fill:#FFFFFF;" d="M1206.295,1541.907l10.244,0.649l0.096,0.005c4.795,0.304,8.439,4.437,8.135,9.234
				c-0.304,4.795-4.437,8.439-9.234,8.134c-0.1-0.007-0.233-0.018-0.333-0.027l-10.406-1.061c-4.67-0.476-8.07-4.648-7.594-9.318
				c0.464-4.557,4.446-7.905,8.976-7.624L1206.295,1541.907z"/>
			<path style="fill:#FFFFFF;" d="M1240.485,1543.606l10.259,0.245l0.111,0.002c5.169,0.123,9.261,4.415,9.136,9.585
				c-0.123,5.17-4.413,9.261-9.584,9.138c-0.108-0.003-0.252-0.01-0.358-0.015l-10.469-0.652c-5.05-0.314-8.891-4.663-8.575-9.715
				c0.306-4.927,4.452-8.702,9.344-8.591L1240.485,1543.606z"/>
			<path style="fill:#FFFFFF;" d="M1274.677,1543.934l10.251-0.176l0.118-0.002c5.537-0.095,10.101,4.317,10.195,9.854
				c0.094,5.537-4.317,10.102-9.854,10.195c-0.115,0.003-0.27,0.002-0.383,0l-10.492-0.223c-5.425-0.117-9.731-4.608-9.614-10.033
				c0.111-5.292,4.388-9.518,9.634-9.614L1274.677,1543.934z"/>
			<path style="fill:#FFFFFF;" d="M1308.826,1542.868l10.232-0.584l0.118-0.007c5.893-0.338,10.943,4.167,11.281,10.062
				c0.336,5.893-4.169,10.943-10.062,11.28c-0.123,0.009-0.289,0.014-0.411,0.017l-10.492,0.196
				c-5.792,0.108-10.573-4.498-10.683-10.29c-0.105-5.648,4.277-10.339,9.867-10.666L1308.826,1542.868z"/>
			<path style="fill:#FFFFFF;" d="M1342.91,1540.468l10.21-0.961l0.112-0.01c6.243-0.588,11.778,3.995,12.366,10.237
				c0.588,6.241-3.995,11.776-10.236,12.364c-0.13,0.014-0.306,0.025-0.434,0.034l-10.474,0.583
				c-6.148,0.341-11.41-4.366-11.752-10.514c-0.334-5.998,4.138-11.151,10.065-11.719L1342.91,1540.468z"/>
			<path style="fill:#FFFFFF;" d="M1376.92,1536.867l10.19-1.291l0.1-0.013c6.582-0.834,12.594,3.826,13.428,10.408
				c0.833,6.582-3.827,12.595-10.41,13.428c-0.137,0.019-0.321,0.037-0.458,0.049l-10.44,0.919
				c-6.5,0.571-12.23-4.234-12.801-10.734c-0.557-6.339,4.001-11.948,10.259-12.751L1376.92,1536.867z"/>
			<path style="fill:#FFFFFF;" d="M1410.86,1532.231l10.168-1.564l0.084-0.014c6.918-1.064,13.391,3.682,14.455,10.6
				c1.066,6.92-3.68,13.393-10.6,14.457c-0.144,0.022-0.338,0.047-0.481,0.064l-10.399,1.194
				c-6.844,0.787-13.031-4.125-13.817-10.969c-0.767-6.678,3.888-12.729,10.47-13.751L1410.86,1532.231z"/>
			<path style="fill:#FFFFFF;" d="M1444.731,1526.748l10.138-1.784l0.071-0.012c7.255-1.275,14.17,3.572,15.445,10.827
				c1.275,7.256-3.572,14.171-10.827,15.446c-0.15,0.027-0.355,0.057-0.505,0.079l-10.347,1.412
				c-7.19,0.981-13.813-4.05-14.795-11.241c-0.958-7.013,3.807-13.487,10.715-14.712L1444.731,1526.748z"/>
			<path style="fill:#FFFFFF;" d="M1478.526,1520.593l10.133-1.954l0.056-0.01c7.592-1.464,14.935,3.503,16.399,11.096
				c1.464,7.592-3.505,14.933-11.095,16.397c-0.159,0.03-0.372,0.068-0.529,0.091l-10.318,1.584
				c-7.533,1.155-14.578-4.015-15.734-11.548c-1.128-7.349,3.765-14.234,10.999-15.639L1478.526,1520.593z"/>
		</g>
		<g>
			<circle style="fill:#FFFFFF;" cx="836.582" cy="1460.504" r="192.217"/>
			
				<linearGradient id="SVGID_00000155145526396264869630000012300230146102928063_" gradientUnits="userSpaceOnUse" x1="1058.323" y1="917.3459" x2="734.8391" y2="1598.9728">
				<stop  offset="0" style="stop-color:#FF928E"/>
				<stop  offset="1" style="stop-color:#FE7062"/>
			</linearGradient>
			<path style="fill:url(#SVGID_00000155145526396264869630000012300230146102928063_);" d="M820.806,1608.035
				c-10.195,0.667-19.681-4.076-24.958-12.55l-88.633-142.324c-8.307-13.337-3.831-31.606,9.992-40.8
				c13.811-9.189,31.735-5.833,40.031,7.499l61.468,98.796l81.106-165.183c7.279-14.824,24.767-21.625,39.049-15.195
				c14.281,6.427,19.963,23.645,12.694,38.46l-104.811,213.636c-4.8,9.781-14.341,16.513-24.914,17.576
				C821.488,1607.984,821.147,1608.013,820.806,1608.035z"/>
		</g>
		<g>
			<path style="fill:#FFFFFF;" d="M1944.669,1889.491l-3.404,9.472l-0.101,0.28c-2.084,5.804-8.479,8.817-14.281,6.733
				c-5.714-2.052-8.719-8.297-6.82-14.028l3.36-10.112c1.966-5.919,8.357-9.124,14.278-7.156c5.918,1.966,9.122,8.357,7.156,14.278
				c-0.024,0.069-0.047,0.138-0.071,0.206L1944.669,1889.491z"/>
			<path style="fill:#FFFFFF;" d="M1934.199,1921.497l-2.675,9.788l-0.059,0.22c-1.566,5.726-7.477,9.099-13.203,7.533
				c-5.636-1.542-8.989-7.308-7.597-12.952l2.547-10.286c1.443-5.831,7.341-9.388,13.171-7.944
				c5.831,1.444,9.386,7.341,7.942,13.171c-0.017,0.068-0.034,0.135-0.052,0.203L1934.199,1921.497z"/>
			<path style="fill:#FFFFFF;" d="M1926.014,1954.386l-2.071,9.989l-0.036,0.174c-1.157,5.587-6.625,9.178-12.212,8.02
				c-5.501-1.138-9.065-6.471-8.069-11.967l1.892-10.383c1.034-5.682,6.479-9.45,12.163-8.415c5.682,1.034,9.45,6.479,8.415,12.163
				c-0.012,0.066-0.025,0.132-0.037,0.198L1926.014,1954.386z"/>
			<path style="fill:#FFFFFF;" d="M1919.737,1987.833l-1.554,10.114l-0.022,0.142c-0.833,5.412-5.893,9.124-11.305,8.293
				c-5.329-0.819-9.009-5.751-8.327-11.068l1.346-10.432c0.711-5.5,5.745-9.383,11.244-8.673c5.501,0.711,9.383,5.745,8.673,11.244
				c-0.008,0.064-0.017,0.128-0.027,0.193L1919.737,1987.833z"/>
			<path style="fill:#FFFFFF;" d="M1915.087,2021.663l-1.111,10.2l-0.012,0.116c-0.569,5.214-5.256,8.981-10.47,8.413
				c-5.133-0.559-8.863-5.125-8.435-10.241l0.885-10.459c0.448-5.297,5.104-9.226,10.4-8.778c5.297,0.448,9.227,5.104,8.78,10.4
				c-0.005,0.063-0.012,0.123-0.018,0.186L1915.087,2021.663z"/>
			<path style="fill:#FFFFFF;" d="M1911.851,2055.73l-0.719,10.254l-0.007,0.1c-0.351,5.003-4.691,8.773-9.693,8.422
				c-4.925-0.346-8.656-4.571-8.433-9.476l0.481-10.465c0.233-5.079,4.54-9.006,9.619-8.773c5.079,0.233,9.006,4.54,8.773,9.619
				c-0.003,0.059-0.005,0.118-0.01,0.177L1911.851,2055.73z"/>
			<path style="fill:#FFFFFF;" d="M1909.871,2089.948l-0.368,10.286l-0.003,0.086c-0.172,4.782-4.185,8.518-8.967,8.347
				c-4.707-0.169-8.403-4.076-8.352-8.758l0.122-10.464c0.057-4.853,4.037-8.743,8.891-8.685c4.854,0.056,8.743,4.037,8.685,8.891
				c0,0.056-0.002,0.113-0.003,0.169L1909.871,2089.948z"/>
			<path style="fill:#FFFFFF;" d="M1909.025,2124.257l-0.046,10.303v0.076c-0.02,4.554-3.728,8.229-8.281,8.209
				c-4.484-0.02-8.116-3.626-8.207-8.084l-0.206-10.45c-0.091-4.623,3.583-8.444,8.205-8.535c4.621-0.091,8.443,3.582,8.533,8.205
				c0.002,0.054,0.002,0.106,0.002,0.16V2124.257z"/>
			<path style="fill:#FFFFFF;" d="M1909.23,2158.61l0.255,10.307l0.002,0.069c0.108,4.321-3.309,7.912-7.631,8.02
				c-4.255,0.106-7.802-3.216-8.013-7.442l-0.51-10.435c-0.216-4.386,3.167-8.118,7.555-8.334c4.386-0.215,8.118,3.169,8.334,7.555
				c0.002,0.052,0.003,0.103,0.005,0.154L1909.23,2158.61z"/>
			<path style="fill:#FFFFFF;" d="M1910.422,2192.969l0.546,10.303l0.003,0.063c0.216,4.087-2.922,7.575-7.008,7.792
				c-4.025,0.213-7.469-2.836-7.782-6.83l-0.802-10.41c-0.321-4.15,2.783-7.775,6.934-8.094c4.152-0.321,7.775,2.783,8.096,6.933
				c0.003,0.049,0.007,0.098,0.008,0.146L1910.422,2192.969z"/>
			<path style="fill:#FFFFFF;" d="M1912.571,2227.304l0.829,10.288l0.005,0.059c0.309,3.849-2.561,7.222-6.41,7.531
				c-3.792,0.306-7.119-2.481-7.518-6.241l-1.088-10.383c-0.411-3.91,2.429-7.412,6.339-7.822c3.91-0.41,7.413,2.427,7.822,6.339
				c0.005,0.045,0.01,0.091,0.014,0.137L1912.571,2227.304z"/>
			<path style="fill:#FFFFFF;" d="M1915.663,2261.582l1.113,10.266l0.005,0.056c0.392,3.611-2.218,6.854-5.829,7.246
				c-3.556,0.385-6.756-2.147-7.228-5.672l-1.375-10.345c-0.486-3.669,2.093-7.038,5.761-7.526s7.038,2.091,7.526,5.761
				c0.005,0.042,0.01,0.084,0.015,0.128L1915.663,2261.582z"/>
			<path style="fill:#FFFFFF;" d="M1919.712,2295.77l1.407,10.229l0.008,0.056c0.463,3.37-1.893,6.477-5.263,6.94
				c-3.317,0.456-6.381-1.829-6.918-5.114l-1.671-10.303c-0.556-3.425,1.772-6.653,5.197-7.209c3.427-0.556,6.655,1.77,7.211,5.197
				c0.007,0.041,0.012,0.079,0.019,0.12L1919.712,2295.77z"/>
			<path style="fill:#FFFFFF;" d="M1924.766,2329.823l1.721,10.18l0.01,0.056c0.529,3.126-1.576,6.091-4.702,6.619
				c-3.079,0.52-6.001-1.52-6.594-4.567l-1.99-10.246c-0.618-3.182,1.461-6.261,4.642-6.878c3.181-0.618,6.261,1.459,6.878,4.642
				c0.007,0.037,0.014,0.074,0.02,0.111L1924.766,2329.823z"/>
			<path style="fill:#FFFFFF;" d="M1930.907,2363.685l2.076,10.107l0.012,0.061c0.593,2.88-1.263,5.696-4.143,6.287
				c-2.836,0.583-5.609-1.214-6.26-4.02l-2.346-10.173c-0.676-2.932,1.154-5.858,4.086-6.535c2.934-0.676,5.859,1.154,6.536,4.086
				c0.007,0.035,0.015,0.069,0.022,0.103L1930.907,2363.685z"/>
		</g>
		<g>
			
				<ellipse transform="matrix(0.7071 -0.7071 0.7071 0.7071 -1232.1851 2131.3723)" style="fill:#FFFFFF;" cx="1956.701" cy="2553.065" rx="157.099" ry="157.099"/>
			
				<linearGradient id="SVGID_00000060720472257759158640000016941075820249140901_" gradientUnits="userSpaceOnUse" x1="2137.9299" y1="2109.1426" x2="1873.547" y2="2666.2354">
				<stop  offset="0" style="stop-color:#FF928E"/>
				<stop  offset="1" style="stop-color:#FE7062"/>
			</linearGradient>
			<path style="fill:url(#SVGID_00000060720472257759158640000016941075820249140901_);" d="M1943.808,2673.642
				c-8.333,0.545-16.085-3.331-20.398-10.257l-72.439-116.322c-6.789-10.9-3.131-25.831,8.166-33.346
				c11.288-7.51,25.937-4.767,32.717,6.129l50.237,80.746l66.287-135.004c5.949-12.116,20.242-17.674,31.915-12.419
				c11.672,5.253,16.316,19.325,10.375,31.433l-85.662,174.605c-3.923,7.994-11.721,13.496-20.363,14.365
				C1944.365,2673.6,1944.087,2673.624,1943.808,2673.642z"/>
		</g>
		<g>
			<g>
				
					<linearGradient id="SVGID_00000031202894833749905520000013617426762206133924_" gradientUnits="userSpaceOnUse" x1="-12595.6328" y1="-192.2395" x2="-12688.0117" y2="318.5636" gradientTransform="matrix(-0.9937 -0.112 -0.112 0.9937 -9913.165 24.4975)">
					<stop  offset="0" style="stop-color:#E1473D"/>
					<stop  offset="1" style="stop-color:#E9605A"/>
				</linearGradient>
				<path style="fill:url(#SVGID_00000031202894833749905520000013617426762206133924_);" d="M2631.548,1698.505
					c173.289,5.105,214.155,45.691,214.155,45.691l-97.189,120.948c0,0-168.318-22.352-278.689-129.146
					c25.369-21.813,44.115-46.965,56.556-66.793C2556.089,1685.672,2591.127,1697.314,2631.548,1698.505z"/>
				
					<linearGradient id="SVGID_00000125568039348236133130000018041895223489071257_" gradientUnits="userSpaceOnUse" x1="-12545.5869" y1="156.7968" x2="-12376.8359" y2="156.7968" gradientTransform="matrix(-0.9937 -0.112 -0.112 0.9937 -9913.165 24.4975)">
					<stop  offset="0" style="stop-color:#FEBBBA"/>
					<stop  offset="1" style="stop-color:#FF928E"/>
				</linearGradient>
				<path style="fill:url(#SVGID_00000125568039348236133130000018041895223489071257_);" d="M2391.111,1416.188
					c0.852-5.475,8.477-6.131,10.251-0.881l16.637,49.216c3.214,9.51,3.43,19.776,0.619,29.413l-10.751,26.342
					c-3.794,13.01-1.862,26.995,5.364,38.46c17.291,27.435,54.979,78.226,113.149,110.468c-12.44,19.828-31.187,44.98-56.556,66.793
					c-40.498-39.184-73.205-89.722-86.919-154.716c-9.61-4.18-15.205-14.303-13.636-24.664L2391.111,1416.188z"/>
			</g>
			<g>
				<g>
					
						<ellipse transform="matrix(0.1126 -0.9936 0.9936 0.1126 546.3845 3162.7854)" style="fill:#FFFFFF;" cx="2043.973" cy="1275.483" rx="563.944" ry="566.917"/>
					
						<linearGradient id="SVGID_00000121276964055712316890000003333810266025612185_" gradientUnits="userSpaceOnUse" x1="2315.4844" y1="536.7208" x2="1869.2719" y2="1750.8311">
						<stop  offset="0" style="stop-color:#FF928E"/>
						<stop  offset="1" style="stop-color:#FE7062"/>
					</linearGradient>
					<path style="fill:url(#SVGID_00000121276964055712316890000003333810266025612185_);" d="M1499.394,1213.75
						c-33.915,299.185,182.407,569.362,483.169,603.456c300.763,34.094,572.074-180.805,605.989-479.99
						c33.915-299.184-182.408-569.361-483.17-603.455S1533.309,914.565,1499.394,1213.75z"/>
					<path style="opacity:0.66;fill:#FFFFFF;" d="M2548.995,1309.314c-0.071,0-0.142-0.003-0.213-0.007
						c-1.905-0.115-3.358-1.753-3.243-3.662c1.27-21.029,1.209-42.294-0.182-63.205c-0.125-1.905,1.317-3.554,3.223-3.682
						c1.885-0.078,3.554,1.318,3.682,3.223c1.412,21.201,1.473,42.764,0.182,64.083
						C2552.333,1307.899,2550.809,1309.314,2548.995,1309.314z"/>
					<path style="opacity:0.66;fill:#FFFFFF;" d="M2518.534,1104.813c-1.402,0-2.723-0.858-3.243-2.25
						c-66.39-178.182-225.418-302.219-415.021-323.714c-30.241-3.432-60.85-4.152-90.993-2.148
						c-1.855,0.078-3.557-1.318-3.682-3.223c-0.125-1.905,1.318-3.554,3.223-3.682c30.552-2.034,61.583-1.297,92.229,2.182
						c95.476,10.82,185.448,47.939,260.196,107.339c72.727,57.796,128.24,134.155,160.534,220.827
						c0.666,1.79-0.247,3.783-2.033,4.452C2519.345,1104.743,2518.937,1104.813,2518.534,1104.813z"/>
					
						<ellipse transform="matrix(0.1126 -0.9936 0.9936 0.1126 521.0707 3159.261)" style="opacity:0.3;fill:#FFFFFF;" cx="2029.301" cy="1287.9" rx="485.557" ry="488.118"/>
				</g>
				<g>
					<path style="fill:#FFFFFF;" d="M2172.293,1419.637l-25.051-4.904c0.1-11.544-0.778-23.092-2.645-34.511l24.143-8.425
						c6.509-2.272,9.938-9.475,7.66-16.093l-14.279-41.46c-2.288-6.641-9.434-10.191-15.965-7.923l-24.249,8.422
						c-5.564-10.046-12.078-19.681-19.45-28.829l16.83-19.735c4.519-5.298,3.91-13.361-1.36-18.012l-33.035-29.145
						c-5.294-4.67-13.262-4.15-17.792,1.163l-16.88,19.794c-10.033-6.148-20.441-11.37-31.132-15.582l4.712-25.796
						c1.271-6.956-3.28-13.732-10.168-15.134l-43.148-8.781c-6.913-1.406-13.545,3.109-14.809,10.085l-4.679,25.834
						c-11.626-0.288-23.243,0.455-34.723,2.194l-8.794-24.942c-2.38-6.753-9.696-10.386-16.341-8.11l-41.599,14.246
						c-6.66,2.279-10.112,9.609-7.71,16.366l8.779,24.706c-10.095,5.589-19.745,12.173-28.884,19.642l-19.817-17.188
						c-5.424-4.705-13.531-4.178-18.101,1.183l-28.585,33.519c-4.57,5.36-3.863,13.508,1.575,18.197l19.709,16.993
						c-6.041,10.237-11.107,20.865-15.139,31.782l-25.198-4.932c-6.996-1.37-13.669,3.174-14.9,10.149l-7.698,43.563
						c-1.23,6.958,3.443,13.692,10.43,15.042l25.055,4.839c-0.032,11.833,0.987,23.658,3.017,35.332l-23.819,8.272
						c-6.657,2.312-10.089,9.597-7.663,16.265l15.139,41.627c2.416,6.645,9.756,10.149,16.391,7.834l23.567-8.224
						c5.818,10.188,12.627,19.925,20.305,29.138l-16.142,18.929c-4.532,5.314-3.838,13.324,1.547,17.887l33.601,28.48
						c5.362,4.545,13.37,3.931,17.887-1.367l16.094-18.873c10.264,6.056,20.885,11.163,31.777,15.219l-4.407,24.335
						c-1.24,6.842,3.324,13.422,10.19,14.695l42.854,7.949c6.841,1.268,13.393-3.234,14.64-10.058l4.467-24.45
						c11.63,0.102,23.239-0.802,34.685-2.726l8.346,23.485c2.323,6.536,9.492,9.96,16.015,7.653l40.737-14.412
						c6.507-2.302,9.916-9.46,7.612-15.992l-8.313-23.582c9.911-5.63,19.391-12.214,28.356-19.675l19.016,16.398
						c5.232,4.511,13.106,3.909,17.585-1.345l28.016-32.854c4.481-5.254,3.884-13.181-1.336-17.708l-19.123-16.585
						c5.882-10.039,10.851-20.447,14.81-31.139l24.776,4.784c6.758,1.305,13.271-3.169,14.548-9.995l7.992-42.732
						C2183.506,1427.581,2179.06,1420.961,2172.293,1419.637z M2046.343,1495.606c-45.446,53.293-125.737,59.333-179.627,13.239
						c-54.216-46.373-61.162-127.85-15.217-181.729c45.946-53.879,126.977-59.279,180.691-12.319
						C2085.584,1361.475,2091.789,1442.312,2046.343,1495.606z"/>
					<path style="fill:#FFFFFF;" d="M2332.169,1084.329l-13.947-2.756c-0.101-6.248-0.745-12.502-1.936-18.688l13.256-4.465
						c3.575-1.203,5.375-5.089,4.021-8.677l-8.477-22.474c-1.358-3.598-5.362-5.542-8.945-4.34l-13.305,4.466
						c-3.215-5.448-6.947-10.677-11.146-15.644l9.04-10.602c2.427-2.846,1.983-7.202-0.996-9.73l-18.651-15.835
						c-2.987-2.536-7.381-2.281-9.815,0.572l-9.059,10.625c-5.623-3.348-11.438-6.198-17.394-8.503l2.261-13.895
						c0.609-3.745-1.991-7.411-5.808-8.187l-23.912-4.858c-3.83-0.778-7.427,1.635-8.033,5.388l-2.249,13.905
						c-6.411-0.191-12.804,0.173-19.108,1.075l-5.158-13.459c-1.398-3.644-5.471-5.621-9.102-4.416l-22.72,7.544
						c-3.635,1.207-5.444,5.142-4.039,8.787l5.138,13.331c-5.487,2.977-10.716,6.493-15.653,10.485l-11.113-9.32
						c-3.039-2.55-7.491-2.291-9.938,0.579l-15.308,17.952c-2.449,2.871-1.962,7.261,1.085,9.805l11.044,9.223
						c-3.197,5.494-5.857,11.203-7.943,17.073l-13.915-2.75c-3.863-0.764-7.476,1.66-8.071,5.414l-3.711,23.45
						c-0.595,3.748,2.056,7.396,5.914,8.151l13.839,2.708c0.126,6.385,0.829,12.769,2.087,19.078l-13.008,4.366
						c-3.635,1.22-5.437,5.137-4.021,8.746l8.83,22.543c1.411,3.6,5.493,5.527,9.119,4.305l12.881-4.339
						c3.329,5.532,7.198,10.825,11.543,15.84l-8.664,10.161c-2.434,2.853-1.953,7.188,1.071,9.681l18.876,15.571
						c3.014,2.486,7.424,2.193,9.851-0.653l8.645-10.138c5.741,3.328,11.67,6.144,17.732,8.393l-2.125,13.159
						c-0.599,3.701,2.005,7.287,5.813,8.012l23.784,4.523c3.798,0.723,7.364-1.684,7.965-5.378l2.154-13.23
						c6.433,0.113,12.84-0.321,19.146-1.308l4.924,12.775c1.371,3.555,5.384,5.45,8.964,4.231l22.366-7.614
						c3.574-1.217,5.365-5.083,4.004-8.638l-4.918-12.829c5.413-3.005,10.574-6.53,15.44-10.532l10.754,8.982
						c2.962,2.472,7.317,2.183,9.728-0.645l15.084-17.687c2.411-2.829,1.972-7.13-0.984-9.609l-10.824-9.077
						c3.125-5.414,5.735-11.032,7.783-16.807l13.797,2.699c3.765,0.737,7.313-1.659,7.927-5.354l3.841-23.117
						C2338.494,1088.677,2335.939,1085.074,2332.169,1084.329z M2263.453,1124.933c-24.439,28.658-68.741,31.557-99.073,6.372
						c-30.468-25.297-35.296-69.308-10.659-98.2c24.638-28.891,69.247-31.532,99.518-6.001
						C2283.372,1052.522,2287.891,1096.276,2263.453,1124.933z"/>
				</g>
			</g>
			<g>
				
					<linearGradient id="SVGID_00000108995218372169356850000018127504082964515479_" gradientUnits="userSpaceOnUse" x1="-13120.1436" y1="3077.6084" x2="-13007.5625" y2="3077.6084" gradientTransform="matrix(-0.9987 0.0507 0.0507 0.9987 -10336.2314 595.7192)">
					<stop  offset="0" style="stop-color:#09005D"/>
					<stop  offset="1" style="stop-color:#1A0F91"/>
				</linearGradient>
				<path style="fill:url(#SVGID_00000108995218372169356850000018127504082964515479_);" d="M2905.232,2965.311
					c0,0,13.492,19.06,19.431,74.039c0.553,5.123-3.293,9.706-8.439,9.967l-97.714,4.956c-3.932,0.2-6.933-3.513-5.864-7.301
					c4.867-17.238,20.084-59.433,57.516-85.003L2905.232,2965.311z"/>
				
					<linearGradient id="SVGID_00000033357772050888568960000011329987172065229755_" gradientUnits="userSpaceOnUse" x1="-13077.041" y1="1480.2284" x2="-13031.3809" y2="1480.2284" gradientTransform="matrix(-0.9937 -0.112 -0.112 0.9937 -9913.165 24.4975)">
					<stop  offset="0" style="stop-color:#FEBBBA"/>
					<stop  offset="1" style="stop-color:#FF928E"/>
				</linearGradient>
				<path style="fill:url(#SVGID_00000033357772050888568960000011329987172065229755_);" d="M2918.479,2935.42l-10.698,45.49
					c-0.923,3.924-4.401,6.758-8.431,6.768c-5.386,0.013-13.165-0.427-20.536-2.513c-6.701-1.896-10.93-8.532-10.149-15.452
					l5.019-44.518L2918.479,2935.42z"/>
				
					<linearGradient id="SVGID_00000173851841785326385350000016051149755800764074_" gradientUnits="userSpaceOnUse" x1="-12858.5898" y1="2727.3743" x2="-12681.9502" y2="2727.3743" gradientTransform="matrix(-0.9994 0.0349 0.0349 0.9994 -10244.1631 734.0373)">
					<stop  offset="0" style="stop-color:#09005D"/>
					<stop  offset="1" style="stop-color:#1A0F91"/>
				</linearGradient>
				<path style="fill:url(#SVGID_00000173851841785326385350000016051149755800764074_);" d="M2682.079,2968.691
					c0,0,19.73,28.438,20.722,68.382c0.234,9.408-7.379,17.175-16.785,17.503l-151.864,5.296c-7.11,0.247-10.316-8.79-4.639-13.079
					c28.033-21.181,83.2-60.849,123.536-77.09L2682.079,2968.691z"/>
				
					<linearGradient id="SVGID_00000178920475232515955710000007709736805314984599_" gradientUnits="userSpaceOnUse" x1="-12760.5234" y1="3615.9822" x2="-12715.1162" y2="3615.9822" gradientTransform="matrix(-0.9907 0.1362 0.1362 0.9907 -10445.4473 1097.9357)">
					<stop  offset="0" style="stop-color:#FEBBBA"/>
					<stop  offset="1" style="stop-color:#FF928E"/>
				</linearGradient>
				<path style="fill:url(#SVGID_00000178920475232515955710000007709736805314984599_);" d="M2685.862,2920.207l-3.89,58.38
					c-0.435,6.53-6.061,11.654-12.582,11.111c-3.965-0.33-8.729-1.351-13.995-3.716c-5.005-2.248-8.094-7.409-7.887-12.892
					l2.642-70.443L2685.862,2920.207z"/>
				
					<linearGradient id="SVGID_00000005252156500127762810000012681953722956283551_" gradientUnits="userSpaceOnUse" x1="-13108.417" y1="1083.6213" x2="-12798.835" y2="1083.6213" gradientTransform="matrix(-0.9937 -0.112 -0.112 0.9937 -9913.165 24.4975)">
					<stop  offset="0" style="stop-color:#4F52FF"/>
					<stop  offset="1" style="stop-color:#4042E2"/>
				</linearGradient>
				<path style="fill:url(#SVGID_00000005252156500127762810000012681953722956283551_);" d="M2988.199,2150.143
					c0,0,36.729,40.554,39.527,84.677c2.798,44.124-105.896,743.9-105.896,743.9s-41.546,2.187-61.133-12.922
					c0,0,26.513-459.113,19.449-566.69c0,0-152.686,461.463-189.854,543.763c0,0-39.827,0.35-51.654-8.554
					c0,0,95.117-609.777,140.115-715.019L2988.199,2150.143z"/>
				
					<linearGradient id="SVGID_00000032648480691873036530000008759822518309073076_" gradientUnits="userSpaceOnUse" x1="2955.6262" y1="1283.2051" x2="2929.6831" y2="1973.2778">
					<stop  offset="0" style="stop-color:#4F52FF"/>
					<stop  offset="1" style="stop-color:#4042E2"/>
				</linearGradient>
				<path style="fill:url(#SVGID_00000032648480691873036530000008759822518309073076_);" d="M2883.503,2385.928
					c2.389,0,4.642-1.451,5.55-3.812l23.984-62.327l38.046-18.761c2.945-1.454,4.156-5.02,2.702-7.966
					c-1.454-2.942-5.02-4.156-7.965-2.702l-40.131,19.791c-1.339,0.661-2.382,1.802-2.918,3.198l-24.817,64.496
					c-1.181,3.067,0.347,6.508,3.414,7.685C2882.07,2385.8,2882.792,2385.928,2883.503,2385.928z"/>
				
					<linearGradient id="SVGID_00000137835035601678845640000016746570010922147758_" gradientUnits="userSpaceOnUse" x1="3426.7937" y1="565.062" x2="3105.1062" y2="1218.8143">
					<stop  offset="0" style="stop-color:#FF928E"/>
					<stop  offset="1" style="stop-color:#FE7062"/>
				</linearGradient>
				<path style="fill:url(#SVGID_00000137835035601678845640000016746570010922147758_);" d="M2566.523,1767.648
					c67.781-58.311,186.22-74.754,254.235-79.325c29.798-2.002,56.749,17.492,63.959,46.472
					c20.903,84.012,78.829,302.981,90.576,340.817c9.638,31.04,19.926,61.455,26.496,80.487
					c3.926,11.369-2.023,23.773-13.375,27.749c-59.125,20.707-163.478,39.911-205.73,47.229c-9.294,1.61-17.493-6.156-16.436-15.53
					c0.896-7.948-0.385-15.993-3.706-23.269l-125.82-275.645c-108.638,96.183-194.308,96.439-256.628,65.678
					c14.729-32.527,25.691-65.542,32.939-99.041C2510.859,1877.65,2566.523,1767.648,2566.523,1767.648z"/>
				
					<linearGradient id="SVGID_00000077297488455714568210000012638681936102176957_" gradientUnits="userSpaceOnUse" x1="-12163.4609" y1="193.5854" x2="-12528.0938" y2="647.2238" gradientTransform="matrix(-0.9937 -0.112 -0.112 0.9937 -9913.165 24.4975)">
					<stop  offset="0" style="stop-color:#FEBBBA"/>
					<stop  offset="1" style="stop-color:#FF928E"/>
				</linearGradient>
				<path style="fill:url(#SVGID_00000077297488455714568210000012638681936102176957_);" d="M2256.43,1847.415l19.923-21.14
					c51.73,44.83,97.569,59.242,136.679,56.994c-7.248,33.499-18.21,66.514-32.939,99.041
					C2297.992,1941.788,2256.43,1847.415,2256.43,1847.415z"/>
				
					<linearGradient id="SVGID_00000039131342001250043230000012835851225830605498_" gradientUnits="userSpaceOnUse" x1="-12405.1816" y1="1333.8649" x2="-12769.8379" y2="1787.5314" gradientTransform="matrix(-0.9819 0.1892 0.1892 0.9819 -10399.3926 2724.7598)">
					<stop  offset="0" style="stop-color:#FEBBBA"/>
					<stop  offset="1" style="stop-color:#FF928E"/>
				</linearGradient>
				<path style="fill:url(#SVGID_00000039131342001250043230000012835851225830605498_);" d="M2282.779,1842.81l-95.698,22.334
					l-98.328-32.481c11.204-10.443,86.411-7.998,86.411-7.998s73.136-25.906,93.521-29.859
					c16.929-3.285,19.201,21.532,19.485,30.036c0.057,1.735,0.032,2.791,0.032,2.791L2282.779,1842.81z"/>
				
					<linearGradient id="SVGID_00000026854005528554359650000000168225072135915438_" gradientUnits="userSpaceOnUse" x1="-12573.6895" y1="-80.5519" x2="-12926.833" y2="568.3148" gradientTransform="matrix(-0.9937 -0.112 -0.112 0.9937 -9913.165 24.4975)">
					<stop  offset="0" style="stop-color:#FEBBBA"/>
					<stop  offset="1" style="stop-color:#FF928E"/>
				</linearGradient>
				<path style="fill:url(#SVGID_00000026854005528554359650000000168225072135915438_);" d="M2742.566,1558.38l37.318,131.434
					c0,0-63.771,34.275-110.922,25.012l-12.957-115.861L2742.566,1558.38z"/>
				<g>
					
						<linearGradient id="SVGID_00000127760711354492751030000008980702569900810129_" gradientUnits="userSpaceOnUse" x1="-9556.2451" y1="-4949.6152" x2="-9712.3193" y2="-4743.1411" gradientTransform="matrix(-0.7472 -0.6646 -0.6646 0.7472 -7742.396 -1168.7673)">
						<stop  offset="0" style="stop-color:#FEBBBA"/>
						<stop  offset="1" style="stop-color:#FF928E"/>
					</linearGradient>
					<path style="fill:url(#SVGID_00000127760711354492751030000008980702569900810129_);" d="M2665.255,1462.931
						c-1.367,1.537-52.123,127.762-52.123,127.762l72.689,27.449l65.881-112.488
						C2751.701,1505.654,2688.149,1437.19,2665.255,1462.931z"/>
					
						<linearGradient id="SVGID_00000055675857012383740350000001812909452253539971_" gradientUnits="userSpaceOnUse" x1="-9675.4404" y1="-4899.8086" x2="-9489.0039" y2="-4899.8086" gradientTransform="matrix(-0.7472 -0.6646 -0.6646 0.7472 -7742.396 -1168.7673)">
						<stop  offset="0" style="stop-color:#09005D"/>
						<stop  offset="1" style="stop-color:#1A0F91"/>
					</linearGradient>
					<path style="fill:url(#SVGID_00000055675857012383740350000001812909452253539971_);" d="M2721.493,1520.467l-30.043,61.932
						c-0.385,0.794-0.863,1.515-1.449,2.175c-3.585,4.042-16.939,17.045-29.409,2.571c-11.315-13.134-21.836-24.952-32.432-28.077
						c-4.757-1.403-9.793,1.029-11.642,5.631c-4.608,11.47-14.515,37.508-19.671,61.443c-1.046,4.858,1.845,9.679,6.592,11.148
						c14.303,4.423,44.728,12.909,70.805,14.002c3.533,0.148,6.856-1.607,8.678-4.638c8.886-14.775,36.06-59.582,45.564-70.897
						c8.92-10.62,27.577-8.189,35.339-6.611c2.545,0.518,5.166-0.025,7.298-1.508c7.537-5.239,22.321-19.116,6.03-39.562
						c-3.41-4.279-2.606-10.471,1.774-13.749c8.722-6.526,18.637-18.724,7.338-36.514c-11.485-18.083-29.41-17.433-40.654-14.709
						c-4.547,1.101-9.102-1.282-11.026-5.547c-1.094-2.428-3.258-4.416-7.385-4.525c-5.562-0.147-9.674-5.267-8.952-10.782
						c1.388-10.598-0.901-24.444-18.677-32.255c-31.543-13.86-55.489,15.422-60.164,38.76
						c-4.677,23.338,30.376,36.421,51.764,37.223c16.263,0.609,26.433,17.943,30.375,26.217
						C2722.794,1514.818,2722.76,1517.855,2721.493,1520.467z"/>
					
						<linearGradient id="SVGID_00000142890902634323602950000017925904479119245962_" gradientUnits="userSpaceOnUse" x1="-9784.833" y1="-4786.1055" x2="-9659.6484" y2="-4914.542" gradientTransform="matrix(-0.7472 -0.6646 -0.6646 0.7472 -7742.396 -1168.7673)">
						<stop  offset="0" style="stop-color:#FEBBBA"/>
						<stop  offset="1" style="stop-color:#FF928E"/>
					</linearGradient>
					<path style="fill:url(#SVGID_00000142890902634323602950000017925904479119245962_);" d="M2717.322,1598.198
						c0,0,9.893-40.316,27.138-40.401c17.245-0.086,32.232,15.768,12.723,36.823
						C2732.917,1620.81,2717.322,1598.198,2717.322,1598.198z"/>
				</g>
			</g>
		</g>
		<g>
			<path style="fill:#FFFFFF;" d="M1622.266,1744.564l-7.736,6.638l-0.137,0.116c-4.696,4.028-11.768,3.486-15.796-1.209
				c-3.984-4.645-3.491-11.622,1.064-15.671l7.89-7.005c4.664-4.142,11.801-3.716,15.941,0.948
				c4.142,4.663,3.718,11.802-0.948,15.941c-0.032,0.029-0.066,0.059-0.1,0.088L1622.266,1744.564z"/>
			<path style="fill:#FFFFFF;" d="M1596.824,1767.168l-7.437,7.016l-0.101,0.095c-4.383,4.135-11.288,3.934-15.423-0.449
				c-4.089-4.334-3.929-11.144,0.316-15.293l7.516-7.335c4.346-4.243,11.31-4.159,15.553,0.189
				c4.243,4.348,4.158,11.312-0.189,15.554c-0.03,0.029-0.061,0.059-0.093,0.09L1596.824,1767.168z"/>
			<path style="fill:#FFFFFF;" d="M1572.319,1790.947l-7.187,7.322l-0.079,0.081c-4.106,4.185-10.829,4.248-15.014,0.142
				c-4.14-4.062-4.24-10.69-0.267-14.884l7.217-7.608c4.069-4.29,10.845-4.469,15.134-0.4c4.29,4.069,4.469,10.845,0.4,15.136
				c-0.029,0.03-0.057,0.061-0.088,0.089L1572.319,1790.947z"/>
			<path style="fill:#FFFFFF;" d="M1548.633,1815.659l-6.959,7.57l-0.064,0.069c-3.859,4.197-10.389,4.473-14.587,0.615
				c-4.152-3.817-4.459-10.256-0.731-14.457l6.954-7.829c3.821-4.299,10.401-4.687,14.7-0.868c4.299,3.819,4.687,10.4,0.868,14.698
				c-0.027,0.032-0.054,0.061-0.081,0.091L1548.633,1815.659z"/>
			<path style="fill:#FFFFFF;" d="M1525.684,1841.142l-6.75,7.775l-0.052,0.061c-3.631,4.184-9.967,4.63-14.149,0.998
				c-4.138-3.591-4.615-9.835-1.11-14.019l6.719-8.011c3.591-4.282,9.974-4.841,14.256-1.25c4.282,3.591,4.841,9.974,1.25,14.256
				c-0.025,0.03-0.051,0.061-0.078,0.089L1525.684,1841.142z"/>
			<path style="fill:#FFFFFF;" d="M1503.414,1867.272l-6.557,7.952l-0.046,0.056c-3.42,4.15-9.557,4.74-13.707,1.319
				c-4.104-3.385-4.719-9.432-1.422-13.578l6.51-8.173c3.38-4.245,9.562-4.946,13.806-1.566c4.245,3.382,4.946,9.562,1.564,13.806
				c-0.024,0.03-0.047,0.061-0.071,0.091L1503.414,1867.272z"/>
			<path style="fill:#FFFFFF;" d="M1481.774,1893.966l-6.375,8.108l-0.039,0.051c-3.225,4.099-9.16,4.811-13.261,1.586
				c-4.055-3.187-4.788-9.038-1.684-13.132l6.312-8.317c3.184-4.192,9.163-5.011,13.355-1.829c4.194,3.184,5.012,9.163,1.829,13.355
				c-0.024,0.03-0.046,0.061-0.068,0.089L1481.774,1893.966z"/>
			<path style="fill:#FFFFFF;" d="M1460.731,1921.156l-6.201,8.248l-0.036,0.047c-3.037,4.038-8.773,4.853-12.811,1.816
				c-3.996-3.005-4.829-8.656-1.909-12.688l6.13-8.445c2.996-4.13,8.773-5.048,12.903-2.052c4.13,2.996,5.049,8.773,2.052,12.903
				c-0.022,0.031-0.044,0.059-0.064,0.088L1460.731,1921.156z"/>
			<path style="fill:#FFFFFF;" d="M1440.26,1948.801l-6.033,8.378l-0.032,0.044c-2.858,3.969-8.393,4.87-12.362,2.012
				c-3.925-2.828-4.844-8.281-2.098-12.241l5.952-8.567c2.817-4.057,8.391-5.06,12.448-2.241c4.059,2.817,5.062,8.391,2.243,12.448
				c-0.02,0.029-0.039,0.057-0.059,0.086L1440.26,1948.801z"/>
			<path style="fill:#FFFFFF;" d="M1420.344,1976.866l-5.868,8.498l-0.03,0.042c-2.687,3.892-8.02,4.868-11.911,2.181
				c-3.849-2.659-4.843-7.911-2.262-11.791l5.778-8.68c2.648-3.978,8.02-5.055,11.996-2.407c3.978,2.647,5.055,8.018,2.407,11.996
				c-0.019,0.027-0.037,0.056-0.056,0.084L1420.344,1976.866z"/>
			<path style="fill:#FFFFFF;" d="M1400.976,2005.327l-5.704,8.613l-0.027,0.041c-2.522,3.807-7.653,4.851-11.46,2.327
				c-3.767-2.493-4.824-7.548-2.405-11.342l5.608-8.79c2.485-3.892,7.651-5.032,11.543-2.549s5.032,7.65,2.549,11.541
				c-0.017,0.027-0.036,0.056-0.052,0.083L1400.976,2005.327z"/>
			<path style="fill:#FFFFFF;" d="M1382.156,2034.164l-5.537,8.724l-0.025,0.039c-2.361,3.719-7.29,4.821-11.009,2.459
				c-3.679-2.334-4.792-7.189-2.53-10.895l5.437-8.895c2.323-3.8,7.287-4.998,11.087-2.675c3.8,2.324,4.998,7.288,2.675,11.089
				c-0.017,0.025-0.034,0.052-0.051,0.079L1382.156,2034.164z"/>
			<path style="fill:#FFFFFF;" d="M1363.896,2063.369l-5.366,8.83l-0.024,0.039c-2.203,3.626-6.929,4.78-10.555,2.576
				c-3.588-2.179-4.751-6.834-2.643-10.443l5.263-9c2.165-3.706,6.925-4.952,10.631-2.787c3.704,2.167,4.952,6.927,2.785,10.633
				c-0.015,0.025-0.03,0.052-0.046,0.078L1363.896,2063.369z"/>
			<path style="fill:#FFFFFF;" d="M1346.213,2092.933l-5.189,8.937l-0.022,0.039c-2.049,3.53-6.572,4.731-10.1,2.682
				c-3.491-2.027-4.701-6.479-2.743-9.992l5.079-9.104c2.013-3.606,6.567-4.898,10.175-2.885c3.606,2.011,4.898,6.567,2.885,10.173
				c-0.014,0.025-0.029,0.051-0.042,0.076L1346.213,2092.933z"/>
			<path style="fill:#FFFFFF;" d="M1329.134,2122.853l-4.998,9.045l-0.024,0.041c-1.895,3.431-6.212,4.674-9.643,2.779
				c-3.393-1.875-4.643-6.126-2.836-9.538l4.89-9.209c1.86-3.505,6.209-4.837,9.714-2.978c3.505,1.86,4.837,6.209,2.978,9.714
				c-0.014,0.025-0.027,0.049-0.041,0.074L1329.134,2122.853z"/>
			<path style="fill:#FFFFFF;" d="M1312.701,2153.136l-4.795,9.153l-0.022,0.042c-1.745,3.327-5.856,4.613-9.183,2.868
				c-3.292-1.725-4.581-5.771-2.922-9.079l4.682-9.319c1.709-3.402,5.851-4.773,9.251-3.064c3.402,1.709,4.773,5.851,3.064,9.251
				c-0.012,0.024-0.024,0.049-0.035,0.073L1312.701,2153.136z"/>
			<path style="fill:#FFFFFF;" d="M1296.967,2183.784l-4.571,9.266l-0.024,0.044c-1.589,3.224-5.493,4.549-8.717,2.958
				c-3.189-1.573-4.516-5.415-3.005-8.618l4.456-9.432c1.557-3.294,5.49-4.704,8.785-3.147c3.294,1.557,4.702,5.49,3.147,8.783
				c-0.012,0.024-0.022,0.047-0.034,0.071L1296.967,2183.784z"/>
			<path style="fill:#FFFFFF;" d="M1282.017,2214.795l-4.319,9.383l-0.024,0.049c-1.436,3.118-5.126,4.481-8.246,3.045
				c-3.084-1.42-4.449-5.054-3.089-8.15l4.204-9.552c1.402-3.186,5.123-4.633,8.31-3.229c3.186,1.402,4.633,5.123,3.229,8.308
				c-0.008,0.024-0.019,0.046-0.029,0.068L1282.017,2214.795z"/>
			<path style="fill:#FFFFFF;" d="M1267.946,2246.201l-4.032,9.503l-0.022,0.054c-1.279,3.012-4.755,4.417-7.765,3.14
				c-2.979-1.263-4.385-4.684-3.179-7.673l3.913-9.678c1.245-3.077,4.748-4.564,7.827-3.319c3.077,1.245,4.562,4.748,3.319,7.825
				c-0.01,0.022-0.019,0.044-0.027,0.066L1267.946,2246.201z"/>
			<path style="fill:#FFFFFF;" d="M1254.891,2278.021l-3.691,9.633l-0.024,0.061c-1.113,2.904-4.368,4.354-7.27,3.243
				c-2.871-1.101-4.321-4.302-3.277-7.182l3.572-9.817c1.079-2.966,4.361-4.496,7.329-3.417c2.966,1.079,4.496,4.359,3.417,7.327
				c-0.007,0.022-0.015,0.042-0.024,0.063L1254.891,2278.021z"/>
			<path style="fill:#FFFFFF;" d="M1243.049,2310.292l-3.277,9.77l-0.024,0.073c-0.937,2.794-3.961,4.299-6.755,3.363
				c-2.763-0.927-4.265-3.9-3.392-6.668l3.155-9.969c0.905-2.856,3.952-4.439,6.809-3.533c2.856,0.904,4.439,3.951,3.535,6.807
				c-0.007,0.02-0.013,0.041-0.02,0.061L1243.049,2310.292z"/>
		</g>
	</g>
</g>
</svg>
